<svg xmlns="http://www.w3.org/2000/svg" width="86" height="61.867" viewBox="0 0 86 61.867">
  <path id="Path_2821" data-name="Path 2821" d="M23.8-42.684,12.607-25.572a17.126,17.126,0,0,1,8.337,6.253,17.886,17.886,0,0,1,3.291,10.86A18.574,18.574,0,0,1,18.749,5.033,18.028,18.028,0,0,1,5.367,10.627,18.387,18.387,0,0,1-8.126,5.033,18.387,18.387,0,0,1-13.72-8.459a18.589,18.589,0,0,1,1.426-7.459,39.81,39.81,0,0,1,4.059-7.02l19.087-28.3Zm48.046,0L60.652-25.572a17.127,17.127,0,0,1,8.337,6.253A17.886,17.886,0,0,1,72.28-8.459,18.574,18.574,0,0,1,66.8,5.033a18.028,18.028,0,0,1-13.383,5.594A18.387,18.387,0,0,1,39.92,5.033,18.387,18.387,0,0,1,34.326-8.459a18.589,18.589,0,0,1,1.426-7.459,39.81,39.81,0,0,1,4.059-7.02L58.9-51.24Z" transform="translate(72.28 10.627) rotate(180)" fill="#ccdbff"/>
</svg>
