<svg xmlns="http://www.w3.org/2000/svg" xmlns:xlink="http://www.w3.org/1999/xlink" width="348.043" height="240.316" viewBox="0 0 348.043 240.316">
  <defs>
    <linearGradient id="linear-gradient" x1="0.925" y1="0.966" x2="0.131" y2="0.136" gradientUnits="objectBoundingBox">
      <stop offset="0" stop-color="#c8d9fb" stop-opacity="0"/>
      <stop offset="0.131" stop-color="#c9d5ec" stop-opacity="0.733"/>
      <stop offset="1" stop-color="#dde9ff"/>
    </linearGradient>
    <clipPath id="clip-path">
      <path id="Path_7974" data-name="Path 7974" d="M308.062,874.751c-6.351,2.1-5.061,18.516-.979,32.858,3.823,13.432,11.161,25.768,19.763,22.858,7.305-2.471,5.593-15.944.733-28.989C322.154,886.913,314.414,872.647,308.062,874.751Z" transform="translate(-303.659 -874.543)" fill="none"/>
    </clipPath>
    <linearGradient id="linear-gradient-2" x1="0.074" y1="0.618" x2="0.832" y2="0.4" gradientUnits="objectBoundingBox">
      <stop offset="0.21" stop-color="#28ac9c"/>
      <stop offset="0.384" stop-color="#34b19d"/>
      <stop offset="0.702" stop-color="#56bfa2"/>
      <stop offset="1" stop-color="#7bcfa7"/>
    </linearGradient>
    <linearGradient id="linear-gradient-3" x1="0.909" y1="0.869" x2="0.366" y2="0.467" gradientUnits="objectBoundingBox">
      <stop offset="0" stop-color="#208276"/>
      <stop offset="1" stop-color="#1f8478" stop-opacity="0"/>
    </linearGradient>
    <linearGradient id="linear-gradient-4" x1="0.068" y1="0.009" x2="1.384" y2="1.496" gradientUnits="objectBoundingBox">
      <stop offset="0" stop-color="#248f81"/>
      <stop offset="0.22" stop-color="#1f7e73"/>
      <stop offset="0.722" stop-color="#155f59"/>
      <stop offset="1" stop-color="#12534f"/>
    </linearGradient>
    <clipPath id="clip-path-2">
      <path id="Path_8279" data-name="Path 8279" d="M468.328,835.953c6.5.756,7.118,16.752,6.33,31.042-.789,14.334-5.09,28.08-14.2,26.9-7.759-1.008-8.573-15.435-6.189-29.57C456.744,849.649,461.826,835.2,468.328,835.953Z" transform="translate(-453.084 -835.924)" fill="none"/>
    </clipPath>
    <linearGradient id="linear-gradient-5" x1="-0.28" y1="0.68" x2="1.305" y2="0.336" xlink:href="#linear-gradient-2"/>
    <linearGradient id="linear-gradient-6" x1="0.909" y1="0.869" x2="0.769" y2="0.098" xlink:href="#linear-gradient-3"/>
    <linearGradient id="linear-gradient-7" x1="0.909" y1="0.008" x2="-0.087" y2="1.231" gradientUnits="objectBoundingBox">
      <stop offset="0" stop-color="#279d8d"/>
      <stop offset="0.34" stop-color="#1e7e73"/>
      <stop offset="0.765" stop-color="#155f59"/>
      <stop offset="1" stop-color="#12534f"/>
    </linearGradient>
    <clipPath id="clip-path-3">
      <path id="Path_8584" data-name="Path 8584" d="M401.248,765.257c-6.941,0-9.508,16.079-9.142,34.118.329,16.286,3.233,32.168,11.429,31.594,9.55-.667,11.733-16.665,10.215-32.706C412.205,781.94,408.19,765.257,401.248,765.257Z" transform="translate(-392.072 -765.257)" fill="none"/>
    </clipPath>
    <linearGradient id="linear-gradient-8" x1="-0.272" y1="0.645" x2="1.18" y2="0.363" xlink:href="#linear-gradient-2"/>
    <linearGradient id="linear-gradient-9" x1="0.909" y1="0.869" x2="0.5" y2="0.5" xlink:href="#linear-gradient-3"/>
    <linearGradient id="linear-gradient-10" x1="0.5" y1="0.005" x2="0.5" y2="0.897" xlink:href="#linear-gradient-7"/>
    <linearGradient id="linear-gradient-11" x1="0.5" y1="0.992" x2="0.5" y2="0.069" gradientUnits="objectBoundingBox">
      <stop offset="0" stop-color="#eae0cd"/>
      <stop offset="1" stop-color="#efbd84"/>
    </linearGradient>
    <linearGradient id="linear-gradient-12" x1="0.5" y1="0.01" x2="0.5" y2="0.995" gradientUnits="objectBoundingBox">
      <stop offset="0" stop-color="#fff"/>
      <stop offset="0.013" stop-color="#fff"/>
      <stop offset="0.933" stop-color="#f6ecec"/>
      <stop offset="1" stop-color="#fff"/>
    </linearGradient>
    <linearGradient id="linear-gradient-13" x1="0.783" y1="0.239" x2="0.007" y2="0.954" gradientUnits="objectBoundingBox">
      <stop offset="0.267" stop-color="#652f0a"/>
      <stop offset="0.284" stop-color="#6e340a"/>
      <stop offset="0.345" stop-color="#8b450a"/>
      <stop offset="0.398" stop-color="#9d500a"/>
      <stop offset="0.435" stop-color="#a4540a"/>
    </linearGradient>
    <linearGradient id="linear-gradient-14" x1="0.636" y1="0.375" x2="-0.01" y2="0.969" gradientUnits="objectBoundingBox">
      <stop offset="0.154" stop-color="#652f0a"/>
      <stop offset="0.174" stop-color="#6e340a"/>
      <stop offset="0.248" stop-color="#8b450a"/>
      <stop offset="0.312" stop-color="#9d500a"/>
      <stop offset="0.358" stop-color="#a4540a"/>
    </linearGradient>
    <linearGradient id="linear-gradient-15" x1="9.814" y1="0.239" x2="9.038" y2="0.954" xlink:href="#linear-gradient-13"/>
    <linearGradient id="linear-gradient-16" x1="12.938" y1="0.375" x2="12.292" y2="0.969" xlink:href="#linear-gradient-14"/>
    <linearGradient id="linear-gradient-17" x1="0.184" y1="0.5" x2="0.73" y2="0.5" gradientUnits="objectBoundingBox">
      <stop offset="0.055" stop-color="#e39936"/>
      <stop offset="0.126" stop-color="#da902f"/>
      <stop offset="0.454" stop-color="#b76e16"/>
      <stop offset="0.722" stop-color="#a15806"/>
      <stop offset="0.896" stop-color="#9a5101"/>
    </linearGradient>
    <clipPath id="clip-path-4">
      <path id="Path_8912" data-name="Path 8912" d="M550.5,1024.224l-3.2-6.406c-5.126-5.126-6.472-8.215-10.678-7.689l-45.7,6.193c-9,1.133-18.7-3.807-22.211-12.173L440.088,935.38c-1.478-3.526-5.115-7.583-9.4-12.173H487.36c4.679,1.755,8.033,3.59,9.964,8.2L522.1,989.625c2.769,6.606,33.892-6.384,41.006-7.261l11.959,8.543c5.6-.7,12.1,28.618,12.1,28.618Z" transform="translate(-430.691 -923.207)" fill="none"/>
    </clipPath>
    <linearGradient id="linear-gradient-18" x1="0.457" y1="-0.072" x2="0.543" y2="1.023" gradientUnits="objectBoundingBox">
      <stop offset="0" stop-color="#e39936"/>
      <stop offset="0.162" stop-color="#df9534"/>
      <stop offset="0.322" stop-color="#d3892e"/>
      <stop offset="0.482" stop-color="#bf7524"/>
      <stop offset="0.641" stop-color="#a45917"/>
      <stop offset="0.648" stop-color="#a35817"/>
      <stop offset="0.716" stop-color="#a35817"/>
      <stop offset="0.722" stop-color="#a85d19"/>
      <stop offset="0.771" stop-color="#d2882e"/>
      <stop offset="0.796" stop-color="#e39936"/>
      <stop offset="0.845" stop-color="#e39936"/>
      <stop offset="0.94" stop-color="#c87e2c"/>
      <stop offset="1" stop-color="#bd7428"/>
    </linearGradient>
    <linearGradient id="linear-gradient-19" x1="0.868" y1="0.861" x2="0.819" y2="0.883" gradientUnits="objectBoundingBox">
      <stop offset="0" stop-color="#652f0a"/>
      <stop offset="1" stop-color="#652f0a" stop-opacity="0"/>
    </linearGradient>
    <linearGradient id="linear-gradient-20" x1="0.331" y1="0.536" x2="0.204" y2="0.778" xlink:href="#linear-gradient-19"/>
    <linearGradient id="linear-gradient-21" x1="0.699" y1="0.138" x2="0.343" y2="0.184" xlink:href="#linear-gradient-19"/>
    <linearGradient id="linear-gradient-22" y1="0.5" x2="1" y2="0.5" gradientUnits="objectBoundingBox">
      <stop offset="0.055" stop-color="#ffe1ac"/>
      <stop offset="0.079" stop-color="#fedea5"/>
      <stop offset="0.224" stop-color="#fdd082"/>
      <stop offset="0.343" stop-color="#fcc86c"/>
      <stop offset="0.42" stop-color="#fcc565"/>
      <stop offset="0.622" stop-color="#f8bd5d"/>
      <stop offset="0.935" stop-color="#edaa47"/>
      <stop offset="1" stop-color="#eba642"/>
    </linearGradient>
    <clipPath id="clip-path-5">
      <path id="Path_9823" data-name="Path 9823" d="M641.416,665.656c8.115,6.692,10.213,13.589,9.536,16.487a4.4,4.4,0,0,1-3.769,3.287L649.674,691l4.253,11.159-17.495-8.6-.559-6.2-7.367-12.743Z" transform="translate(-628.506 -665.656)" fill="none"/>
    </clipPath>
    <radialGradient id="radial-gradient" cx="0.5" cy="0.5" r="0.5" gradientTransform="translate(0)" gradientUnits="objectBoundingBox">
      <stop offset="0" stop-color="#e38a7b"/>
      <stop offset="1" stop-color="#e28878" stop-opacity="0"/>
    </radialGradient>
    <linearGradient id="linear-gradient-23" x1="0.272" y1="0.698" x2="0.62" y2="-0.114" gradientUnits="objectBoundingBox">
      <stop offset="0" stop-color="#fffefe" stop-opacity="0"/>
      <stop offset="0.363" stop-color="#bd4646" stop-opacity="0.8"/>
      <stop offset="1" stop-color="#900909"/>
    </linearGradient>
    <linearGradient id="linear-gradient-24" x1="-0.312" y1="0.408" x2="1.109" y2="0.793" gradientUnits="objectBoundingBox">
      <stop offset="0" stop-color="#fffefe" stop-opacity="0"/>
      <stop offset="0.54" stop-color="#bd4646" stop-opacity="0.8"/>
      <stop offset="1" stop-color="#900909"/>
    </linearGradient>
    <linearGradient id="linear-gradient-25" x1="0" y1="0.528" x2="0.5" y2="0.5" xlink:href="#linear-gradient-23"/>
    <clipPath id="clip-path-6">
      <path id="Path_10127" data-name="Path 10127" d="M622.524,642.741a18.066,18.066,0,0,1-6.63,11.307c-4.671-4.059-7.281,5.412-.708,4.156l.515,5.96a20.477,20.477,0,0,0-4.567-5.049c-2.087-1.766-4.734-3.441-6.549-6.265-3.844-5.98.363-12.826,7.015-13.526a26.929,26.929,0,0,1,6.387.1c1.974.188,2.543-.841,1.547-2.232C618.186,635.306,623.236,637.045,622.524,642.741Z" transform="translate(-603.12 -636.46)" fill="none"/>
    </clipPath>
    <linearGradient id="linear-gradient-26" x1="0.5" x2="0.5" y2="0.894" gradientUnits="objectBoundingBox">
      <stop offset="0" stop-color="#67f1e0"/>
      <stop offset="1" stop-color="#228e80" stop-opacity="0"/>
    </linearGradient>
    <clipPath id="clip-path-7">
      <path id="Path_11641" data-name="Path 11641" d="M541.005,801.3a31.32,31.32,0,0,0-11.96,7.83c-6.544,6.7-12.1,16.445-12.387,44.21l24.773-2.848-8.044,18.223,58.3-19.221-4.983-23.991,10.25,1.994,5.7-23.635s-3.916-1.495-15.021-5.2c-8.46-2.821-14.024-4.058-21.428-2.919l-1.157,9.45Z" transform="translate(-516.658 -795.328)" fill="none"/>
    </clipPath>
    <linearGradient id="linear-gradient-27" x1="0.267" y1="0.854" x2="0.839" y2="0.834" gradientUnits="objectBoundingBox">
      <stop offset="0" stop-color="#961f01"/>
      <stop offset="1" stop-color="#c33f01"/>
    </linearGradient>
    <linearGradient id="linear-gradient-28" x1="0.133" y1="0.521" x2="0.689" y2="0.208" gradientUnits="objectBoundingBox">
      <stop offset="0" stop-color="#c33f01"/>
      <stop offset="1" stop-color="#d1570f" stop-opacity="0"/>
    </linearGradient>
    <linearGradient id="linear-gradient-29" x1="0.562" y1="0.432" x2="0.06" y2="0.403" gradientUnits="objectBoundingBox">
      <stop offset="0" stop-color="#ff7500"/>
      <stop offset="0.258" stop-color="#ff7500"/>
      <stop offset="0.437" stop-color="#ff7500"/>
      <stop offset="1" stop-color="#fb7606" stop-opacity="0"/>
    </linearGradient>
    <linearGradient id="linear-gradient-30" x1="0.171" y1="0.853" x2="0.929" y2="0.615" xlink:href="#linear-gradient-27"/>
    <linearGradient id="linear-gradient-31" x1="0.649" y1="0.588" x2="0.615" y2="0.712" gradientUnits="objectBoundingBox">
      <stop offset="0" stop-color="#ffb300"/>
      <stop offset="1" stop-color="#fbb000" stop-opacity="0"/>
    </linearGradient>
    <linearGradient id="linear-gradient-32" x1="0.5" y1="0.049" x2="0.5" y2="0.972" gradientUnits="objectBoundingBox">
      <stop offset="0.032" stop-color="#ef6d01"/>
      <stop offset="0.261" stop-color="#e15e01"/>
      <stop offset="0.81" stop-color="#c33f01"/>
    </linearGradient>
    <linearGradient id="linear-gradient-33" x1="0.308" y1="0.187" x2="0.539" y2="0.535" xlink:href="#linear-gradient-32"/>
    <clipPath id="clip-path-8">
      <path id="Path_12855" data-name="Path 12855" d="M636.594,1064.98c1.281,32.889,29.9,34.171,46.985,29.685,17.688-4.644,43.946-19.732,47.839-17.3,4.557,2.848,32.463,27.551,40.721,34.313,1.834,1.5,13.526-9.752,12.387-11.533-13.17-15.947-24.8-30.158-37.516-43.5-13.029-13.668-27.124-14.166-40.152-12.885-13.708,1.348-19.862,2.776-19.862,2.776Z" transform="translate(-636.594 -1043.298)" fill="none"/>
    </clipPath>
    <linearGradient id="linear-gradient-34" x1="0.5" y1="0.019" x2="0.5" y2="0.786" gradientUnits="objectBoundingBox">
      <stop offset="0.105" stop-color="#2b3c78"/>
      <stop offset="1" stop-color="#2a2e66"/>
    </linearGradient>
    <linearGradient id="linear-gradient-35" x1="0.517" y1="0.336" x2="0.724" y2="0.325" gradientUnits="objectBoundingBox">
      <stop offset="0" stop-color="#12142c" stop-opacity="0.651"/>
      <stop offset="1" stop-color="#1b1e4c" stop-opacity="0"/>
    </linearGradient>
    <linearGradient id="linear-gradient-36" x1="0.5" y1="0.295" x2="0.896" y2="0.284" gradientUnits="objectBoundingBox">
      <stop offset="0" stop-color="#12142c" stop-opacity="0.329"/>
      <stop offset="1" stop-color="#1b1e4c" stop-opacity="0"/>
    </linearGradient>
    <linearGradient id="linear-gradient-37" x1="0.581" y1="0.092" x2="0.577" y2="0.53" gradientUnits="objectBoundingBox">
      <stop offset="0" stop-color="#ff997e"/>
      <stop offset="1" stop-color="#982424" stop-opacity="0"/>
    </linearGradient>
    <linearGradient id="linear-gradient-38" x1="0.54" y1="0.51" x2="0.435" y2="0.585" xlink:href="#linear-gradient-37"/>
    <linearGradient id="linear-gradient-39" x1="0.368" y1="0.866" x2="0.415" y2="0.528" gradientUnits="objectBoundingBox">
      <stop offset="0" stop-color="#181b48"/>
      <stop offset="1" stop-color="#1b1e4c" stop-opacity="0"/>
    </linearGradient>
    <linearGradient id="linear-gradient-40" x1="0.677" y1="0.5" x2="0.645" y2="0.293" xlink:href="#linear-gradient-39"/>
    <clipPath id="clip-path-9">
      <path id="Path_13160" data-name="Path 13160" d="M865.375,1176.6c22-10.039,32.132-27.659,43.71-29.829,9.112-1.709,16.73,2.419,21.642,16.516,2.481,7.118,10.252,30.539,13.063,43.709.24,1.124-14.461,4.016-15.306,2.849-7.724-10.679-13.134-22.924-22.959-37.731C905.525,1172.112,888.227,1174.247,865.375,1176.6Z" transform="translate(-865.375 -1146.406)" fill="none"/>
    </clipPath>
    <linearGradient id="linear-gradient-41" y1="0.5" x2="1" y2="0.5" gradientUnits="objectBoundingBox">
      <stop offset="0" stop-color="#121221"/>
      <stop offset="0.254" stop-color="#131736"/>
      <stop offset="0.636" stop-color="#161e52"/>
    </linearGradient>
    <radialGradient id="radial-gradient-2" cx="0.5" cy="0.5" r="0.237" gradientTransform="matrix(1.531, -0.389, 1.458, 2.077, -0.346, -0.17)" gradientUnits="objectBoundingBox">
      <stop offset="0" stop-color="#773c12" stop-opacity="0.78"/>
      <stop offset="1" stop-color="#713911" stop-opacity="0"/>
    </radialGradient>
    <linearGradient id="linear-gradient-42" x1="0.667" y1="0.557" x2="0.468" y2="0.584" xlink:href="#linear-gradient-37"/>
    <clipPath id="clip-path-10">
      <path id="Path_13769" data-name="Path 13769" d="M516.254,1047.315c-.555,11.39,1.543,20.055,4.374,23.487,5.633,6.826,25.128-1.315,51.448-16.727,0,0,4.414.565,7.259-2.145.694-.661,1.376-1.191,1.707-1,1.215.709,2.562,1.765,3.42,2.272,1.425.845,3.56.067,2.062-2.067,2.637,2.276,4.414-.077,2.489-2,2.209,1.849,4.627.137,2.7-1.854,2,1.706,3.844-.219,1.705-2.85-1.369-1.685-4.493-5.975-12.251-4.9-4.089.569-10.174,4.57-11.668,5.426s-29.251,6.232-29.251,6.232l.775-6.765Z" transform="translate(-516.165 -1039.369)" fill="none"/>
    </clipPath>
    <radialGradient id="radial-gradient-3" cx="0.439" cy="0.528" r="0.5" gradientTransform="matrix(0.708, 0.706, -0.706, 0.708, 0.493, -0.208)" gradientUnits="objectBoundingBox">
      <stop offset="0" stop-color="#d77769"/>
      <stop offset="1" stop-color="#da7a6d" stop-opacity="0"/>
    </radialGradient>
    <linearGradient id="linear-gradient-43" x1="-0.141" y1="0.654" x2="0.737" y2="0.683" gradientUnits="objectBoundingBox">
      <stop offset="0" stop-color="#fffefe" stop-opacity="0"/>
      <stop offset="0.496" stop-color="#bd4646" stop-opacity="0.8"/>
      <stop offset="1" stop-color="#900909"/>
    </linearGradient>
    <linearGradient id="linear-gradient-44" x1="0.406" y1="0.66" x2="0.393" y2="0.428" gradientUnits="objectBoundingBox">
      <stop offset="0" stop-color="#920f0f" stop-opacity="0"/>
      <stop offset="0.334" stop-color="#a63939" stop-opacity="0.851"/>
      <stop offset="1" stop-color="#900909"/>
    </linearGradient>
    <clipPath id="clip-path-11">
      <path id="Path_14382" data-name="Path 14382" d="M913.359,660.947c9.966,3.417,13.383,4.841,13.383,4.841s11.425-17.442,16.551-25.949c.792-1.313-1.058-5.661-.641-9.717.392-3.809,1.059-6.9,2.457-7.047,2.989-.321,2.028,3.63,1.565,6.549,0,0,4.271-9.682,5.7-12.529s4.68-1.672,3.7,1.424c-1.282,4.058-1.78,6.051-1.78,6.051s3.845-1.424,3.061,3.417c0,0,3.062-.356,2.42,3.774,0,0,2.554.807.57,5.908-1,2.563-4.272,5.34-4.272,5.34s-8.372,22.9-15.448,37.837c-2.883,6.087-9.824,8.115-18.581,6.514-4.835-.885-14.38-2.776-14.38-2.776Z" transform="translate(-907.664 -615.473)" fill="none" stroke="#707070" stroke-width="1"/>
    </clipPath>
    <radialGradient id="radial-gradient-5" cx="0.5" cy="0.5" r="0.5" gradientTransform="matrix(0.154, 0.988, -0.988, 0.154, 0.917, -0.071)" gradientUnits="objectBoundingBox">
      <stop offset="0" stop-color="#e38a7a"/>
      <stop offset="1" stop-color="#e18777" stop-opacity="0"/>
    </radialGradient>
    <linearGradient id="linear-gradient-45" x1="0.758" y1="0.107" x2="0.5" y2="1" gradientUnits="objectBoundingBox">
      <stop offset="0" stop-color="#e68a70"/>
      <stop offset="1" stop-color="#faaf99" stop-opacity="0"/>
    </linearGradient>
    <linearGradient id="linear-gradient-46" x1="0.024" y1="0.653" x2="0.96" y2="0.304" xlink:href="#linear-gradient-43"/>
    <linearGradient id="linear-gradient-47" y1="0.5" x2="1" y2="0.5" gradientUnits="objectBoundingBox">
      <stop offset="0" stop-color="#ffa616"/>
      <stop offset="0.32" stop-color="#fdaf2c"/>
      <stop offset="0.988" stop-color="#fbc666"/>
      <stop offset="1" stop-color="#fbc768"/>
    </linearGradient>
    <linearGradient id="linear-gradient-48" x1="0.177" y1="0.852" x2="0.831" y2="0.14" gradientUnits="objectBoundingBox">
      <stop offset="0" stop-color="#fbc768"/>
      <stop offset="0.065" stop-color="#fbc563"/>
      <stop offset="0.674" stop-color="#fdb640"/>
      <stop offset="1" stop-color="#ffb133"/>
    </linearGradient>
    <linearGradient id="linear-gradient-49" x1="-3.355" y1="-14.783" x2="-4.017" y2="-14.674" gradientUnits="objectBoundingBox">
      <stop offset="0" stop-color="#ffb133"/>
      <stop offset="0.326" stop-color="#fdb640"/>
      <stop offset="0.935" stop-color="#fbc563"/>
      <stop offset="1" stop-color="#fbc768"/>
    </linearGradient>
    <linearGradient id="linear-gradient-50" x1="-1.186" y1="-2.555" x2="-0.211" y2="-2.555" xlink:href="#linear-gradient-47"/>
    <linearGradient id="linear-gradient-51" x1="-5.44" y1="18.935" x2="-4.383" y2="18.935" gradientUnits="objectBoundingBox">
      <stop offset="0" stop-color="#ffa616"/>
      <stop offset="0.208" stop-color="#fea71a"/>
      <stop offset="0.437" stop-color="#fead27"/>
      <stop offset="0.676" stop-color="#fdb63d"/>
      <stop offset="0.922" stop-color="#fbc25c"/>
      <stop offset="1" stop-color="#fbc768"/>
    </linearGradient>
    <linearGradient id="linear-gradient-52" x1="-21.968" y1="52.463" x2="-21.208" y2="52.463" gradientUnits="objectBoundingBox">
      <stop offset="0" stop-color="#fbc768"/>
      <stop offset="0.012" stop-color="#fbc666"/>
      <stop offset="0.68" stop-color="#fdaf2c"/>
      <stop offset="1" stop-color="#ffa616"/>
    </linearGradient>
    <linearGradient id="linear-gradient-53" x1="-48.498" y1="33.275" x2="-49.141" y2="33.403" xlink:href="#linear-gradient-49"/>
    <linearGradient id="linear-gradient-54" x1="-41.02" y1="13.881" x2="-40.073" y2="13.881" xlink:href="#linear-gradient-47"/>
    <linearGradient id="linear-gradient-55" x1="-52.139" y1="2.043" x2="-51.124" y2="2.043" xlink:href="#linear-gradient-51"/>
    <linearGradient id="linear-gradient-56" x1="-258.776" y1="2.956" x2="-257.903" y2="2.956" xlink:href="#linear-gradient-52"/>
    <linearGradient id="linear-gradient-57" x1="-9.029" y1="-35.882" x2="-9.667" y2="-35.745" xlink:href="#linear-gradient-49"/>
    <linearGradient id="linear-gradient-58" x1="-4.543" y1="-17.69" x2="-3.603" y2="-17.69" xlink:href="#linear-gradient-47"/>
    <linearGradient id="linear-gradient-59" x1="-7.577" y1="14.698" x2="-6.576" y2="14.698" xlink:href="#linear-gradient-51"/>
    <linearGradient id="linear-gradient-60" x1="-42.084" y1="20.034" x2="-41.099" y2="20.034" xlink:href="#linear-gradient-52"/>
    <linearGradient id="linear-gradient-61" x1="3.591" y1="10.33" x2="2.61" y2="10.387" xlink:href="#linear-gradient-49"/>
    <linearGradient id="linear-gradient-62" x1="0.565" y1="14.38" x2="2.01" y2="14.38" xlink:href="#linear-gradient-47"/>
    <linearGradient id="linear-gradient-63" x1="-15.059" y1="26.061" x2="-13.334" y2="26.061" xlink:href="#linear-gradient-51"/>
    <linearGradient id="linear-gradient-64" x1="-29.461" y1="190.984" x2="-28.861" y2="190.984" xlink:href="#linear-gradient-52"/>
  </defs>
  <g id="Group_4873" data-name="Group 4873" transform="translate(-33 -145)">
    <g id="Illustration" transform="translate(-17 -22.151)">
      <path id="Path_7314" data-name="Path 7314" d="M693.056,821.158l-335.732-.841s-16.432-135.759,28.57-191.829,155.068-49.343,170.091,23.938C598.028,741.937,701.547,681.689,693.056,821.158Z" transform="translate(-295.549 -423.88)" opacity="0.25" fill="url(#linear-gradient)"/>
      <g id="Group_4864" data-name="Group 4864" transform="translate(50 167.151)">
        <g id="Group_4848" data-name="Group 4848" transform="translate(0 0)">
          <g id="Group_4853" data-name="Group 4853" transform="translate(134.7)">
            <g id="Rectangle_2752" data-name="Rectangle 2752" transform="translate(0)" fill="#fff7e9" stroke="#b69b6b" stroke-width="0.5">
              <rect width="179.936" height="68.184" rx="5" stroke="none"/>
              <rect x="0.25" y="0.25" width="179.436" height="67.684" rx="4.75" fill="none"/>
            </g>
            <g id="Group_4850" data-name="Group 4850" transform="translate(154.631 6.62)">
              <path id="Path_7562" data-name="Path 7562" d="M2043.244,757.263a1.814,1.814,0,1,1,1.663-1.808A1.742,1.742,0,0,1,2043.244,757.263Zm0-3a1.192,1.192,0,1,0,1.093,1.188A1.145,1.145,0,0,0,2043.244,754.267Z" transform="translate(-2029.185 -753.647)"/>
              <path id="Path_7563" data-name="Path 7563" d="M1975.058,757.263a1.814,1.814,0,1,1,1.664-1.808A1.743,1.743,0,0,1,1975.058,757.263Zm0-3a1.192,1.192,0,1,0,1.093,1.188A1.145,1.145,0,0,0,1975.058,754.267Z" transform="translate(-1973.395 -753.647)"/>
              <path id="Path_7564" data-name="Path 7564" d="M2008.927,757.263a1.814,1.814,0,1,1,1.663-1.808A1.742,1.742,0,0,1,2008.927,757.263Zm0-3a1.192,1.192,0,1,0,1.093,1.188A1.145,1.145,0,0,0,2008.927,754.267Z" transform="translate(-2001.411 -753.647)"/>
            </g>
            <g id="Group_4868" data-name="Group 4868" transform="translate(10.373 14.994)">
              <path id="Exclusion_4" data-name="Exclusion 4" d="M8.314,34.926h0L0,34.924A34.923,34.923,0,0,1,59.618,10.229,34.693,34.693,0,0,1,69.848,34.923H61.531a26.608,26.608,0,0,0-53.217,0Z" transform="translate(0 0)" fill="#3788ce" stroke="#000" stroke-width="0.5"/>
              <g id="Path_7601" data-name="Path 7601" transform="matrix(0.391, 0.921, -0.921, 0.391, 60.871, 15.205)" fill="#3788ce">
                <path d="M 4.828452587127686 35.17510604858398 C 3.612082719802856 35.17510604858398 2.466502666473389 34.62912750244141 1.602712631225586 33.63771820068359 C 0.7304025888442993 32.63652801513672 0.2500025928020477 31.30317687988281 0.2500025928020477 29.88327598571777 C 0.2500025928020477 27.27768516540527 3.844432592391968 6.938948631286621 4.8284912109375 1.419766187667847 C 5.812537670135498 6.938946723937988 9.406922340393066 27.27767372131348 9.406922340393066 29.88325691223145 C 9.406922340393066 32.80119705200195 7.35303258895874 35.17510604858398 4.828452587127686 35.17510604858398 Z" stroke="none"/>
                <path d="M 4.828487873077393 2.847354888916016 C 3.60042142868042 9.768465042114258 0.5000028610229492 27.48009490966797 0.5000028610229492 29.88326644897461 C 0.5000028610229492 31.2427864074707 0.9585628509521484 32.51782608032227 1.791202545166016 33.47348785400391 C 2.606802463531494 34.40958786010742 3.685442447662354 34.92510604858398 4.828452587127686 34.92510604858398 C 7.215182304382324 34.92510604858398 9.156922340393066 32.66334533691406 9.156922340393066 29.88325691223145 C 9.156922340393066 27.4800853729248 6.056536197662354 9.768463134765625 4.828487873077393 2.847354888916016 M 4.828492641448975 -3.814697265625e-06 C 4.828492641448975 -3.814697265625e-06 9.656922340393066 26.82258605957031 9.656922340393066 29.88325691223145 C 9.656922340393066 32.94393539428711 7.495142936706543 35.42510604858398 4.828452587127686 35.42510604858398 C 2.161772727966309 35.42511749267578 2.86102294921875e-06 32.94394683837891 2.86102294921875e-06 29.88326644897461 C 2.86102294921875e-06 26.82259750366211 4.828492641448975 -3.814697265625e-06 4.828492641448975 -3.814697265625e-06 Z" stroke="none" fill="#000"/>
              </g>
            </g>
            <g id="Group_4867" data-name="Group 4867" transform="translate(92.893 18.993)">
              <text id="Credit_Score" data-name="Credit Score" transform="translate(28 10)" font-size="10" font-family="Roboto-Bold, Roboto" font-weight="700"><tspan x="-27.91" y="0">Credit Score</tspan></text>
              <g id="Group_4862" data-name="Group 4862" transform="translate(0 18.899)">
                <path id="Path_7670" data-name="Path 7670" d="M1741.207,1249.944h-68.283a.266.266,0,0,1,0-.533h68.283a.266.266,0,0,1,0,.533Z" transform="translate(-1672.658 -1239.433)"/>
                <path id="Path_7497" data-name="Path 7497" d="M1749.819,1249.944h-76.861a.268.268,0,1,1,0-.533h76.861a.268.268,0,1,1,0,.533Z" transform="translate(-1672.658 -1249.411)"/>
                <path id="Path_7498" data-name="Path 7498" d="M1877.733,1278.788h-19.405a.268.268,0,1,1,0-.532h19.405a.268.268,0,1,1,0,.532Z" transform="translate(-1800.573 -1273.605)"/>
                <path id="Path_7499" data-name="Path 7499" d="M1725.811,1278.856H1673a.3.3,0,1,1,0-.6h52.815a.3.3,0,1,1,0,.6Z" transform="translate(-1672.658 -1273.639)"/>
              </g>
            </g>
          </g>
          <g id="Group_4861" data-name="Group 4861" transform="translate(133.964 78.972)">
            <g id="Group_4865" data-name="Group 4865" transform="translate(0 0)">
              <g id="Rectangle_2754" data-name="Rectangle 2754" fill="#e9f2ff" stroke="#8eabd4" stroke-width="0.5">
                <rect width="180.671" height="66.185" rx="5" stroke="none"/>
                <rect x="0.25" y="0.25" width="180.171" height="65.685" rx="4.75" fill="none"/>
              </g>
              <g id="Group_4860" data-name="Group 4860" transform="translate(16.106 10.996)">
                <g id="Ellipse_1379" data-name="Ellipse 1379" fill="#ddefff" stroke="#000" stroke-width="0.5">
                  <circle cx="22.492" cy="22.492" r="22.492" stroke="none"/>
                  <circle cx="22.492" cy="22.492" r="22.242" fill="none"/>
                </g>
                <g id="Ellipse_1380" data-name="Ellipse 1380" transform="translate(2.999 2.999)" fill="none" stroke="#000" stroke-width="0.5">
                  <circle cx="19.493" cy="19.493" r="19.493" stroke="none"/>
                  <circle cx="19.493" cy="19.493" r="19.243" fill="none"/>
                </g>
                <path id="Path_6932" data-name="Path 6932" d="M10.881,2.262h1.824L14.247,0H1.818L.276,2.262H6.3a3.524,3.524,0,0,1,3.178,2H1.542L0,6.527H9.748A3.529,3.529,0,0,1,6.3,9.319H.418l0,2.589,4.734,8.324H8.395L3.585,11.58H6.349a5.786,5.786,0,0,0,5.687-5.052h.669l1.542-2.261H11.878A5.761,5.761,0,0,0,10.881,2.262Z" transform="translate(15.495 12.62) rotate(-0.5)" fill="#3788ce" stroke="#000" stroke-width="0.5"/>
              </g>
            </g>
            <g id="Group_4867-2" data-name="Group 4867" transform="translate(70.637 15.994)">
              <text id="Pre-approved_offer" data-name="Pre-approved offer" transform="translate(0 10)" font-size="10" font-family="Roboto-Bold, Roboto" font-weight="700"><tspan x="0" y="0">Pre-approved offer</tspan></text>
              <g id="Group_4862-2" data-name="Group 4862" transform="translate(0 18.899)">
                <path id="Path_7670-2" data-name="Path 7670" d="M1760.987,1249.944H1673a.275.275,0,1,1,0-.533h87.986a.275.275,0,1,1,0,.533Z" transform="translate(-1672.658 -1239.433)"/>
                <path id="Path_7497-2" data-name="Path 7497" d="M1772.083,1249.944h-99.038c-.213,0-.386-.119-.386-.266s.173-.267.386-.267h99.038c.213,0,.385.12.385.267S1772.3,1249.944,1772.083,1249.944Z" transform="translate(-1672.658 -1249.411)"/>
                <path id="Path_7498-2" data-name="Path 7498" d="M1883.418,1278.788h-25c-.213,0-.386-.119-.386-.266s.173-.266.386-.266h25c.213,0,.385.119.385.266S1883.631,1278.788,1883.418,1278.788Z" transform="translate(-1783.994 -1273.605)"/>
                <path id="Path_7499-2" data-name="Path 7499" d="M1741.148,1278.856h-68.054c-.24,0-.436-.134-.436-.3s.2-.3.436-.3h68.054c.241,0,.435.135.435.3S1741.389,1278.856,1741.148,1278.856Z" transform="translate(-1672.658 -1273.639)"/>
              </g>
            </g>
          </g>
          <g id="Group_4850-2" data-name="Group 4850" transform="translate(289.33 84.998)">
            <path id="Path_7562-2" data-name="Path 7562" d="M2043.244,757.263a1.814,1.814,0,1,1,1.663-1.808A1.742,1.742,0,0,1,2043.244,757.263Zm0-3a1.192,1.192,0,1,0,1.093,1.188A1.145,1.145,0,0,0,2043.244,754.267Z" transform="translate(-2029.185 -753.647)"/>
            <path id="Path_7563-2" data-name="Path 7563" d="M1975.058,757.263a1.814,1.814,0,1,1,1.664-1.808A1.743,1.743,0,0,1,1975.058,757.263Zm0-3a1.192,1.192,0,1,0,1.093,1.188A1.145,1.145,0,0,0,1975.058,754.267Z" transform="translate(-1973.395 -753.647)"/>
            <path id="Path_7564-2" data-name="Path 7564" d="M2008.927,757.263a1.814,1.814,0,1,1,1.663-1.808A1.742,1.742,0,0,1,2008.927,757.263Zm0-3a1.192,1.192,0,1,0,1.093,1.188A1.145,1.145,0,0,0,2008.927,754.267Z" transform="translate(-2001.411 -753.647)"/>
          </g>
          <g id="Group_4790" data-name="Group 4790" transform="translate(0 76.752)">
            <g id="Group_4783" data-name="Group 4783" transform="translate(0 22.444)">
              <g id="Group_4782" data-name="Group 4782" transform="translate(0 0)" clip-path="url(#clip-path)">
                <path id="Path_7671" data-name="Path 7671" d="M308.062,874.751c-6.351,2.1-5.061,18.516-.979,32.858,3.823,13.432,11.161,25.768,19.763,22.858,7.305-2.471,5.593-15.944.733-28.989C322.154,886.913,314.414,872.647,308.062,874.751Z" transform="translate(-303.659 -874.543)" fill="url(#linear-gradient-2)"/>
                <path id="Path_14429" data-name="Path 14429" d="M319.923,898.716c-2.489.708-2.016,14.118.926,28.486,3.454,16.875,9.167,29.6,16.638,27.385,5.871-1.742,2.3-9.336-2.306-21.845C330.038,918.775,323.383,897.74,319.923,898.716Z" transform="translate(-315.305 -893.725)" fill="url(#linear-gradient-3)"/>
              </g>
            </g>
            <path id="Path_7975" data-name="Path 7975" d="M334.08,908.814q6.941,17.854,13.361,35.9c2.129,6.024,4.217,12.063,6.186,18.151s3.873,12.2,5.5,18.437l-3.411.821c-1.387-6.165-3.074-12.3-4.824-18.419s-3.629-12.208-5.548-18.286q-5.766-18.232-12.121-36.288Z" transform="translate(-327.152 -879.332)" fill="url(#linear-gradient-4)"/>
            <g id="Group_4786" data-name="Group 4786" transform="translate(30.688 14.513)">
              <g id="Group_4785" data-name="Group 4785" transform="translate(0 0)" clip-path="url(#clip-path-2)">
                <path id="Path_7976" data-name="Path 7976" d="M468.328,835.953c6.5.756,7.118,16.752,6.33,31.042-.789,14.334-5.09,28.08-14.2,26.9-7.759-1.008-8.573-15.435-6.189-29.57C456.744,849.649,461.826,835.2,468.328,835.953Z" transform="translate(-453.084 -835.924)" fill="url(#linear-gradient-5)"/>
                <path id="Path_14430" data-name="Path 14430" d="M458.744,864.376c-2.2-.445-7.441,11.224-11.178,24.769-4.391,15.917-5.328,29.3,1.331,30.524,5.235.964,5.649-6.966,7.339-19.623C458.122,885.914,461.806,865,458.744,864.376Z" transform="translate(-445.934 -858.523)" fill="url(#linear-gradient-6)"/>
              </g>
            </g>
            <path id="Path_8280" data-name="Path 8280" d="M473.226,869.208q-3.208,20.393-5.925,40.857c-.894,6.821-1.747,13.646-2.486,20.478s-1.415,13.669-1.815,20.5l-3.061-.215c.589-6.906,1.454-13.752,2.375-20.587s1.959-13.648,3.036-20.453q3.236-20.415,7.015-40.724Z" transform="translate(-427.843 -847.742)" fill="url(#linear-gradient-7)"/>
            <g id="Group_4789" data-name="Group 4789" transform="translate(18.158 0)">
              <g id="Group_4788" data-name="Group 4788" transform="translate(0 0)" clip-path="url(#clip-path-3)">
                <path id="Path_8281" data-name="Path 8281" d="M401.248,765.257c-6.941,0-9.508,16.079-9.142,34.118.329,16.286,3.233,32.168,11.429,31.594,9.55-.667,11.733-16.665,10.215-32.706C412.205,781.94,408.19,765.257,401.248,765.257Z" transform="translate(-392.072 -765.257)" fill="url(#linear-gradient-8)"/>
                <path id="Path_14428" data-name="Path 14428" d="M404.766,812.965c-2.246,0-5.1,13.042-6.11,27.695-1.189,17.217.514,31.12,7.284,30.993,5.323-.1,4.175-8.309,3.353-21.625C408.375,835.159,407.89,812.966,404.766,812.965Z" transform="translate(-397.026 -803.167)" fill="url(#linear-gradient-9)"/>
              </g>
            </g>
            <path id="Path_8585" data-name="Path 8585" d="M434.94,795.576l5.6,95.588-2.788.093-3.795-95.627Z" transform="translate(-407.195 -789.35)" fill="url(#linear-gradient-10)"/>
            <path id="Path_8586" data-name="Path 8586" d="M408.823,1298.955H388.258l-4.609-54.391h29.782Z" transform="translate(-367.222 -1146.128)" fill="url(#linear-gradient-11)"/>
            <path id="Path_8587" data-name="Path 8587" d="M407.806,1250.494H375.854l-.649-6.662h33.251Z" transform="translate(-360.511 -1145.548)" fill="url(#linear-gradient-12)"/>
          </g>
          <g id="Group_4799" data-name="Group 4799" transform="translate(21.644 109.19)">
            <path id="Path_8604" data-name="Path 8604" d="M975.842,1389.151h-7.12l-9.681-31.607h7.118Z" transform="translate(-846.089 -1268.344)" fill="url(#linear-gradient-13)"/>
            <path id="Path_8605" data-name="Path 8605" d="M1104.022,1389.151H1096.9l-9.682-31.607h7.118Z" transform="translate(-947.945 -1268.344)" fill="url(#linear-gradient-14)"/>
            <path id="Path_8606" data-name="Path 8606" d="M781.958,1389.151h7.119l9.682-31.607H791.64Z" transform="translate(-705.373 -1268.344)" fill="url(#linear-gradient-15)"/>
            <path id="Path_8607" data-name="Path 8607" d="M648.155,1389.151h7.119l9.682-31.607h-7.119Z" transform="translate(-599.049 -1268.344)" fill="url(#linear-gradient-16)"/>
            <path id="Path_8608" data-name="Path 8608" d="M678.082,1304.211a15.252,15.252,0,0,0,15.879,9.183l57.4-7.176,1.41,11.284-57.4,7.175a26.636,26.636,0,0,1-27.784-16.082Z" transform="translate(-614.492 -1225.965)" fill="url(#linear-gradient-17)"/>
            <g id="Group_4798" data-name="Group 4798" transform="translate(4.445 0)">
              <g id="Group_4797" data-name="Group 4797" clip-path="url(#clip-path-4)">
                <path id="Path_8609" data-name="Path 8609" d="M550.5,1024.224l-3.2-6.406c-5.126-5.126-6.472-8.215-10.678-7.689l-45.7,6.193c-9,1.133-18.7-3.807-22.211-12.173L440.088,935.38c-1.478-3.526-5.115-7.583-9.4-12.173H487.36c4.679,1.755,8.033,3.59,9.964,8.2L522.1,989.625c2.769,6.606,33.892-6.384,41.006-7.261l11.959,8.543c5.6-.7,12.1,28.618,12.1,28.618Z" transform="translate(-430.691 -923.207)" fill="url(#linear-gradient-18)"/>
                <path id="Path_14443" data-name="Path 14443" d="M447.326,896.41c7.959,5.966,11.946,14.082,12.2,26.682.287,13.953,10.053,30.754,12.33,37.3s8.586,2.918,10.294,4.343,2.755,8.179,16.473,11.66c22.127,5.61,63.706-4.942,70.079-4.043,4.519.638,8.257,28.818,8.257,28.818l26.7-5.325-21.072-34.741-70.9,4.271-34.74-72.328Z" transform="translate(-443.909 -899.243)" opacity="0.87" fill="url(#linear-gradient-19)"/>
                <path id="Path_14444" data-name="Path 14444" d="M496.473,997.9c2.279,6.549,9.008,18.4,10.717,19.825s2.755,8.179,16.473,11.659c22.127,5.611,41.62-5.882,47.992-4.983,4.519.638,4.382-10.3-34.936-6.038C536.72,1018.369,494.2,991.355,496.473,997.9Z" transform="translate(-468.947 -952.235)" opacity="0.87" fill="url(#linear-gradient-20)"/>
                <path id="Path_14445" data-name="Path 14445" d="M447.326,899.912c7.959,5.966,11.946,14.082,12.2,26.682.287,13.953,10.053,30.754,12.33,37.3s3.375-41.6,5.084-40.177-2.388.677-5.084-21.606Z" transform="translate(-443.909 -902.746)" opacity="0.87" fill="url(#linear-gradient-21)"/>
              </g>
            </g>
            <path id="Path_8913" data-name="Path 8913" d="M533.127,1024.768a4.689,4.689,0,0,1-3.52-1.584l-3.9-4.412a9.516,9.516,0,0,0-8.294-3.134l-47.432,5.931a22.012,22.012,0,0,1-22.959-13.29l-28.9-69.426a10.6,10.6,0,0,0-6.028-5.793,4.7,4.7,0,0,1,3.3-8.8,20.04,20.04,0,0,1,11.4,10.97l28.9,69.427a12.6,12.6,0,0,0,13.122,7.588l47.433-5.93a18.871,18.871,0,0,1,16.5,6.231l3.9,4.411a4.7,4.7,0,0,1-3.518,7.811Z" transform="translate(-409.046 -923.806)" fill="url(#linear-gradient-22)"/>
          </g>
          <g id="Group_4846" data-name="Group 4846" transform="translate(43.643 45.99)">
            <g id="Group_4807" data-name="Group 4807" transform="translate(23.071 10.307)">
              <g id="Group_4806" data-name="Group 4806" transform="translate(0 0)" clip-path="url(#clip-path-5)">
                <path id="Path_8915" data-name="Path 8915" d="M641.416,665.656c8.115,6.692,10.213,13.589,9.536,16.487a4.4,4.4,0,0,1-3.769,3.287L649.674,691l4.253,11.159-17.495-8.6-.559-6.2-7.367-12.743Z" transform="translate(-628.506 -665.656)" fill="#faaf99"/>
                <path id="Path_8916" data-name="Path 8916" d="M683.631,705.639A4.627,4.627,0,1,1,679,701.013,4.627,4.627,0,0,1,683.631,705.639Z" transform="translate(-664.955 -693.752)" fill="url(#radial-gradient)"/>
                <path id="Path_14446" data-name="Path 14446" d="M692.656,751.595c-2.029,1.6-6.514,2.457-12.387-.32,0,0,4.7,10.714,14.095,8.472Z" transform="translate(-669.639 -733.692)" opacity="0.31" fill="url(#linear-gradient-23)"/>
                <path id="Path_14447" data-name="Path 14447" d="M651.888,728.839a3.672,3.672,0,0,0-1.867-3.488,3.55,3.55,0,0,0-.314,3.775A1.561,1.561,0,0,0,651.888,728.839Z" transform="translate(-645.036 -713.091)" opacity="0.31" fill="url(#linear-gradient-24)"/>
                <path id="Path_14450" data-name="Path 14450" d="M731.349,793.84l-1.645-14.8,2.448,1.56,4.271,12.494Z" transform="translate(-708.921 -755.752)" opacity="0.31" fill="url(#linear-gradient-25)"/>
              </g>
            </g>
            <g id="Group_4810" data-name="Group 4810" transform="translate(17.858 4.311)">
              <g id="Group_4809" data-name="Group 4809" transform="translate(0 0)" clip-path="url(#clip-path-6)">
                <path id="Path_9824" data-name="Path 9824" d="M622.524,642.741a18.066,18.066,0,0,1-6.63,11.307c-4.671-4.059-7.281,5.412-.708,4.156l.515,5.96a20.477,20.477,0,0,0-4.567-5.049c-2.087-1.766-4.734-3.441-6.549-6.265-3.844-5.98.363-12.826,7.015-13.526a26.929,26.929,0,0,1,6.387.1c1.974.188,2.543-.841,1.547-2.232C618.186,635.306,623.236,637.045,622.524,642.741Z" transform="translate(-603.12 -636.46)" fill="#011835"/>
                <path id="Path_14451" data-name="Path 14451" d="M569.956,619.769c7.688-7.475,27.078,2.551,28.945-8.558l-4.909-13.759-28.918,9.594Z" transform="translate(-572.888 -605.463)" fill="url(#linear-gradient-26)"/>
              </g>
            </g>
            <g id="Group_4817" data-name="Group 4817" transform="translate(0.1 36.938)">
              <g id="Group_4816" data-name="Group 4816" transform="translate(0 0)" clip-path="url(#clip-path-7)">
                <path id="Path_10128" data-name="Path 10128" d="M541.005,801.3a31.32,31.32,0,0,0-11.96,7.83c-6.544,6.7-12.1,16.445-12.387,44.21l24.773-2.848-8.044,18.223,58.3-19.221-4.983-23.991,10.25,1.994,5.7-23.635s-3.916-1.495-15.021-5.2c-8.46-2.821-14.024-4.058-21.428-2.919l-1.157,9.45Z" transform="translate(-516.658 -795.328)" fill="#c33f01"/>
                <path id="Path_14425" data-name="Path 14425" d="M506.163,895.923s-1.087-10.764-1.952-22.98c-.649-9.159.27-18.256,1.633-21.375,2.608-5.966-3.786-2.345-6.61,1.874a49.959,49.959,0,0,0-7.921,24.285c-.544,9.314-.981,21.1-.981,21.1Z" transform="translate(-490.731 -837.521)" fill="url(#linear-gradient-27)"/>
                <path id="Path_10129" data-name="Path 10129" d="M906.051,831.348l-6.3,26-1.647-.454Z" transform="translate(-819.77 -823.951)" fill="#ad2701"/>
                <path id="Path_10130" data-name="Path 10130" d="M533.255,1062.9l-25.16,3.414-.155-1.7Z" transform="translate(-508.338 -1007.95)" fill="#ad2701"/>
                <path id="Path_14423" data-name="Path 14423" d="M843.207,876.668l-3.758-16.955c7.166,1.64,14.481,11.465,22.38,17.121l-14.917,8.645Z" transform="translate(-773.157 -846.491)" opacity="0.205" fill="url(#linear-gradient-28)"/>
                <path id="Path_14424" data-name="Path 14424" d="M801.736,859.855a238.377,238.377,0,0,0-.518,31.983c.763,14.211,8.921,25.706,8.921,25.706l13.839-4.871S817.989,890.22,813.2,868.75C807.519,843.322,802.8,845.913,801.736,859.855Z" transform="translate(-742.526 -838.33)" opacity="0.2" fill="url(#linear-gradient-29)"/>
                <path id="Path_14426" data-name="Path 14426" d="M625.167,992.051l2.42-18.582c5.126.713,11.815,12,12.245,24.917l-17.8,4.129Z" transform="translate(-600.393 -936.884)" fill="url(#linear-gradient-30)"/>
                <path id="Path_14427" data-name="Path 14427" d="M684.149,766.127c13.1,5.126,20.1,11.838,29.259,16.018,13.1,5.979,22.638,7.474,22.638,7.474l2.776-18.366s-19.8-8.609-41.858-9.825S670.872,760.931,684.149,766.127Z" transform="translate(-643.713 -767.984)" opacity="0.2" fill="url(#linear-gradient-31)"/>
              </g>
            </g>
            <g id="Group_4818" data-name="Group 4818" transform="translate(137.71 170.198)">
              <path id="Path_11642" data-name="Path 11642" d="M1198.755,1444.2l2.634,6.121c3.523,1.922,6.182,3.322,8.9,5.98h-15.52c-4.343,0-1-4.165-1-5.98l-2.384-5.125Z" transform="translate(-1190.425 -1444.203)" fill="#faaf99"/>
              <path id="Path_11643" data-name="Path 11643" d="M1199.592,1480.677v-5.623s6.67,2.05,10.252,4.484c2.669,1.815,2.777,2.849-1.069,2.849h-22.068v-1.71Z" transform="translate(-1186.707 -1468.719)" fill="url(#linear-gradient-32)"/>
            </g>
            <g id="Group_4819" data-name="Group 4819" transform="translate(164.067 147.843)">
              <path id="Path_11644" data-name="Path 11644" d="M1320.025,1335.359l3.959,4.67c3.931-.813,6.863-1.464,10.655-1.194l-11.838,10.037c-3.312,2.808-3.885-3.427-5.059-4.811l-2.693-3.176Z" transform="translate(-1315.048 -1335.359)" fill="#faaf99"/>
              <path id="Path_11645" data-name="Path 11645" d="M1346.044,1344.406l-3.636-4.29s6.413-2.75,10.719-3.209c3.211-.341,3.959.377,1.027,2.862l-16.833,14.272-1.1-1.3Z" transform="translate(-1331.868 -1336.524)" fill="url(#linear-gradient-33)"/>
            </g>
            <g id="Group_4825" data-name="Group 4825" transform="translate(24.733 87.864)">
              <g id="Group_4824" data-name="Group 4824" transform="translate(0 0)" clip-path="url(#clip-path-8)">
                <path id="Path_11646" data-name="Path 11646" d="M636.594,1064.98c1.281,32.889,29.9,34.171,46.985,29.685,17.688-4.644,43.946-19.732,47.839-17.3,4.557,2.848,32.463,27.551,40.721,34.313,1.834,1.5,13.526-9.752,12.387-11.533-13.17-15.947-24.8-30.158-37.516-43.5-13.029-13.668-27.124-14.166-40.152-12.885-13.708,1.348-19.862,2.776-19.862,2.776Z" transform="translate(-636.594 -1043.298)" fill="url(#linear-gradient-34)"/>
                <path id="Path_14431" data-name="Path 14431" d="M617.838,1092.638c9.093-16.208,25.624-27.89,43.277-25.331l7.12-11.951L654.87,1052.5l-46.7,26.766Z" transform="translate(-614.008 -1050.613)" opacity="0.61" fill="url(#linear-gradient-35)"/>
                <path id="Path_14432" data-name="Path 14432" d="M617.838,1092.638c9.093-16.208,25.624-27.89,43.277-25.331l7.12-11.951L654.87,1052.5l-46.7,26.766Z" transform="translate(-614.008 -1050.613)" opacity="0.61" fill="url(#linear-gradient-36)"/>
                <path id="Path_14433" data-name="Path 14433" d="M722.026,1048.4s32.846-7.05,48.223-10.467,36.045-1.08,50.564,8.088l-2.1-15.519s-23.249-11.953-50.373-5.975c-35.145,7.75-44.422,10.038-44.422,10.038Z" transform="translate(-704.481 -1027.054)" opacity="0.72" fill="url(#linear-gradient-37)"/>
                <path id="Path_14434" data-name="Path 14434" d="M1123.109,1044.713s7.745,22.218,48.131,61.858l5.721-4.018Z" transform="translate(-1023.193 -1044.422)" opacity="0.72" fill="url(#linear-gradient-38)"/>
                <path id="Path_14440" data-name="Path 14440" d="M626.4,1128.846c2.848,8.543,6.69,18.312,21.963,20.236,20.261,2.553,31.929-23.359,62.064-16.256l-1.7,8.817-48.979,27.622-43-3.417-9.967-28.192Z" transform="translate(-612.906 -1111.278)" opacity="0.61" fill="url(#linear-gradient-39)"/>
                <path id="Path_14441" data-name="Path 14441" d="M626.4,1128.846c2.848,8.543,6.69,18.312,21.963,20.236,20.261,2.553,31.929-23.359,62.064-16.256l-1.7,8.817-48.979,27.622-43-3.417-9.967-28.192Z" transform="translate(-612.906 -1111.278)" opacity="0.61" fill="url(#linear-gradient-40)"/>
              </g>
            </g>
            <g id="Group_4828" data-name="Group 4828" transform="translate(71.718 109.039)">
              <g id="Group_4827" data-name="Group 4827" clip-path="url(#clip-path-9)">
                <path id="Path_12856" data-name="Path 12856" d="M865.375,1176.6c22-10.039,32.132-27.659,43.71-29.829,9.112-1.709,16.73,2.419,21.642,16.516,2.481,7.118,10.252,30.539,13.063,43.709.24,1.124-14.461,4.016-15.306,2.849-7.724-10.679-13.134-22.924-22.959-37.731C905.525,1172.112,888.227,1174.247,865.375,1176.6Z" transform="translate(-865.375 -1146.406)" fill="url(#linear-gradient-41)"/>
                <path id="Path_13159" data-name="Path 13159" d="M1065.8,908.849c12.844,30.42,12.32,59.7-1.17,65.393s-34.837-14.348-47.68-44.768-12.32-59.7,1.17-65.394S1052.954,878.429,1065.8,908.849Z" transform="translate(-978.428 -921.293)" fill="url(#radial-gradient-2)"/>
                <path id="Path_14442" data-name="Path 14442" d="M1127.363,1141.7c7,11.007,15.915,41.624,21.639,65.839l7.706-1.712C1151.932,1177.744,1141.79,1146.431,1127.363,1141.7Z" transform="translate(-1073.559 -1142.664)" opacity="0.72" fill="url(#linear-gradient-42)"/>
              </g>
            </g>
            <g id="Group_4835" data-name="Group 4835" transform="translate(0 87.057)">
              <g id="Group_4834" data-name="Group 4834" transform="translate(0 0)" clip-path="url(#clip-path-10)">
                <path id="Path_13161" data-name="Path 13161" d="M516.254,1047.315c-.555,11.39,1.543,20.055,4.374,23.487,5.633,6.826,25.128-1.315,51.448-16.727,0,0,4.414.565,7.259-2.145.694-.661,1.376-1.191,1.707-1,1.215.709,2.562,1.765,3.42,2.272,1.425.845,3.56.067,2.062-2.067,2.637,2.276,4.414-.077,2.489-2,2.209,1.849,4.627.137,2.7-1.854,2,1.706,3.844-.219,1.705-2.85-1.369-1.685-4.493-5.975-12.251-4.9-4.089.569-10.174,4.57-11.668,5.426s-29.251,6.232-29.251,6.232l.775-6.765Z" transform="translate(-516.165 -1039.369)" fill="#faaf99"/>
                <circle id="Ellipse_1374" data-name="Ellipse 1374" cx="13.241" cy="13.241" r="13.241" transform="translate(-15.398 36.06) rotate(-45)" fill="url(#radial-gradient-3)"/>
                <circle id="Ellipse_1375" data-name="Ellipse 1375" cx="13.241" cy="13.241" r="13.241" transform="translate(56.972 13.709) rotate(-45)" fill="url(#radial-gradient-3)"/>
                <g id="Group_4831" data-name="Group 4831" transform="translate(65.192 8.171)" style="mix-blend-mode: multiply;isolation: isolate">
                  <path id="Path_13766" data-name="Path 13766" d="M833.6,1079.17a7.324,7.324,0,0,1,4.283,1.486,21.025,21.025,0,0,1,3.556,3l-1.355,1.041a19.854,19.854,0,0,0-2.734-3.377A6.92,6.92,0,0,0,833.6,1079.17Z" transform="translate(-833.601 -1079.163)" fill="#ebc1b5"/>
                </g>
                <g id="Group_4832" data-name="Group 4832" transform="translate(67.859 6.032)" style="mix-blend-mode: multiply;isolation: isolate">
                  <path id="Path_13767" data-name="Path 13767" d="M846.586,1068.753a7.333,7.333,0,0,1,4.283,1.487,21.13,21.13,0,0,1,3.556,3l-1.356,1.042a19.781,19.781,0,0,0-2.733-3.377A6.93,6.93,0,0,0,846.586,1068.753Z" transform="translate(-846.586 -1068.745)" fill="#ebc1b5"/>
                </g>
                <g id="Group_4833" data-name="Group 4833" transform="translate(70.099 4.002)" style="mix-blend-mode: multiply;isolation: isolate">
                  <path id="Path_13768" data-name="Path 13768" d="M857.492,1058.861a7.311,7.311,0,0,1,4.284,1.485,21.043,21.043,0,0,1,3.555,3l-1.355,1.039a19.839,19.839,0,0,0-2.734-3.375A6.907,6.907,0,0,0,857.492,1058.861Z" transform="translate(-857.492 -1058.853)" fill="#ebc1b5"/>
                </g>
                <path id="Path_14438" data-name="Path 14438" d="M585.9,1046.139l-10.524,2.334c-4.139-7.338-1-13.28,9.463-15.472l7.336,11.512Z" transform="translate(-561.812 -1034.309)" opacity="0.42" fill="url(#linear-gradient-43)"/>
                <path id="Path_14439" data-name="Path 14439" d="M536.154,1056.232l-29.946,6.358.707-6.1,29.256-2.6Z" transform="translate(-508.254 -1050.906)" opacity="0.42" fill="url(#linear-gradient-44)"/>
              </g>
            </g>
            <g id="Group_4844" data-name="Group 4844" transform="translate(80.403 0)">
              <g id="Group_4843" data-name="Group 4843" transform="translate(0 0)" clip-path="url(#clip-path-11)">
                <path id="Path_13773" data-name="Path 13773" d="M913.359,660.947c9.966,3.417,13.383,4.841,13.383,4.841s11.425-17.442,16.551-25.949c.792-1.313-1.058-5.661-.641-9.717.392-3.809,1.059-6.9,2.457-7.047,2.989-.321,2.028,3.63,1.565,6.549,0,0,4.271-9.682,5.7-12.529s4.68-1.672,3.7,1.424c-1.282,4.058-1.78,6.051-1.78,6.051s3.845-1.424,3.061,3.417c0,0,3.062-.356,2.42,3.774,0,0,2.554.807.57,5.908-1,2.563-4.272,5.34-4.272,5.34s-8.372,22.9-15.448,37.837c-2.883,6.087-9.824,8.115-18.581,6.514-4.835-.885-14.38-2.776-14.38-2.776Z" transform="translate(-907.664 -615.473)" fill="#faaf99"/>
                <g id="Group_4837" data-name="Group 4837" transform="translate(38.664 13.37)" style="mix-blend-mode: multiply;isolation: isolate">
                  <path id="Path_13774" data-name="Path 13774" d="M1096.625,680.573a4.555,4.555,0,0,1,1.78,1.815,6.562,6.562,0,0,1,.732,2.216,6.48,6.48,0,0,1-.723,4.3,6.067,6.067,0,0,0-.106-4.091,4.1,4.1,0,0,0-2.376-2.675Z" transform="translate(-1095.932 -680.573)" fill="#ebc1b5"/>
                </g>
                <g id="Group_4838" data-name="Group 4838" transform="translate(44.875 7.835)" style="mix-blend-mode: multiply;isolation: isolate">
                  <path id="Path_13775" data-name="Path 13775" d="M1131.77,653.621a12.06,12.06,0,0,1-.383,3.827,8.164,8.164,0,0,1-1.8,3.414,2.726,2.726,0,0,1-1.859,1,1.418,1.418,0,0,1-1.009-.59,2.289,2.289,0,0,1-.451-.922,4.636,4.636,0,0,1,.846-3.548,4.38,4.38,0,0,0-.341,3.384,1.673,1.673,0,0,0,.433.637c.192.159.409.3.525.259a2.039,2.039,0,0,0,1.125-.853,7.046,7.046,0,0,0,1.228-3.075,10.567,10.567,0,0,0-.012-3.362Z" transform="translate(-1126.178 -653.621)" fill="#ebc1b5"/>
                </g>
                <g id="Group_4839" data-name="Group 4839" transform="translate(47.331 11.573)" style="mix-blend-mode: multiply;isolation: isolate">
                  <path id="Path_13776" data-name="Path 13776" d="M1143.728,671.819a12.068,12.068,0,0,1-.383,3.826,8.183,8.183,0,0,1-1.8,3.414,2.726,2.726,0,0,1-1.861,1,1.416,1.416,0,0,1-1.01-.59,2.267,2.267,0,0,1-.449-.922,4.628,4.628,0,0,1,.845-3.548,4.388,4.388,0,0,0-.343,3.384,1.694,1.694,0,0,0,.434.637c.192.16.41.3.527.26a2.055,2.055,0,0,0,1.125-.854,7.053,7.053,0,0,0,1.225-3.074,10.492,10.492,0,0,0-.011-3.362Z" transform="translate(-1138.137 -671.819)" fill="#ebc1b5"/>
                </g>
                <g id="Group_4840" data-name="Group 4840" transform="translate(49.254 15.728)" style="mix-blend-mode: multiply;isolation: isolate">
                  <path id="Path_13777" data-name="Path 13777" d="M1152.317,692.055a9.3,9.3,0,0,1-.052,3.758,7.589,7.589,0,0,1-1.631,3.348,3.667,3.667,0,0,1-.752.648,1.44,1.44,0,0,1-1.157.228,2.128,2.128,0,0,1-1.18-1.611,4.726,4.726,0,0,1,.881-3.392,4.493,4.493,0,0,0-.39,3.262,1.591,1.591,0,0,0,.9,1.013c.22.043.7-.336.968-.748a6.491,6.491,0,0,0,1.057-2.972,7.764,7.764,0,0,0-.3-3.129Z" transform="translate(-1147.49 -692.055)" fill="#ebc1b5"/>
                </g>
                <ellipse id="Ellipse_1377" data-name="Ellipse 1377" cx="13.241" cy="13.241" rx="13.241" ry="13.241" transform="translate(11.499 86.201) rotate(-81.128)" fill="url(#radial-gradient-5)"/>
                <path id="Path_14437" data-name="Path 14437" d="M993.37,622.71c.983-2.177,2.03-4.459,2.608-5.615,1.423-2.848,4.68-1.672,3.7,1.424-1.282,4.058-1.78,6.051-1.78,6.051S991.791,626.208,993.37,622.71Z" transform="translate(-951.272 -615.473)" fill="url(#linear-gradient-45)"/>
              </g>
              <path id="Path_14392" data-name="Path 14392" d="M957.092,821.258l-4.814,9.13c-7.623.047-7.819-7.837-6.969-13.407C946.73,817.468,954.653,820.311,957.092,821.258Z" transform="translate(-938.014 -770.943)" opacity="0.31" fill="url(#linear-gradient-46)"/>
            </g>
            <path id="Path_14383" data-name="Path 14383" d="M698.5,699.727a.87.87,0,1,1-.87-.87A.87.87,0,0,1,698.5,699.727Z" transform="translate(-659.669 -681.732)" fill="#011835"/>
            <path id="Path_14384" data-name="Path 14384" d="M718.675,693.762l3.753,3-2.313.771Z" transform="translate(-677.087 -677.684)" fill="#faaf99"/>
            <path id="Path_14385" data-name="Path 14385" d="M717.017,721.811l-2.776.5C715.309,724.445,717.337,723.318,717.017,721.811Z" transform="translate(-673.562 -699.972)" fill="#ce5331"/>
            <path id="Path_14386" data-name="Path 14386" d="M659.253,810.134l-17.5-8.6-6.549,4.7,22.781,11.248Z" transform="translate(-610.76 -763.325)" fill="#d85625"/>
            <path id="Path_14387" data-name="Path 14387" d="M635.208,824.415l23.074,10.656-.932.429,1.663-7.309,1.655.423-2.038,7.212-.226.8-.706-.372Z" transform="translate(-610.76 -781.504)" fill="#ad2701"/>
            <path id="Path_14388" data-name="Path 14388" d="M735.827,800.218l5.428,2.795s-1.14-7.4-4.272-12.245l-5.409-1.708Z" transform="translate(-687.335 -753.409)" fill="#d85625"/>
            <path id="Path_14389" data-name="Path 14389" d="M751.26,807.013l5.4,2.057-.756.642a44.078,44.078,0,0,0-1.272-6.323,26.594,26.594,0,0,0-2.424-6.011,26.847,26.847,0,0,1,2.977,5.829,44.913,44.913,0,0,1,1.869,6.328l.2.9-.952-.263-5.566-1.538Z" transform="translate(-702.556 -760.019)" fill="#ad2701" stroke="rgba(0,0,0,0)" stroke-width="1"/>
            <g id="Group_4845" data-name="Group 4845" transform="translate(51.214 53.359)">
              <path id="Path_14390" data-name="Path 14390" d="M767.359,876.193a.908.908,0,1,1-.907-.908A.907.907,0,0,1,767.359,876.193Z" transform="translate(-765.543 -875.285)" fill="#ad2701"/>
              <path id="Path_14391" data-name="Path 14391" d="M773.078,895.431a.907.907,0,1,1-.907-.908A.907.907,0,0,1,773.078,895.431Z" transform="translate(-770.087 -890.572)" fill="#ad2701"/>
            </g>
          </g>
        </g>
        <g id="Group_4847" data-name="Group 4847" transform="translate(11.132 229.999)">
          <line id="Line_289" data-name="Line 289" x2="336.662" fill="none" stroke="#000" stroke-linecap="round" stroke-miterlimit="10" stroke-width="0.5"/>
          <line id="Line_290" data-name="Line 290" x2="267.365" transform="translate(34.997 5.733)" fill="none" stroke="#000" stroke-linecap="round" stroke-miterlimit="10" stroke-width="0.5"/>
          <line id="Line_291" data-name="Line 291" x2="6.152" transform="translate(0.321 10.067)" fill="none" stroke="#000" stroke-linecap="round" stroke-miterlimit="10" stroke-width="0.5"/>
          <line id="Line_292" data-name="Line 292" x2="62.082" transform="translate(13.185 10.067)" fill="none" stroke="#000" stroke-linecap="round" stroke-miterlimit="10" stroke-width="0.5"/>
        </g>
        <g id="Group_4688" data-name="Group 4688" transform="translate(263.06 166.423)">
          <g id="Group_4667" data-name="Group 4667" transform="translate(8.68 16.022)">
            <ellipse id="Ellipse_1354" data-name="Ellipse 1354" cx="5.724" cy="5.724" rx="5.724" ry="5.724" transform="translate(0 11.447) rotate(-90)" fill="url(#linear-gradient-47)"/>
            <ellipse id="Ellipse_1355" data-name="Ellipse 1355" cx="4.856" cy="4.856" rx="4.856" ry="4.856" transform="translate(0.868 10.58) rotate(-90)" fill="url(#linear-gradient-48)"/>
            <path id="Path_7566" data-name="Path 7566" d="M774.691,729.57l-1.92,1.009.367-2.138-1.553-1.514,2.146-.312.96-1.945.96,1.945,2.146.312-1.553,1.514.367,2.138Z" transform="translate(-768.968 -721.901)" fill="#ff9e10"/>
          </g>
          <g id="Group_4670" data-name="Group 4670" transform="translate(32.218 22.363)">
            <g id="Group_4669" data-name="Group 4669" transform="translate(0 0)" style="isolation: isolate">
              <path id="Path_7567" data-name="Path 7567" d="M1216.369,805.814c2.019.341,1.8,1.726-.494,3.094a13.672,13.672,0,0,1-7.805,1.86c-2.02-.341-1.8-1.726.493-3.094A13.674,13.674,0,0,1,1216.369,805.814Zm-5.159,4.115,1.451-1.063,2.3-.538-1.263-.4.879-1.042-2.231.814-1.761-.106-.116.907-1.967.977,2.159-.254.545.71" transform="translate(-1205.506 -805.191)" fill="url(#linear-gradient-49)"/>
              <path id="Path_7568" data-name="Path 7568" d="M1195.152,795.078c2.451.414,2.183,2.1-.6,3.756s-7.025,2.672-9.476,2.258-2.183-2.1.6-3.756S1192.7,794.664,1195.152,795.078Zm-9.187,5.484a13.674,13.674,0,0,0,7.806-1.86c2.292-1.368,2.513-2.753.493-3.094a13.673,13.673,0,0,0-7.806,1.86c-2.292,1.368-2.513,2.753-.494,3.094" transform="translate(-1183.401 -794.985)" fill="url(#linear-gradient-50)"/>
              <path id="Path_7569" data-name="Path 7569" d="M1248.525,828.248l-.879,1.042,1.262.4-2.3.538-1.451,1.064-.545-.71-2.159.253,1.967-.977.117-.907,1.761.106Z" transform="translate(-1239.449 -826.558)" fill="#ff9e10"/>
              <g id="Group_4668" data-name="Group 4668" transform="translate(0.032 1.096)">
                <path id="Path_7570" data-name="Path 7570" d="M1243.516,816.559a.9.9,0,0,1,.026.133,1.012,1.012,0,0,1,0,.169,1.074,1.074,0,0,1-.025.171,1.341,1.341,0,0,1-.051.175,1.61,1.61,0,0,1-.078.18c-.031.062-.066.124-.106.188s-.088.132-.138.2-.112.142-.177.214-.146.157-.228.236-.2.182-.305.274q-.209.175-.457.353-.322.23-.709.462a14.853,14.853,0,0,1-1.8.905c-.232.1-.469.193-.709.283q-.288.108-.581.208c-.171.058-.343.114-.514.167s-.318.1-.476.141-.3.083-.452.122-.291.073-.436.106-.284.064-.425.094-.281.057-.42.082-.281.05-.421.072-.285.043-.426.061-.294.036-.438.05-.31.028-.461.037c-.171.011-.34.018-.5.021-.2,0-.4,0-.586-.007l.293,1.058q.284.013.587.007c.164,0,.332-.01.5-.021.151-.009.3-.022.461-.037s.29-.031.438-.05.283-.038.427-.061.28-.046.421-.072.279-.053.42-.082.283-.061.425-.094.29-.069.435-.107.3-.079.452-.122.318-.092.476-.141.344-.109.515-.167q.292-.1.581-.207c.239-.09.476-.185.709-.283a14.9,14.9,0,0,0,1.8-.905q.387-.231.709-.462.248-.177.458-.353.165-.138.3-.274c.083-.079.158-.158.228-.236s.123-.143.177-.214.1-.133.138-.2.075-.126.106-.188a1.646,1.646,0,0,0,.078-.18,1.346,1.346,0,0,0,.051-.174,1.083,1.083,0,0,0,.024-.171.973.973,0,0,0,0-.169h0a.913.913,0,0,0-.026-.133Z" transform="translate(-1230.153 -816.559)" fill="url(#linear-gradient-51)"/>
                <path id="Path_7571" data-name="Path 7571" d="M1186.5,896.525l.293,1.058a6.815,6.815,0,0,1-.824-.084c-.967-.163-1.511-.524-1.644-1l-.293-1.058c.133.479.677.84,1.644,1a6.818,6.818,0,0,0,.824.084" transform="translate(-1184.035 -891.431)" fill="url(#linear-gradient-52)"/>
              </g>
            </g>
          </g>
          <g id="Group_4673" data-name="Group 4673" transform="translate(4.173 23.802)">
            <g id="Group_4672" data-name="Group 4672" transform="translate(0 0)" style="isolation: isolate">
              <path id="Path_7572" data-name="Path 7572" d="M664.929,832.791c2.322.944,2.724,2.2.9,2.8a12.839,12.839,0,0,1-7.511-.618c-2.322-.944-2.724-2.2-.9-2.8A12.838,12.838,0,0,1,664.929,832.791Zm-2.136,2.469.405-.736,2.04-.071-1.965-.627-.237-.826-1.62.349-2.187-.439.964.843-1.114.555,2.215.172,1.5.782" transform="translate(-655.008 -831.42)" fill="url(#linear-gradient-53)"/>
              <path id="Path_7573" data-name="Path 7573" d="M644.258,824.447c2.819,1.146,3.307,2.669,1.09,3.4s-6.3.4-9.117-.75-3.307-2.67-1.09-3.4S641.439,823.3,644.258,824.447Zm.191,3.036c1.826-.6,1.424-1.858-.9-2.8a12.841,12.841,0,0,0-7.51-.618c-1.826.6-1.424,1.858.9,2.8a12.838,12.838,0,0,0,7.511.618" transform="translate(-633.629 -823.309)" fill="url(#linear-gradient-54)"/>
              <path id="Path_7574" data-name="Path 7574" d="M711.646,852.642l.964.843-1.114.554,2.215.172,1.5.781.405-.737,2.04-.071-1.965-.627-.237-.825-1.62.349Z" transform="translate(-707.424 -851.152)" fill="#ff9e10"/>
              <g id="Group_4671" data-name="Group 4671" transform="translate(0 1.553)">
                <path id="Path_7575" data-name="Path 7575" d="M631.482,853.871a.836.836,0,0,0-.005.127.9.9,0,0,0,.02.158,1.079,1.079,0,0,0,.047.156,1.28,1.28,0,0,0,.072.155,1.541,1.541,0,0,0,.1.156c.037.053.079.106.125.159s.1.11.156.165.125.116.195.173.158.125.245.187.207.141.323.211q.219.133.475.262.332.168.724.328a13.948,13.948,0,0,0,1.8.584q.345.088.7.162.283.06.569.11.25.045.5.082.231.035.462.063c.146.018.292.034.437.049s.28.026.42.037.273.019.408.027.268.012.4.016.268.006.4.007.271,0,.4,0,.278-.009.414-.016.291-.018.433-.031q.241-.021.47-.052.281-.038.543-.09l-.122,1.023q-.261.052-.543.09-.229.031-.47.052-.213.019-.433.031-.2.011-.414.016t-.4,0q-.2,0-.4-.007t-.4-.016q-.2-.011-.408-.026t-.42-.037q-.218-.022-.437-.049t-.462-.063q-.251-.038-.5-.082-.286-.051-.569-.11-.353-.074-.7-.162a13.977,13.977,0,0,1-1.8-.585q-.392-.159-.724-.328-.256-.129-.475-.262-.173-.105-.322-.211-.132-.093-.245-.187t-.195-.173c-.057-.055-.109-.11-.156-.165a2.011,2.011,0,0,1-.125-.159,1.647,1.647,0,0,1-.1-.156,1.327,1.327,0,0,1-.072-.155,1.049,1.049,0,0,1-.047-.156.9.9,0,0,1-.02-.158h0a.821.821,0,0,1,.005-.127Z" transform="translate(-631.354 -853.871)" fill="url(#linear-gradient-55)"/>
                <path id="Path_7576" data-name="Path 7576" d="M844.915,891.089l-.122,1.024a6.366,6.366,0,0,0,.753-.2c.875-.289,1.328-.7,1.384-1.165l.122-1.024c-.055.464-.509.876-1.384,1.165a6.352,6.352,0,0,1-.753.195" transform="translate(-833.95 -887.907)" fill="url(#linear-gradient-56)"/>
              </g>
            </g>
          </g>
          <g id="Group_4676" data-name="Group 4676" transform="translate(43.758 24.637)">
            <g id="Group_4675" data-name="Group 4675" transform="translate(0 0)" style="isolation: isolate">
              <path id="Path_7577" data-name="Path 7577" d="M1440.7,847.794c1.63.732,1.139,1.852-1.1,2.5a11.929,11.929,0,0,1-7-.146c-1.63-.732-1.139-1.853,1.1-2.5A11.93,11.93,0,0,1,1440.7,847.794Zm-5.26,2.34,1.459-.579,2.063.053-.977-.619.971-.687-2.062.2-1.464-.477-.3.74-1.875.392,1.878.261.3.719" transform="translate(-1430.571 -846.82)" fill="url(#linear-gradient-57)"/>
              <path id="Path_7578" data-name="Path 7578" d="M1421.543,840.453c1.978.888,1.382,2.249-1.332,3.04s-6.518.712-8.5-.177-1.382-2.249,1.331-3.039S1419.564,839.565,1421.543,840.453Zm-8.962,2.611a11.928,11.928,0,0,0,7,.146c2.236-.651,2.726-1.772,1.1-2.5a11.932,11.932,0,0,0-7-.145c-2.235.651-2.726,1.772-1.1,2.5" transform="translate(-1410.547 -839.732)" fill="url(#linear-gradient-58)"/>
              <path id="Path_7579" data-name="Path 7579" d="M1469.124,863.668l-.971.687.977.619-2.064-.052-1.459.579-.3-.719-1.879-.261,1.876-.392.3-.74,1.464.477Z" transform="translate(-1460.738 -862.186)" fill="#ff9e10"/>
              <g id="Group_4674" data-name="Group 4674" transform="translate(0 1.93)">
                <path id="Path_7580" data-name="Path 7580" d="M1457.185,877.721a.741.741,0,0,1-.007.118.857.857,0,0,1-.033.144,1,1,0,0,1-.058.139,1.249,1.249,0,0,1-.082.136,1.524,1.524,0,0,1-.105.135,1.791,1.791,0,0,1-.131.135q-.074.07-.16.138c-.061.048-.126.095-.2.141s-.158.1-.245.15-.205.11-.318.164q-.215.1-.464.2-.322.123-.7.234a12.984,12.984,0,0,1-1.721.368c-.218.032-.439.06-.661.083q-.267.028-.536.048-.236.017-.471.028-.216.01-.433.014c-.136,0-.272,0-.408,0s-.262,0-.392-.006-.254-.008-.38-.014-.249-.014-.372-.023-.249-.02-.371-.032-.251-.027-.373-.042-.256-.034-.381-.054-.267-.045-.4-.07c-.147-.029-.291-.06-.429-.093q-.257-.062-.494-.135l.015.957c.158.049.323.094.493.135q.21.05.43.093.195.038.4.07.188.03.381.054c.123.016.247.03.373.042s.246.023.371.032.247.017.373.023.252.011.38.015.26.005.391.006.272,0,.408,0,.288-.008.433-.014.314-.016.471-.028q.269-.019.536-.047.334-.035.661-.084a12.99,12.99,0,0,0,1.721-.368q.377-.11.7-.234.248-.1.464-.2c.113-.053.219-.108.318-.164s.168-.1.244-.149.136-.094.2-.142.111-.091.16-.137a1.757,1.757,0,0,0,.13-.135,1.406,1.406,0,0,0,.105-.134,1.241,1.241,0,0,0,.081-.136.988.988,0,0,0,.058-.139.894.894,0,0,0,.034-.144h0a.82.82,0,0,0,.007-.118Z" transform="translate(-1445.022 -877.721)" fill="url(#linear-gradient-59)"/>
                <path id="Path_7581" data-name="Path 7581" d="M1412.393,887.96l.015.958a5.974,5.974,0,0,1-.678-.252c-.781-.351-1.161-.775-1.167-1.209l-.015-.957c.007.434.386.858,1.168,1.208a5.866,5.866,0,0,0,.677.252" transform="translate(-1410.547 -886.054)" fill="url(#linear-gradient-60)"/>
              </g>
            </g>
          </g>
          <g id="Group_4679" data-name="Group 4679" transform="translate(25.112 20.366)">
            <g id="Group_4678" data-name="Group 4678" transform="translate(0 0)" style="isolation: isolate">
              <path id="Path_7582" data-name="Path 7582" d="M1064.756,776.255c1.81-.957,2.477.277,1.489,2.757a13.676,13.676,0,0,1-5.067,6.222c-1.81.957-2.477-.277-1.489-2.757A13.671,13.671,0,0,1,1064.756,776.255Zm-1.595,6.4.505-1.727,1.5-1.828-1.248.447.064-1.362-1.276,2-1.463.986.458.791-.968,1.971,1.56-1.514.864.232" transform="translate(-1058.434 -774.901)" fill="url(#linear-gradient-61)"/>
              <path id="Path_7583" data-name="Path 7583" d="M1050.212,756.055c2.2-1.162,3.007.337,1.808,3.346s-3.953,6.392-6.151,7.554-3.007-.337-1.808-3.346S1048.015,757.217,1050.212,756.055Zm-3.96,9.939a13.675,13.675,0,0,0,5.066-6.222c.988-2.48.321-3.714-1.489-2.757a13.675,13.675,0,0,0-5.067,6.223c-.988,2.479-.321,3.714,1.49,2.756" transform="translate(-1043.507 -755.661)" fill="url(#linear-gradient-62)"/>
              <path id="Path_7584" data-name="Path 7584" d="M1092.1,820.387l-.064,1.362,1.248-.447-1.5,1.828-.505,1.726-.865-.232-1.56,1.514.968-1.971-.459-.791,1.463-.986Z" transform="translate(-1086.546 -817.099)" fill="#ff9e10"/>
              <g id="Group_4677" data-name="Group 4677" transform="translate(0.447 0.19)">
                <path id="Path_7585" data-name="Path 7585" d="M1109.45,759.411a.89.89,0,0,1,.1.09,1.037,1.037,0,0,1,.106.132,1.133,1.133,0,0,1,.085.151,1.431,1.431,0,0,1,.066.17,1.823,1.823,0,0,1,.047.19,2.059,2.059,0,0,1,.03.213c.007.077.011.157.011.241s0,.181-.01.278-.02.213-.037.326q-.029.194-.076.4-.059.266-.149.558-.116.378-.282.8a14.759,14.759,0,0,1-.88,1.815q-.187.33-.391.656c-.109.174-.221.347-.335.518q-.151.225-.307.446-.144.2-.292.4t-.284.371q-.14.177-.281.349t-.281.333c-.094.109-.189.215-.283.32s-.193.211-.291.313-.2.208-.3.308-.212.207-.318.306-.229.21-.343.31q-.194.168-.387.322-.236.188-.47.351l.876.662q.233-.163.47-.351.193-.153.387-.322.172-.149.344-.31c.106-.1.212-.2.317-.306s.2-.2.3-.308.194-.206.291-.313.19-.212.284-.32.188-.22.281-.333.188-.231.281-.349.191-.246.284-.371.2-.266.292-.4.207-.3.307-.445q.172-.257.335-.518.2-.326.391-.656a14.858,14.858,0,0,0,.88-1.815q.167-.419.283-.8.088-.291.149-.558c.031-.14.057-.274.076-.4.017-.113.029-.222.037-.327s.011-.189.01-.277,0-.165-.011-.242a2.087,2.087,0,0,0-.03-.214,1.8,1.8,0,0,0-.048-.189,1.324,1.324,0,0,0-.066-.17,1.1,1.1,0,0,0-.085-.151.959.959,0,0,0-.106-.132h0a.861.861,0,0,0-.1-.09Z" transform="translate(-1101.277 -759.411)" fill="url(#linear-gradient-63)"/>
                <path id="Path_7586" data-name="Path 7586" d="M1054.931,969.407l.876.661a6.763,6.763,0,0,1-.706.435c-.867.459-1.519.5-1.915.2l-.876-.662c.4.3,1.048.256,1.915-.2a6.767,6.767,0,0,0,.706-.434" transform="translate(-1052.31 -958.739)" fill="url(#linear-gradient-64)"/>
              </g>
            </g>
          </g>
          <g id="Group_4680" data-name="Group 4680" transform="translate(15.32 17.217)">
            <ellipse id="Ellipse_1356" data-name="Ellipse 1356" cx="6.706" cy="6.706" rx="6.706" ry="6.706" transform="translate(1.34 1.34)" fill="url(#linear-gradient-47)"/>
            <circle id="Ellipse_1357" data-name="Ellipse 1357" cx="5.689" cy="5.689" r="5.689" transform="translate(0 8.046) rotate(-45)" fill="url(#linear-gradient-48)"/>
            <path id="Path_7587" data-name="Path 7587" d="M941.149,789.666l-2.249,1.182.43-2.5-1.82-1.774,2.515-.365,1.125-2.279,1.125,2.279,2.515.365-1.82,1.774.43,2.5Z" transform="translate(-933.103 -779.341)" fill="#ff9e10"/>
          </g>
          <g id="Group_4682" data-name="Group 4682" transform="translate(0 24.769)">
            <g id="Group_4681" data-name="Group 4681" transform="translate(0 0)">
              <rect id="Rectangle_2722" data-name="Rectangle 2722" width="55.608" height="36.271" transform="translate(0 0)" fill="#9dcdf6"/>
              <rect id="Rectangle_2723" data-name="Rectangle 2723" width="10.02" height="36.271" transform="translate(23.968 0)" fill="#82b3dd"/>
              <g id="Rectangle_2718" data-name="Rectangle 2718" transform="translate(4.122 1.649)" fill="none" stroke="#000" stroke-width="0.5">
                <rect width="55.608" height="36.271" stroke="none"/>
                <rect x="0.25" y="0.25" width="55.108" height="35.771" fill="none"/>
              </g>
            </g>
            <g id="Rectangle_2719" data-name="Rectangle 2719" transform="translate(27.209 1.649)" fill="none" stroke="#000" stroke-width="0.5">
              <rect width="10.02" height="36.271" stroke="none"/>
              <rect x="0.25" y="0.25" width="9.52" height="35.771" fill="none"/>
            </g>
          </g>
          <g id="Group_4687" data-name="Group 4687" transform="translate(25.921 0)">
            <g id="Group_4689" data-name="Group 4689" transform="translate(8.676 0)">
              <g id="Group_4683" data-name="Group 4683" transform="translate(14.601)">
                <path id="Path_7588" data-name="Path 7588" d="M1592.04,372.488s5.073.317,5.881,1.51-1.577,17.321-1.577,17.321-.523-7.122-1.1-10.439A28.109,28.109,0,0,0,1592.04,372.488Z" transform="translate(-1588.259 -372.413)" fill="#9dcdf6"/>
                <path id="Path_7589" data-name="Path 7589" d="M1525.684,389.915c-.081-.159-8.351-16.384-8.078-17.633s3.591-1.766,7.513-.671c0,0-3.48,1.25-3.568,2.009-.157,1.359.7,2.4,2,6.831A95.5,95.5,0,0,1,1525.684,389.915Z" transform="translate(-1517.6 -371.011)" fill="#82b3dd"/>
              </g>
              <g id="Group_4684" data-name="Group 4684" transform="translate(0 5.112)">
                <path id="Path_7590" data-name="Path 7590" d="M1252.89,485.425c-.052-.071-.679-.92-1.654-2.165l0,0c-2.927-3.735-8.984-11.022-12.039-11.511a11.554,11.554,0,0,0-4.136.188h0c-2.9.619-5.324,2.074-4.77,3.048.814,1.431,16.014,4.147,22.606,10.446Zm-17.729-10.631a12.682,12.682,0,0,1,3.639-.077c.843.322,6.636,3.5,7.192,4.317S1235.161,474.794,1235.161,474.794Z" transform="translate(-1230.208 -471.636)" fill="#9dcdf6"/>
                <path id="Path_7591" data-name="Path 7591" d="M1252.893,491c-6.592-6.3-21.792-9.015-22.606-10.446-.554-.975,1.867-2.429,4.77-3.048-.041.022-1.98,1.062-.73,1.765,1.154.648,10.717,2.444,16.905,9.558l0,0a21.366,21.366,0,0,1,1.654,2.164Z" transform="translate(-1230.208 -477.203)" fill="#82b3dd"/>
              </g>
              <path id="Path_7592" data-name="Path 7592" d="M1675.375,540.314s7.38-5.557,9.257-10.2c0,0-1.895.742-2.253.822-.146-.454.248-.992.1-1.446C1682.481,529.489,1675.727,537.89,1675.375,540.314Z" transform="translate(-1652.759 -521.438)" fill="#82b3dd"/>
              <path id="Path_7593" data-name="Path 7593" d="M1676.757,655.067s5.513-6.987,12.7-3.948c0,0-1.571.735-1.707,1.174,0,0,1.719.492,2.108.653,0,0-7.534-.424-12.282,2.46Z" transform="translate(-1654.071 -636.161)" fill="#9dcdf6"/>
            </g>
            <g id="Group_4685" data-name="Group 4685" transform="translate(8.676 0.824)">
              <g id="Group_4683-2" data-name="Group 4683" transform="translate(14.601)">
                <path id="Path_7588-2" data-name="Path 7588" d="M1592.04,372.488s5.073.317,5.881,1.51-1.577,17.321-1.577,17.321-.523-7.122-1.1-10.439A28.109,28.109,0,0,0,1592.04,372.488Z" transform="translate(-1588.259 -372.413)" fill="none" stroke="#000" stroke-width="0.5"/>
                <path id="Path_7589-2" data-name="Path 7589" d="M1525.684,389.915c-.081-.159-8.351-16.384-8.078-17.633s3.591-1.766,7.513-.671c0,0-3.48,1.25-3.568,2.009-.157,1.359.7,2.4,2,6.831A95.5,95.5,0,0,1,1525.684,389.915Z" transform="translate(-1517.6 -371.011)" fill="none" stroke="#000" stroke-width="0.5"/>
              </g>
              <g id="Group_4684-2" data-name="Group 4684" transform="translate(0 5.112)">
                <path id="Path_7590-2" data-name="Path 7590" d="M1252.89,485.425c-.052-.071-.679-.92-1.654-2.165l0,0c-2.927-3.735-8.984-11.022-12.039-11.511a11.554,11.554,0,0,0-4.136.188h0c-2.9.619-5.324,2.074-4.77,3.048.814,1.431,16.014,4.147,22.606,10.446Zm-17.729-10.631a12.682,12.682,0,0,1,3.639-.077c.843.322,6.636,3.5,7.192,4.317S1235.161,474.794,1235.161,474.794Z" transform="translate(-1230.208 -471.636)" fill="none" stroke="#000" stroke-width="0.5"/>
                <path id="Path_7591-2" data-name="Path 7591" d="M1252.893,491c-6.592-6.3-21.792-9.015-22.606-10.446-.554-.975,1.867-2.429,4.77-3.048-.041.022-1.98,1.062-.73,1.765,1.154.648,10.717,2.444,16.905,9.558l0,0a21.366,21.366,0,0,1,1.654,2.164Z" transform="translate(-1230.208 -477.203)" fill="none" stroke="#000" stroke-width="0.5"/>
              </g>
              <path id="Path_7592-2" data-name="Path 7592" d="M1675.375,540.314s7.38-5.557,9.257-10.2c0,0-1.895.742-2.253.822-.146-.454.248-.992.1-1.446C1682.481,529.489,1675.727,537.89,1675.375,540.314Z" transform="translate(-1652.759 -521.438)" fill="none" stroke="#000" stroke-width="0.5"/>
              <path id="Path_7593-2" data-name="Path 7593" d="M1676.757,655.067s5.513-6.987,12.7-3.948c0,0-1.571.735-1.707,1.174,0,0,1.719.492,2.108.653,0,0-7.534-.424-12.282,2.46Z" transform="translate(-1654.071 -636.161)" fill="none" stroke="#000" stroke-width="0.5"/>
            </g>
            <rect id="Rectangle_2724" data-name="Rectangle 2724" width="7.247" height="56.286" transform="translate(0 15.767) rotate(-73.887)" fill="#9dcdf6"/>
            <rect id="Rectangle_2725" data-name="Rectangle 2725" width="10.02" height="7.247" transform="translate(24.516 15.306) rotate(16.113)" fill="#82b3dd"/>
            <g id="Group_4686" data-name="Group 4686" transform="translate(1.649 10.454)">
              <rect id="Rectangle_2720" data-name="Rectangle 2720" width="7.247" height="56.286" transform="translate(0 6.963) rotate(-73.887)" fill="none" stroke="#000" stroke-width="0.5"/>
            </g>
            <rect id="Rectangle_2721" data-name="Rectangle 2721" width="10.02" height="7.247" transform="translate(26.165 16.955) rotate(16.113)" fill="none" stroke="#000" stroke-width="0.5"/>
          </g>
        </g>
      </g>
    </g>
  </g>
</svg>
