<svg xmlns="http://www.w3.org/2000/svg" width="31.953" height="31.953" viewBox="0 0 31.953 31.953">
  <g id="Group_12222" data-name="Group 12222" transform="translate(-668.983 -2713.95)">
    <g id="Group_12221" data-name="Group 12221">
      <rect id="Rectangle_4517" data-name="Rectangle 4517" width="31.953" height="31.953" rx="4" transform="translate(668.983 2713.95)" fill="#f2ac57"/>
    </g>
    <g id="star-black-fivepointed-shape" transform="translate(675.337 2720.341)">
      <path id="Path_280" data-name="Path 280" d="M19.869,9.224l-4.1,4,.967,5.642A1.087,1.087,0,0,1,15.164,20L10.1,17.34,5.03,20a1.082,1.082,0,0,1-1.572-1.141l.967-5.643-4.1-4a1.082,1.082,0,0,1,.6-1.848l5.667-.824L9.128,1.419a1.082,1.082,0,0,1,1.941,0L13.6,6.548l5.667.824a1.087,1.087,0,0,1,.6,1.848Z" transform="translate(0.002 -0.816)" fill="#fff"/>
    </g>
  </g>
</svg>
