<svg xmlns="http://www.w3.org/2000/svg" xmlns:xlink="http://www.w3.org/1999/xlink" width="16.78" height="22.5" viewBox="0 0 16.78 22.5">
  <defs>
    <clipPath id="clip-path">
      <path id="Path_1527" data-name="Path 1527" d="M0,0H5.761V8.65H0ZM0,0" fill="#fff"/>
    </clipPath>
    <clipPath id="clip-path-2">
      <path id="Path_1550" data-name="Path 1550" d="M22,5h1.955V8.46H22Zm0,0" transform="translate(-22 -5)" fill="#fff"/>
    </clipPath>
  </defs>
  <g id="Group_12226" data-name="Group 12226" transform="translate(-630.623 -1408.986)">
    <g id="Group_12143" data-name="Group 12143" transform="translate(627.013 1408.236)">
      <line id="Line_285" data-name="Line 285" x1="13.37" transform="translate(4.36 5.32)" fill="none" stroke="#fff" stroke-miterlimit="10" stroke-width="1.5"/>
    </g>
    <g id="surface1" transform="translate(635.992 1416.446)">
      <g id="Group_278" data-name="Group 278" clip-path="url(#clip-path)">
        <path id="Path_1526" data-name="Path 1526" d="M5.318-54.361c.066.032.114.065.147.082l-.049.049c-.016.049-.066,0-.066,0,.066.065.033.049.016.163-.016.049-.1.064-.146.049-.032,0-.032-.032-.1-.049-.081,0-.114-.1-.179-.147-.065-.032-.065-.016-.082-.065,0,0,.082.228.1.26a1.547,1.547,0,0,0,.1.163.225.225,0,0,1,.066.065s-.147-.049-.147-.082a1.316,1.316,0,0,1,.1.13.23.23,0,0,0,.032.1c.017.016-.039-.031-.039-.031a.491.491,0,0,1,.055.226.528.528,0,0,0,0,.164.7.7,0,0,1,.016.26.942.942,0,0,1-.049.227c-.032.049-.146.293-.178.325a.117.117,0,0,0-.049.1c0,.064-.08.118-.08.179-.017.032-.082.065-.082.1s-.032.227-.065.472a3.376,3.376,0,0,0-.1.747,1.98,1.98,0,0,0,.082.276c.016.1.032.178.1.178.114,0,.2.032.2.147,0,.13.065.065.162.114a.194.194,0,0,1-.034.217l-.03-.005c-.028,0-.416-.031-.9-.059a.173.173,0,0,0,.028-.172c-.016-.027-.042-.05-.061-.076h0a.937.937,0,0,1-.059-.1.256.256,0,0,0-.046-.071h0a1.857,1.857,0,0,0-.132-.66.157.157,0,0,1,0-.046,1.154,1.154,0,0,0,.036-.165c.032-.163.049-.259.082-.407a6,6,0,0,1,.114-.943c.016-.049,0-.114.049-.162.048-.033.016-.114.016-.179a.413.413,0,0,0-.065-.358c.067-.049.049-.185.049-.227a.345.345,0,0,0-.066-.228c-.032-.032.016-.065,0-.1-.049-.08,0-.179-.032-.26A.163.163,0,0,1,4-54.215c.049-.1,0-.114-.033-.179a1.687,1.687,0,0,1-.048-.162c0-.017-.018-.034-.036-.05a.124.124,0,0,0,0-.032c.016-.1.032-.226-.032-.291v0c.006.011.032.011.047.011a.061.061,0,0,1-.016-.049,1.038,1.038,0,0,0,.033-.2,1.69,1.69,0,0,1,.405-.437.126.126,0,0,1,.13-.016l.13-.13a.165.165,0,0,1,.2-.049c.048.049.114.033.178.033a.124.124,0,0,1,.114.049c.032.032-.016.065.049.113a.516.516,0,0,1,.081.114,2.773,2.773,0,0,0,.325.212c.13.065.065.212.081.26a.711.711,0,0,0,.228.212.067.067,0,0,1,.032.114.237.237,0,0,1-.081.049.788.788,0,0,1-.13.2.124.124,0,0,1-.146.065,1.032,1.032,0,0,0-.074-.139,1.421,1.421,0,0,0-.243-.195c-.02.011-.017.1-.027.159a.077.077,0,0,1-.03.045c.016.032.082.042.114.042C5.3-54.432,5.286-54.377,5.318-54.361ZM3.971-50.434a1.857,1.857,0,0,0-.132-.66.157.157,0,0,1,0-.046l-.011.03a1.354,1.354,0,0,0,.016.52C3.865-50.511,3.925-50.484,3.971-50.434ZM2.079-55.262l0-.005a1.626,1.626,0,0,0-.349-.329.1.1,0,0,0-.114-.016l-.13-.13a.164.164,0,0,0-.195-.049c-.049.049-.114.033-.179.033s-.1.016-.114.049c-.032.032.016.065-.049.113a.491.491,0,0,0-.081.114,2.157,2.157,0,0,1-.342.212c-.114.065-.048.212-.065.26a.709.709,0,0,1-.227.212.063.063,0,0,0-.033.114.3.3,0,0,0,.065.049c.049.066.066.1.147.2a.124.124,0,0,0,.146.065l0-.006.023-.028.091.087A.233.233,0,0,1,.6-54.28l.049.049c.016.049.065,0,.065,0-.065.065-.032.049-.016.163.016.049.1.064.147.049.032,0,.032-.032.1-.049.081,0,.114-.1.178-.147.065-.032.065-.016.082-.065,0,0-.082.228-.1.26a2.107,2.107,0,0,1-.163.228s.146-.049.146-.082c0,0-.1.1-.1.13a.23.23,0,0,1-.032.1c-.016.016.049-.016.049-.016a.4.4,0,0,0-.065.211.549.549,0,0,1,0,.164,1.4,1.4,0,0,0-.032.26c.016.048.049.195.065.227a2.055,2.055,0,0,0,.178.325.183.183,0,0,1,.049.1c0,.033.032.065.032.081a.282.282,0,0,1,.049.1c.016.032.081.065.081.1s.032.227.065.472a3.336,3.336,0,0,1,.1.747c-.032.147-.066.178-.082.276s-.032.178-.1.178c-.114,0-.2.032-.2.147,0,.13-.065.065-.162.114-.032,0-.049.163.049.228v0c-.052.009-.1.018-.13.028-.05.01-.082.063-.1.1h0c-.067,0-.112.209-.126.49h0v.025l0,.021H.65c-.016,0-.032.065-.032.147s.016.146.032.146H.683q0,.026,0,.057c.012.253.049.436.1.473a.181.181,0,0,0,.105.024c.036.045.12.144.195.157s.187.014.352.016h0c-.02.049-.039.1-.059.145h3.4l-.087-.15-.005-.009H4.7a.975.975,0,0,0,.353-.051.424.424,0,0,0,.1-.113.155.155,0,0,0,.08-.024c.055-.036.092-.22.1-.474,0-.02,0-.038,0-.056h.032c.017,0,.033-.065.033-.146s-.016-.146-.033-.146H5.344l0-.021v-.026h0c-.014-.282-.059-.49-.125-.49H5.21a.2.2,0,0,0-.038-.082.29.29,0,0,0-.132-.059.2.2,0,0,0,.034-.218c-.1-.049-.162.016-.162-.114,0-.114-.082-.147-.2-.147-.065,0-.081-.081-.1-.178a1.9,1.9,0,0,1-.081-.276,3.338,3.338,0,0,1,.1-.747c.032-.245.065-.439.065-.472s.065-.066.082-.1c0-.062.08-.116.08-.179a.117.117,0,0,1,.049-.1c.032-.032.146-.276.178-.325a.911.911,0,0,0,.049-.227.7.7,0,0,0-.016-.26.549.549,0,0,1,0-.164.491.491,0,0,0-.055-.226s.055.047.039.031a.223.223,0,0,1-.033-.1,1.4,1.4,0,0,0-.1-.13c0,.032.147.082.147.082a.225.225,0,0,0-.066-.065,1.547,1.547,0,0,1-.1-.163c-.016-.032-.1-.26-.1-.26.017.049.017.032.082.065.066.049.1.147.179.147.065.017.065.049.1.049.049.016.13,0,.147-.049.016-.114.049-.1-.017-.163,0,0,.049.049.066,0l.049-.049L5.437-54.3a.038.038,0,0,0,.027-.023c.011-.026.007-.07.02-.111.006.012.019.035.029.052a.124.124,0,0,0,.146-.065.769.769,0,0,0,.13-.2.242.242,0,0,0,.081-.048.068.068,0,0,0-.032-.114.711.711,0,0,1-.228-.212c-.016-.049.049-.2-.081-.26a2.773,2.773,0,0,1-.325-.212.516.516,0,0,0-.081-.114c-.066-.048-.016-.081-.049-.113a.124.124,0,0,0-.114-.049c-.065,0-.13.016-.178-.033a.165.165,0,0,0-.2.049l-.13.13a.126.126,0,0,0-.13.016,1.69,1.69,0,0,0-.405.437v.013A.5.5,0,0,0,3.9-55.32a.66.66,0,0,0-.064-.114.249.249,0,0,0-.016-.325c-.017,0-.017-.016-.017-.033a.153.153,0,0,0,.033-.162.681.681,0,0,0-.082-.147c0-.016-.016-.032,0-.048a.08.08,0,0,0-.016-.147.178.178,0,0,0-.13,0c0,.017-.016,0-.016,0,0-.016-.017,0-.017-.016a1.063,1.063,0,0,1-.227,0c-.032,0-.049-.032-.081-.016a.126.126,0,0,0-.082.032,1.266,1.266,0,0,1-.244-.032c.016-.016,0-.016-.016-.016a.175.175,0,0,0-.13-.033c-.032.016-.065.049-.1.049-.033.016-.065,0-.1.016-.016,0-.032.016-.049.016s-.032.017-.049.032c-.016,0,0,.016-.016.016-.016-.049-.1-.049-.13-.016-.017.016-.033.016-.049.049-.016,0-.016.032-.016.048-.016.033.016.049.016.082.014.014-.02.028-.03.052v0c-.059.021-.112.08-.082.141,0,.032.016.065,0,.081-.016.049-.1.065-.114.114a.238.238,0,0,0-.033.211.193.193,0,0,0,.044.075v0A.334.334,0,0,1,2.079-55.262Zm.739,5.21-.243,0,.012,0a.565.565,0,0,0,.179-.018c.114-.032.1-.211.066-.325-.017-.032-.049-.065-.049-.1,0-.065.032-.13.032-.178a1.114,1.114,0,0,0-.032-.228,1.705,1.705,0,0,1,.081-.633,1.64,1.64,0,0,0,.016-.487.163.163,0,0,0,.163.1c.1,0,.114-.032.146-.1a1.235,1.235,0,0,0,.016.487,1.414,1.414,0,0,1,.066.633c0,.082-.017.147-.017.228,0,.049.033.114.033.178,0,.032-.049.065-.049.1-.033.114-.049.293.065.325a.563.563,0,0,0,.178.018l.028.009C3.279-50.05,3.049-50.055,2.818-50.052ZM2.23-51.11l0,.008a.046.046,0,0,1,0,.008,1.779,1.779,0,0,0-.146.6.472.472,0,0,1,0,.076h0c.049-.064.117-.086.132-.174A.93.93,0,0,0,2.23-51.11ZM1.6-48.1l0,0Zm0,0" transform="translate(-0.144 56.381)" fill="none" stroke="#fff" stroke-width="0.1"/>
      </g>
      <path id="Path_1528" data-name="Path 1528" d="M12.6-54.079c0-.032.066-.1.049-.114-.033-.016-.082-.146-.033-.163a.5.5,0,0,0,.13-.064.216.216,0,0,1,.195-.147,4.8,4.8,0,0,1,.683,0c.146.049.212.1.212.13-.016.033.065.049.08.081a.093.093,0,0,1,.033.131c-.016.065.049.08.049.113a.126.126,0,0,1-.032.082c0,.032.016.13-.032.162a.174.174,0,0,0,.016.179c.032.032-.033.146-.049.2-.016.032-.016.146-.065.178a.212.212,0,0,0-.049.114c0,.049-.032.066-.065.081a.477.477,0,0,1-.13.13,1.76,1.76,0,0,1-.293,0c-.049-.016-.13.016-.163.016-.016.017-.13-.032-.162-.048a.958.958,0,0,0-.082-.065.634.634,0,0,1-.081-.131.44.44,0,0,0-.081-.13.2.2,0,0,1-.065-.2c.016-.13.032-.163.032-.212,0-.032-.049-.1-.065-.146A1.8,1.8,0,0,1,12.6-54.079Zm0,0" transform="translate(-10.417 54.896)" fill="none" stroke="#fff" stroke-width="0.1"/>
      <path id="Path_1529" data-name="Path 1529" d="M15.352-49.521s.049.082-.016.13a.285.285,0,0,1-.211.1c-.049,0-.244-.065-.276-.211h.016a.4.4,0,0,0,.245.13A.267.267,0,0,0,15.352-49.521Zm-.114.63a.479.479,0,0,1-.1.086,1.76,1.76,0,0,1-.293,0c-.049-.016-.13.016-.163.016-.015.015-.113-.025-.153-.045-.014-.02-.027-.043-.042-.068-.049-.049,0-.147,0-.18,0-.016.017-.114.017-.145a.06.06,0,0,1,.032-.049.12.12,0,0,1,.114.1.228.228,0,0,0,.195.163.253.253,0,0,0,.212-.163.118.118,0,0,1,.114-.1.06.06,0,0,1,.032.049c0,.032.016.13.016.145A.816.816,0,0,1,15.238-48.891Zm0,0" transform="translate(-11.966 50.711)" fill="none" stroke="#fff" stroke-width="0.1"/>
      <path id="Path_1530" data-name="Path 1530" d="M13.76-49.521s-.049.082.016.13a.287.287,0,0,0,.212.1c.049,0,.244-.065.26-.211h-.014a.368.368,0,0,1-.247.13A.246.246,0,0,1,13.76-49.521Zm0,0" transform="translate(-11.365 50.711)" fill="none" stroke="#fff" stroke-width="0.1"/>
      <path id="Path_1531" data-name="Path 1531" d="M14.245-53.1c-.049.033-.049.114-.032.2.016.064.032.1.049.178.008.033-.038.059-.083.071a.231.231,0,0,1-.065.01.369.369,0,0,1-.07-.006.164.164,0,0,1-.06-.023.2.2,0,0,1-.028-.02.041.041,0,0,1,0-.032c.016-.081.032-.114.049-.178.016-.082.016-.162-.033-.2Zm-.293.033c.016.016.032,0,.049.032Zm-.066-.053c.033,0,.088.011.1.037Zm.391,0a.242.242,0,0,0-.049.114Zm.033-.049a.1.1,0,0,0-.014.069Zm.081-.016a.06.06,0,0,1-.049.016s0,.033-.017.033Zm-.423.39c-.032.016-.049.016-.064.032Zm0-.032c-.049,0-.081.032-.114.032Zm.016-.049a.875.875,0,0,1-.114.049ZM14-52.954a.112.112,0,0,1-.1.066Zm.568-.016.081-.016s-.032-.016-.032-.032c-.017-.032-.114-.146-.2-.146a.243.243,0,0,0-.2.195Zm-.293,0s.033.033.049.016c.017,0,.033-.13.114-.13a.229.229,0,0,1,.13.114s-.016.082-.081.082a.576.576,0,0,1-.114-.016Zm-.65,0-.065-.016.032-.032c.016-.032.114-.146.2-.146a.226.226,0,0,1,.178.195Zm.309,0s-.032.033-.049.016c-.016,0-.032-.13-.114-.13a.292.292,0,0,0-.147.114.163.163,0,0,0,.163.082Zm-.13.65s-.016.016.016.032a.071.071,0,0,1,.065.049c.032.049.065.179.212.2.133,0,.169-.106.224-.2a.1.1,0,0,1,.052-.047c.081-.016,0-.032,0-.032A.394.394,0,0,1,14.1-52.5.329.329,0,0,1,13.806-52.32Zm0,0" transform="translate(-11.216 53.738)" fill="none" stroke="#fff" stroke-width="0.1"/>
      <path id="Path_1532" data-name="Path 1532" d="M13.945-50.638s-.124.08-.108.193a.246.246,0,0,0,.228.147c.146,0,.277-.179.277-.179l-.088,0a.177.177,0,0,1-.124-.062l0,0Zm.38.161s.13.179.26.179a.267.267,0,0,0,.243-.147.209.209,0,0,0-.112-.186l-.175.083,0,.005a.188.188,0,0,1-.139.063Zm0,0" transform="translate(-11.442 51.635)" fill="none" stroke="#fff" stroke-width="0.1"/>
      <path id="Path_1533" data-name="Path 1533" d="M3.642-53.652a.085.085,0,0,0,.033.065c.027.041.172.124.172.137-.016-.081.007-.211-.057-.259Zm-.564.226c.016.049.033.081.049.13a.408.408,0,0,1-.016.195.682.682,0,0,0,.146-.162c.032-.032.016-.1,0-.147Zm.489-1.4c.016.049.1.049.13.1a.338.338,0,0,1,.065.162s-.032,0-.032-.016c-.049-.032-.1-.016-.146-.032-.032-.016-.065-.048-.1-.065Zm-.407-.42c.016.032,0,.065-.032.1a.354.354,0,0,0-.049.081c-.016.016-.032.032-.016.049Zm-.2.211c.016.016.049,0,.065,0a.121.121,0,0,1,.032.081c.016,0,.032,0,.032.016Zm.472.114a.1.1,0,0,1,.016.066l-.016.048c0,.066-.032.114-.032.179,0-.1-.1-.13-.163-.179-.032-.032-.065-.065-.032-.114Zm.032-.049c.049.032.049.081.1.1s.1,0,.163.017c.032,0,.065.048.1.064a.192.192,0,0,1-.016-.13l-.016-.016Zm.016.391c0,.032.016.064.049.064a.287.287,0,0,1,.163.147s0,.016.032.032c-.066-.017-.1-.049-.163-.065H3.517a.213.213,0,0,1-.065-.049Zm-.342.52c0,.032-.016.065,0,.082.049.065.147.1.163.195v.016a.665.665,0,0,1-.016-.178c0-.032-.016-.049-.049-.082Zm-.049-.5a.06.06,0,0,0-.016.049c0,.049.049.082.065.13Zm.017.032c0,.016,0,.033.016.033a.212.212,0,0,1,.049.162c-.016.049-.082.081-.065.147a.109.109,0,0,0,.1.064l.017.018Zm0-.13a.071.071,0,0,0,0,.082c0,.016.032.016.049.048a.122.122,0,0,1,.016.081c.016.049.1.066.114.13.016.032.049.049.032.1v-.033a.285.285,0,0,0,.065-.081.076.076,0,0,0,.017-.1.126.126,0,0,0-.033-.082Zm-.082-.179v.032c.017,0,.049.033.049.033.016.065.1.081.13.13Zm-.114-.227c.016.032-.016.081.016.114.017.016.081.065.081.065s.033.016.033.033h.048Zm-.39.212c.016.081.1.1.162.114H2.655c-.032.016-.049.049-.081.081-.016.016-.016.032-.049.049.016,0,0-.032,0-.032-.016-.049-.049-.065-.032-.1l.016-.049c0-.016-.049-.032-.016-.064h.032c.016.081.1.1.162.114H2.655c-.032.016-.049.049-.081.081-.016.016-.016.032-.049.049.016,0,0-.032,0-.032-.016-.049-.049-.065-.032-.1,0-.016.032-.049.016-.049,0-.016-.049-.032-.016-.064Zm-.049.829s.032-.08.065-.08a.651.651,0,0,1,.049.145A.444.444,0,0,1,2.477-54.027Zm.1.1a.569.569,0,0,0,.1-.048c.016-.017.016-.065.049-.082a.248.248,0,0,0,.114-.048c0-.033-.033-.018-.033-.049s0-.114-.032-.13c-.016-.016-.082.032-.114.066a.56.56,0,0,0-.146.13l-.016.1Zm2.715-.292v0Zm-.032.032c0,.017-.017.032-.017.064Zm-.065.032a.062.062,0,0,1-.016.049Zm-.049,0c-.017.016-.017.049-.033.065Zm-.082.016a.06.06,0,0,1-.016.049Zm-.049-.049A.15.15,0,0,1,5-54.108Zm-.081.032v0Zm-.049,0c0,.016.016.032.016.049Zm-.049.016v0Zm-.066,0a.06.06,0,0,0,.016.049Zm-.049-.016v0Zm-.065-.032a.15.15,0,0,0,.016.082Zm-.065-.066c0,.033-.017.082.016.1Zm.937-.093s.016.032,0,.032a.122.122,0,0,0,0,.146Zm-1.262-.184c-.017.065.032.1.049.147,0,.032,0,.081-.032.1Zm-.115-.01v.017c.017.032,0,.064.017.1s.054.057.051.087-.05.078-.02.108c-.033-.033-.042-.074-.065-.1,0,.025-.016.029-.025.051a.149.149,0,0,0-.007.064s-.016.032-.032.032Zm.051-.2a.232.232,0,0,1-.032.114v.049Zm-.066-.4c0,.032-.016.049-.032.081-.016.049.032.114.016.178Zm1.3.471c.017.016.049.016.049.032H5.468Zm-.016.032.033.032Zm-.032.049c.016.017.032.017.049.049Zm-.032.017c.032.032.049.048.049.081Zm-.024.055a.089.089,0,0,1,.049.081.036.036,0,0,0,.016.049Zm-.724-.04c0,.016-.033.032-.016.066Zm-.082,0c0,.016-.016.049-.016.066a.182.182,0,0,1,.016.13ZM4.467-54.6v.048c-.032.049-.016.082,0,.13Zm-.089-.073c.016.049-.033.081,0,.13Zm-.163-.407v.066c.016.081.082.13.1.211,0,.066,0,.147-.066.179Zm.068.8c-.049.032-.027.1-.084.132Zm.631-.421a.05.05,0,0,1,.032.016Zm-.016.016s.032,0,.032.016Zm-.016.016s.032.016.032.032Zm-.016.032a.05.05,0,0,1,.032.016Zm-.017.016.033.032Zm-.032.016s.017.016.032.033Zm-.032.016s.032.017.032.032Zm-.032.017s.032.016.032.032Zm-.032.016s.032.016.032.032Zm-.049,0,.049.032Zm.26-.162a.29.29,0,0,1,0,.211ZM4.476-55.8c-.017.049.016.065.016.1-.016.033-.032.049-.016.082Zm.065-.016a.332.332,0,0,1,0,.16Zm.406,0a.322.322,0,0,1-.045.147Zm-.081-.017c-.017.048,0,.127-.028.17Zm-.049-.016c-.016.064-.025.154-.073.187Zm-.1-.016v.08a.434.434,0,0,1-.065.125Zm.323.2c-.032,0-.03-.035-.03-.051Zm.058,0c-.019-.014-.024-.051-.056-.084Zm.025-.166a.124.124,0,0,0-.016.065c0,.049,0,0,.049.1Zm.1.032-.032.016c-.016.049,0,.066,0,.066l.016.049Zm.162.032c-.016.017-.049.032-.065.049a.194.194,0,0,0,.036.1Zm.2-.081.016-.016s.025-.043.065-.026ZM5.6-55.6H5.581c-.016-.016-.016-.032-.033-.032a.128.128,0,0,1-.016-.066v-.032a.059.059,0,0,1,.032.017c0,.016-.017.016-.017.016Zm-.1.016c.017-.016.033.016.033.016,0,.049.065.049.065.082Zm-1.3.041c.024-.023.085-.052.084-.09,0,.032.016.065.016.1-.016.049-.066.049-.082.1a.144.144,0,0,0,.016.114ZM5.337-55.8a.062.062,0,0,0-.063.034c-.019.036-.065.085,0,.119Zm-.293-.049c-.032.049-.049.1-.081.146a.041.041,0,0,0-.005.041Zm-.406.016a.549.549,0,0,1-.047.176Zm.991.1c-.032,0-.049-.016-.082-.032-.049-.017-.08.049-.08.082Zm-1.239-.124a.106.106,0,0,1,0,.091Zm-.11.108v-.017H4.3c.016,0,.016.032.016.049-.032.016-.061.054-.093.036Zm.65.926a.258.258,0,0,0,.212-.065c.049-.049,0-.13,0-.13a.2.2,0,0,1-.212.13.188.188,0,0,1-.195-.13s-.049.081,0,.13A.238.238,0,0,0,4.931-54.824Zm0,0" transform="translate(-2.048 55.982)" fill="none" stroke="#fff" stroke-width="0.1"/>
      <path id="Path_1534" data-name="Path 1534" d="M7.649-34.281a.2.2,0,0,0,.105.185m-.022-.191c.016.049,0,.1.016.147a.066.066,0,0,0,.033.066c-.049-.033-.1-.033-.147-.066-.032-.016-.032-.065-.065-.1" transform="translate(-6.261 38.112)" fill="none" stroke="#fff" stroke-width="0.1"/>
      <path id="Path_1535" data-name="Path 1535" d="M8.753-35.646a.48.48,0,0,0,.034.159.854.854,0,0,0,.059.117m-.172-.264c-.012.089.074.274.207.276-.055-.074.014-.207-.047-.3" transform="translate(-7.173 39.246)" fill="none" stroke="#fff" stroke-width="0.1"/>
      <path id="Path_1536" data-name="Path 1536" d="M2.163-52.143H2.18a.308.308,0,0,0,.162.082M2-52.175c.049,0,.065.065.1.081m-.422-.146a.031.031,0,0,1,.016-.049v-.049m-.114.114c-.032-.032.016-.065.016-.114m.309.26a.05.05,0,0,1-.016.032c-.016.032,0,.065,0,.1l-.016.016m-.5-.016c-.016-.049.049-.081.066-.13m-.13.146a.124.124,0,0,1,.033-.081.213.213,0,0,1,.049-.065m-.147.13c.016-.032.016-.065.049-.065m.212.293a.159.159,0,0,1,.017-.049c0-.032.032-.032.032-.065m-.1.1c0-.032.016-.049.032-.081m-.1.114c0-.049.032-.065.049-.114m-.13.13a.453.453,0,0,1,.082-.1M1.2-51.67a.274.274,0,0,1,.065-.08v-.033m-.27.4c.032-.033.082-.049.114-.1m-.293.1v.032c0,.03-.044.061-.072.061m.17.036c-.016,0-.074.072-.074.088m.2-.1c-.1.1-.147.147-.147.179m-.032-.309c0-.032.032-.032.049-.049a1.242,1.242,0,0,0,.147-.13.1.1,0,0,0,.032-.114m.276.781a.308.308,0,0,1,.13-.049m-.049-.292c.016,0,.016.032.016.032.049.032.114.032.1.1,0,.017-.016.032-.032.049a.7.7,0,0,1-.195.033c-.016.016-.049.032-.066.048M1.5-49.882c-.032.032-.089.033-.105.1M1.757-51.9c.016.016,0,.049,0,.049s-.032.017-.032.033a.03.03,0,0,0,0,.049" transform="translate(-0.614 53.04)" fill="none" stroke="#fff" stroke-width="0.1"/>
      <path id="Path_1537" data-name="Path 1537" d="M7.654-42.787c.007.022,0,.036,0,.073a.055.055,0,0,1,0,.036c.008.047-.013.158-.014.268a.379.379,0,0,1-.141-.118.2.2,0,0,1-.006-.124m.078-.008c.018.056-.023.187.059.23" transform="translate(-6.187 45.142)" fill="none" stroke="#fff" stroke-width="0.1"/>
      <path id="Path_1538" data-name="Path 1538" d="M9.094-41.936a1.027,1.027,0,0,0,.091.266m-.162-.259a.176.176,0,0,0,.032.13,1.47,1.47,0,0,0,.13.146c.032-.065.065-.114.032-.163-.016-.065-.049-.113-.065-.162" transform="translate(-7.462 44.473)" fill="none" stroke="#fff" stroke-width="0.1"/>
      <path id="Path_1539" data-name="Path 1539" d="M7.968-45.061c-.049.124.041.189.052.31m.024-.313a.754.754,0,0,0,.016.159c0,.058-.048.108-.032.165a.33.33,0,0,1-.148-.229l-.006-.069" transform="translate(-6.513 47.025)" fill="none" stroke="#fff" stroke-width="0.1"/>
      <path id="Path_1540" data-name="Path 1540" d="M4.427-50.306c.082.049.088.136.137.218l.03.041m-1.25.365c.017-.016.033-.032.049-.032s.049.016.049.032c.016.016,0,.033.016.049m-.325.082a.215.215,0,0,1,.032-.049.434.434,0,0,1,.13-.114l.13-.065c.016,0,.049-.016.066-.016m.23.968c0,.053.014.108.012.156a.449.449,0,0,1-.059.162m.027-.653a.457.457,0,0,0-.016.212m.147.065a.151.151,0,0,1-.064-.08c-.017-.049.032-.115.016-.164-.016-.016-.016-.032-.032-.065m.039-.38c.049,0,.065.049.049.1m.48.141a.378.378,0,0,1,.033.146c0,.017.016.017.016.033m-.1-.3c-.016-.032-.016-.081-.032-.114m.148-.312c.016.032.063.084.079.117.016.016.032.032.049.032m-.13-.308c.049,0,.112.019.128.052m-.681,2.679c-.049.032-.032.082-.049.114l-.023.041M3.636-47.6a.242.242,0,0,0-.048.114m-.067-.362c-.033.049-.015.142-.031.191m-.03-.4a.25.25,0,0,0-.068.147m1.025.187a.2.2,0,0,0-.063.047m.089.028a.51.51,0,0,0-.091.059m.1.007a.778.778,0,0,0-.1.074m.13.009c-.016.032-.074.039-.106.072m-.324,1.452c-.016.033-.058.069-.074.1m.087-.321a1.168,1.168,0,0,1-.088.145m.073-.283a1.631,1.631,0,0,0-.091.171m.066-.32c-.016.048-.073.117-.089.166m.057-.281a.719.719,0,0,0-.076.187m.043-.285a.284.284,0,0,0-.066.163m.016-.358a1.111,1.111,0,0,0-.054.13m.412.715a1.219,1.219,0,0,1-.163.146m.179-.292a.016.016,0,0,0-.016.016.5.5,0,0,0-.13.13m.163-.276a.452.452,0,0,0-.114.13m.082-.244c-.066.049-.1.13-.147.178m.163-.291c-.082.032-.13.13-.179.195m.163-.309c-.049.049-.066.114-.13.146m.114-.276a.55.55,0,0,0-.1.162l-.032.017m.114-.277a.709.709,0,0,0-.13.179m.1-.309a.873.873,0,0,0-.146.195m.1-.243a.412.412,0,0,0-.146.145m.13-.21a.376.376,0,0,0-.178.178m.1-.227-.1.1m.7.894a1.81,1.81,0,0,0-.179.146c-.032.016-.049.049-.081.066m.231-.341a1.438,1.438,0,0,1-.117.128.213.213,0,0,0-.049.065m.147-.342c-.016.1-.1.115-.147.164m.147-.212a.564.564,0,0,0-.13.081.332.332,0,0,1-.081.049m.179-.276a1.471,1.471,0,0,0-.163.162m.134-.275c-.032.039-.075.07-.118.113m.114-.228c-.032.032-.081.065-.13.114m.114-.26a.419.419,0,0,0-.082.1m.066-.212c-.017,0-.033.033-.049.049-.049.033-.065.1-.114.13m.16-.317a1.292,1.292,0,0,0-.144.138m.13-.26-.1.1a.224.224,0,0,0-.049.065m-.406.44c-.017.065-.056.1-.072.161M3.75-47.5c-.016.032-.049.066-.066.1s0,.065-.016.1m.536-1.235a.3.3,0,0,1,.1.143m-.785.039c-.049.032-.114.065-.13.113M3.8-50.008a.05.05,0,0,1,.016.032c.016.032-.016.065.016.081.016.032.049.032.049.082m.455.13H4.4c.032.033.032.065.049.1s.052.051.069.068m-.118.079a.022.022,0,0,0,0,.032.37.37,0,0,1,.092.137m-.222.218a1.189,1.189,0,0,1,.109.215m-.174.373s-.016.032,0,.049c.033.065.114.1.1.179m-.211-1.887.032.017c.065.032.146.08.162.145" transform="translate(-2.591 51.36)" fill="none" stroke="#fff" stroke-width="0.1"/>
      <path id="Path_1541" data-name="Path 1541" d="M5.945-38.9c.049.065-.033.113-.066.162a.208.208,0,0,0-.016.1c-.016-.081-.081-.13-.1-.212a.477.477,0,0,1,.065-.2m.063.064a.6.6,0,0,0-.051.185.276.276,0,0,0,.016.114" transform="translate(-4.768 42.05)" fill="none" stroke="#fff" stroke-width="0.1"/>
      <path id="Path_1542" data-name="Path 1542" d="M9.043-38.271a.37.37,0,0,0,.049.081c.066.049.079.093.128.127" transform="translate(-7.479 41.407)" fill="none" stroke="#fff" stroke-width="0.1"/>
      <path id="Path_1543" data-name="Path 1543" d="M6.283-36.49a.283.283,0,0,1,.023.274.2.2,0,0,0-.081-.082.114.114,0,0,1-.078-.111m.074-.024c.006.051.074.126.084.168,0,0,.016.032,0,.032" transform="translate(-5.083 39.934)" fill="none" stroke="#fff" stroke-width="0.1"/>
      <path id="Path_1544" data-name="Path 1544" d="M2.748-49.423s-.049.065,0,.114Zm0,0" transform="translate(-2.255 50.63)" fill="none" stroke="#fff" stroke-width="0.1"/>
      <path id="Path_1545" data-name="Path 1545" d="M3.33-49.342a.559.559,0,0,1-.1-.026l.068.045Zm0,0" transform="translate(-2.672 50.585)" fill="none" stroke="#fff" stroke-width="0.1"/>
      <path id="Path_1546" data-name="Path 1546" d="M23.424-51.675c-.016.049-.1.049-.147.1a.642.642,0,0,0-.048.162s.032,0,.032-.016c.032-.032.1-.016.146-.032.033-.016.049-.049.1-.065m.308-.617a.108.108,0,0,0,.016.1.163.163,0,0,1,.066.081c.016.016.032.032.016.049m.1-.016c-.017.016-.049,0-.066,0a.124.124,0,0,0-.032.081.062.062,0,0,0-.049.016m-.325.016c-.016.016-.032.049-.016.066l.016.048a.691.691,0,0,0,.033.179c0-.1.1-.13.163-.179.032-.032.064-.065.032-.114m-.26-.049c-.049.032-.049.081-.1.1s-.1,0-.162.017c-.032,0-.065.048-.1.064a.191.191,0,0,0,.016-.13v-.016m.325.358c0,.032-.016.064-.048.064a.286.286,0,0,0-.164.147l-.032.032a1.524,1.524,0,0,1,.162-.065h.049a.217.217,0,0,0,.066-.049m.308.391c0,.032.017.065,0,.082-.048.065-.146.1-.162.195v.016a.665.665,0,0,1,.016-.178c0-.032.016-.049.049-.082m.142-.562a.161.161,0,0,1,.026.1c-.024.072-.082.116-.1.165m-.07.123-.017.034a.021.021,0,0,1,0,.032c-.016.033-.032.033-.049.049l-.016.016m.137-.355a.161.161,0,0,0,.009.095c.016.049.082.081.065.147a.108.108,0,0,1-.1.064l-.016.018m.113-.553a.071.071,0,0,1,0,.082c-.016.016-.032.016-.049.048a.122.122,0,0,0-.016.081c-.016.049-.1.066-.114.13-.016.032-.049.049-.032.1v-.033a.285.285,0,0,1-.065-.081.119.119,0,0,1-.032-.1.361.361,0,0,1,.049-.082m.341-.325v.032c-.016,0-.049.033-.049.033-.016.065-.1.081-.13.13m.293-.422c-.016.032,0,.081-.016.114-.017.016-.082.065-.082.065a.219.219,0,0,0-.049.033H23.88" transform="translate(-19.144 52.882)" fill="none" stroke="#fff" stroke-width="0.1"/>
      <path id="Path_1547" data-name="Path 1547" d="M24.207-46.814l-.03.013a.282.282,0,0,1-.156.048c-.03.012-.068.045-.1.058.024-.028.068-.046.087-.089s.044-.107.082-.14" transform="translate(-19.783 48.563)" fill="none" stroke="#fff" stroke-width="0.1"/>
      <path id="Path_1548" data-name="Path 1548" d="M23.415-42.12c.006.048-.061.229-.055.276m.121-.263c.018.125-.052.182-.137.288-.016-.153-.07-.227.013-.324" transform="translate(-19.279 44.609)" fill="none" stroke="#fff" stroke-width="0.1"/>
      <g id="Group_279" data-name="Group 279" transform="translate(3.806 0.865)" clip-path="url(#clip-path-2)">
        <path id="Path_1549" data-name="Path 1549" d="M25.011-49.282c-.032-.033-.081-.049-.114-.1m.293.1v.032c0,.017-.016.017.016.032a.062.062,0,0,0,.049.016m-.153.058c.016,0,.065.065.065.081m-.2-.107c.1.1.146.147.146.179m.033-.309c0-.032-.033-.032-.049-.049a1.2,1.2,0,0,1-.147-.13.111.111,0,0,1-.036-.119m-.272.786c-.049-.017-.082-.049-.13-.049m.048-.292c-.016,0-.016.032-.016.032-.049.032-.114.032-.1.1,0,.017.016.032.033.049a.692.692,0,0,0,.195.033c.016.016.049.032.049.048m-.471-.91c-.017.016,0,.049,0,.049s.032.017.032.033a.03.03,0,0,1,0,.049M24.2-47.191c-.049.016-.065.066-.081.114,0,.032.016.065.016.1m-.237-.262a.2.2,0,0,1-.055.106.109.109,0,0,1-.13.048c.064-.057,0-.067.049-.243m.536-.114v.065a.17.17,0,0,0,.017.13.188.188,0,0,1,.081-.081.094.094,0,0,0,.06-.046m-.177-.387c-.048.065.051.14.084.189a.208.208,0,0,1,.016.1c.016-.081.081-.13.1-.211a.154.154,0,0,0-.033-.114c-.032-.032-.016-.048-.032-.081" transform="translate(-23.415 50.079)" fill="none" stroke="#fff" stroke-width="0.1"/>
      </g>
      <path id="Path_1551" data-name="Path 1551" d="M29.138-49.076a.411.411,0,0,0-.064-.109" transform="translate(-24.044 50.433)" fill="none" stroke="#fff" stroke-width="0.1"/>
      <path id="Path_1552" data-name="Path 1552" d="M28.737-49.185c0-.049-.032-.066-.049-.114" transform="translate(-23.724 50.527)" fill="none" stroke="#fff" stroke-width="0.1"/>
      <path id="Path_1553" data-name="Path 1553" d="M28.445-49.114c0-.032-.026-.052-.039-.087" transform="translate(-23.492 50.446)" fill="none" stroke="#fff" stroke-width="0.1"/>
      <path id="Path_1554" data-name="Path 1554" d="M23.608-52.143h-.016c-.065.033-.1.082-.162.082m.341-.114c-.049,0-.065.065-.1.081m.422-.146a.031.031,0,0,0-.016-.049v-.049m.114.114c.016-.032-.016-.065-.016-.114m-.309.26v.032c.032.032.016.065.016.1l.016.016m.5,0c.016-.049-.041-.1-.058-.147m.13.146a.277.277,0,0,0-.077-.156m-.145.395c0-.062-.032-.075-.032-.114" transform="translate(-19.376 53.04)" fill="none" stroke="#fff" stroke-width="0.1"/>
      <path id="Path_1555" data-name="Path 1555" d="M24.551-44.013c-.089.08-.032.108-.078.262.126-.034.164-.109.189-.235m-.07.025c-.028.072-.039.176-.1.192" transform="translate(-20.239 46.156)" fill="none" stroke="#fff" stroke-width="0.1"/>
      <path id="Path_1556" data-name="Path 1556" d="M24.843-41.99c-.032.032.007.067-.009.1a.361.361,0,0,0-.055.078.111.111,0,0,0,0,.123c.041-.04.084-.066.125-.107.066-.032.049-.1.1-.146m-.079-.018a.457.457,0,0,1-.1.157c-.024.03-.01.072-.043.089" transform="translate(-20.477 44.483)" fill="none" stroke="#fff" stroke-width="0.1"/>
      <path id="Path_1557" data-name="Path 1557" d="M23.285-47.24c.032.032.126.068.144.114m-.193-.389a.06.06,0,0,0,.016.033.552.552,0,0,1,.17.168m-.184-.328a.492.492,0,0,1,.1.065c.016.016.032.049.049.065m-.209-.3s.088.064.1.08m-.264-1.158L23-48.857c-.016.032,0,.065-.016.081-.016.032-.049.032-.049.082m-.455.13h-.065c-.033.033-.033.065-.049.1s-.049.049-.065.066m.116.132a.292.292,0,0,0-.1.144m.423-.829a.057.057,0,0,0-.033.016c-.065.032-.146.081-.162.146" transform="translate(-18.443 50.243)" fill="none" stroke="#fff" stroke-width="0.1"/>
      <path id="Path_1558" data-name="Path 1558" d="M24.44-36.783c-.049.066-.114.114-.179.2.005-.055-.009-.185.024-.234m.066-.012c.007.079-.052.1-.061.206m-.19.293c-.016.016-.049.032-.065.065s0,.1-.016.146a.122.122,0,0,1-.033.065c.049-.032.1-.032.147-.065.032-.016.032-.066.066-.1l.065-.065m-.09-.03a.13.13,0,0,0-.043.076.2.2,0,0,1-.112.149" transform="translate(-19.835 40.219)" fill="none" stroke="#fff" stroke-width="0.1"/>
      <path id="Path_1559" data-name="Path 1559" d="M21.863-48.769l-.032.017c0,.065,0,.146-.081.146m.049-.243a.213.213,0,0,0-.033.145c0,.017-.016.017-.032.032m.12-.3a.2.2,0,0,0-.167.083l-.033.016m.13-.486c-.017,0-.017.016-.032.032,0,.032-.032.032-.049.049a.223.223,0,0,0-.049.082c-.016.016-.032.032-.049.032m.13-.308a.126.126,0,0,0-.114.049l-.016.033v.016a.882.882,0,0,0-.065.1m.439-.341c-.016.016-.032.033-.049.033-.032.016-.065,0-.1.016-.032,0-.032.049-.066.065m.525,2.711c.054.036.039.137.092.191m.082-.43c.033.032.072.065.072.114m-.822-.3a.544.544,0,0,1,.093.056m-.125.032c.017.032.066.032.1.065m-.126.051c.02.022.063.027.092.057m-.109.026c.032.05.082.05.114.1m.308,1.366c.016.033.059.066.076.1m-.073-.273a.714.714,0,0,0,.081.136m-.068-.307c.016.049.074.1.091.159m-.074-.256c.017.048.072.1.088.152m-.055-.267a.519.519,0,0,1,.077.166m-.045-.263c.03.046.071.155.071.135m-.039-.33a.27.27,0,0,1,.071.114m-.412.731a1.216,1.216,0,0,0,.162.146m-.162-.276a.494.494,0,0,1,.13.13m-.162-.276a.44.44,0,0,1,.114.13m-.081-.244c.065.049.1.13.146.178m-.178-.291c.1.032.146.13.195.195m-.162-.309c.049.049.065.114.13.146m-.114-.276a.548.548,0,0,1,.1.162l.032.017m-.114-.277a.709.709,0,0,1,.13.179m-.114-.309a.612.612,0,0,1,.162.195m-.1-.243a.419.419,0,0,1,.147.145m-.13-.21a.466.466,0,0,1,.179.178m-.1-.227.1.1m-.7.894c.065.049.113.1.178.146a.383.383,0,0,0,.082.066m-.245-.359a1.06,1.06,0,0,0,.13.147.224.224,0,0,1,.049.065m-.147-.342c.017.1.1.115.147.164m-.114-.357a1.469,1.469,0,0,1,.162.162m-.136-.278a1.655,1.655,0,0,0,.12.116m-.114-.228a.7.7,0,0,1,.114.114m-.1-.26a.432.432,0,0,1,.081.1m-.065-.212c.016,0,.032.033.049.049.049.033.066.1.114.13m-.162-.292a.959.959,0,0,1,.147.113m-.13-.26.1.1a.224.224,0,0,1,.048.065m.407.44a1.155,1.155,0,0,0,.072.149M22.23-46.5c.01.026.02.05.031.08a.16.16,0,0,1,.02.082m.314-1.022a.29.29,0,0,1,.04.255m.016-.4a.3.3,0,0,1,.084.115m-.756.223c-.016.032-.02.166-.119.234" transform="translate(-17.745 50.789)" fill="none" stroke="#fff" stroke-width="0.1"/>
      <path id="Path_1560" data-name="Path 1560" d="M25.5-46.107c.007.042-.043.1-.076.134" transform="translate(-21.024 47.888)" fill="none" stroke="#fff" stroke-width="0.1"/>
      <path id="Path_1561" data-name="Path 1561" d="M26.493-43.252a.244.244,0,0,0-.016.212" transform="translate(-21.883 45.526)" fill="none" stroke="#fff" stroke-width="0.1"/>
      <path id="Path_1562" data-name="Path 1562" d="M26.463-41.107c-.016.049-.032.081-.049.13a.4.4,0,0,0,.016.195.714.714,0,0,1-.146-.163c-.032-.032-.017-.1,0-.146m.072.014a.27.27,0,0,0-.007.116.516.516,0,0,1,.055.143" transform="translate(-21.722 43.753)" fill="none" stroke="#fff" stroke-width="0.1"/>
      <path id="Path_1563" data-name="Path 1563" d="M28.408-47.027a.848.848,0,0,0-.389-.22" transform="translate(-23.172 48.831)" fill="none" stroke="#fff" stroke-width="0.1"/>
      <path id="Path_1564" data-name="Path 1564" d="M22.771-47.6c-.016.033-.016.049-.033.049a.084.084,0,0,0-.048.114.509.509,0,0,1,.057.09m.073-.546a.586.586,0,0,0-.061.126s-.017.033,0,.033m0-.589c.032.082.084.1.1.2a.274.274,0,0,1-.016.113M22.661-49.8l-.033.032a.1.1,0,0,0,0,.1m-.618-.7c-.1.049-.1.146-.146.228,0,.016-.016.016-.032.032" transform="translate(-18.055 51.409)" fill="none" stroke="#fff" stroke-width="0.1"/>
      <path id="Path_1565" data-name="Path 1565" d="M15.157-41.309a.33.33,0,0,1,.1-.114.8.8,0,0,0,.072-.051m.1,0a.263.263,0,0,1-.2.13.25.25,0,0,0-.1.082c.016-.082,0-.179.082-.212" transform="translate(-12.515 44.056)" fill="none" stroke="#fff" stroke-width="0.1"/>
      <path id="Path_1566" data-name="Path 1566" d="M14.98-38.47a2,2,0,0,0-.168.292m.053-.277a.3.3,0,0,0-.081.131c-.011.051.019.109.016.167.058-.053.23-.154.22-.248" transform="translate(-12.225 41.572)" fill="none" stroke="#fff" stroke-width="0.1"/>
      <path id="Path_1567" data-name="Path 1567" d="M11.512-44.041c.047-.056.1-.094.155-.165m-.084-.061a1.86,1.86,0,0,0-.087.238c.024-.018.156.047.212-.092m.349,1.837c.005-.016.136-.1.162-.183m-.051-.046c-.078.078-.093.191-.163.261.082-.033.163-.066.228-.1a.124.124,0,0,0,.048-.147" transform="translate(-9.507 46.366)" fill="none" stroke="#fff" stroke-width="0.1"/>
      <path id="Path_1568" data-name="Path 1568" d="M13.135-33.93a.323.323,0,0,1,.094-.2m-.064-.056c-.105.1-.027.237-.059.312a1.9,1.9,0,0,1,.191-.212" transform="translate(-10.838 38.028)" fill="none" stroke="#fff" stroke-width="0.1"/>
      <path id="Path_1569" data-name="Path 1569" d="M18.317-43.674c.046.024.051.09.1.1M18.3-43.76a.08.08,0,0,1,.059.043c.04.055.043.139.117.184a.462.462,0,0,0-.125-.038c-.045-.024-.051-.091-.112-.118m-.061-.328c.027.028.091.172.165.194m-.124-.264c.1.055.1.163.12.218.01.034.022.053.055.06-.1,0-.262.022-.273-.151m.026,1.138c.076.052.053.094.1.157l.065.09m-.132-.306a.511.511,0,0,1,.144.314.274.274,0,0,1-.205-.175m.092.342a.68.68,0,0,1,.13.193m-.211-.193c.011.164.152.132.215.226a.411.411,0,0,0-.1-.336m-.258-.875c.031.075.175.125.175.212m-.132-.267a.334.334,0,0,1,.13.325c0-.081-.1-.108-.142-.151m-.06.943c.022.041.064.157.085.2m-.159-.187a.277.277,0,0,0,.18.2c-.049-.081.016-.2-.065-.26m-.4-1.366c.049.016.065.06.1.076s.065.016.1.033a.236.236,0,0,1,.115.137m-.3-.166c.063.126.1.081.194.128a.472.472,0,0,1,.125.063c-.032-.064,0-.114-.016-.162-.032-.1-.114-.1-.178-.13-.016,0-.016-.033-.032-.033" transform="translate(-14.556 46.218)" fill="none" stroke="#fff" stroke-width="0.1"/>
      <path id="Path_1570" data-name="Path 1570" d="M13.12-40.148a.545.545,0,0,1-.163-.26m-.471,1.447.081.082m.145,1.013.146.2M12.7-38.1l.147.227m-.154-.461.212.293m-.187-.5.227.357m-.214-.574.254.361m-.2-.51.227.243m-.084-.372.1.1m-.728.811.276.293m-.339-.583.289.274m-.3-.5.3.288m-.26-.408.244.2m-.114-.308.114.1M11.43-37.9l-.118.186m.139-.378-.15.2m.12-.355-.179.243m.22-.513-.221.37m.189-.582-.224.4m.152-.556-.2.342m.137-.463-.162.2m.082-.3-.1.1m.471,1.29.244-.243M11.608-38l.3-.3m.032-.244-.288.264m.287-.442-.271.232m.2-.358-.228.178" transform="translate(-9.197 43.175)" fill="none" stroke="#fff" stroke-width="0.1"/>
      <path id="Path_1571" data-name="Path 1571" d="M10.976-41.771a1.087,1.087,0,0,0-.051.245m-.014-.261c-.066.049-.032.13-.016.195a.218.218,0,0,1,.016.1c.016-.049.082-.066.114-.114a.06.06,0,0,0,.016-.049m.455-.712a.445.445,0,0,0-.244.168m.249-.245c-.081.049-.162.049-.227.114-.028.027-.026.131-.032.162a2.094,2.094,0,0,1,.271-.146m-.2-.372c-.056,0-.091.172-.13.212l-.017.016c.109-.087.269-.032.342-.178m-.065-.066a2.767,2.767,0,0,0-.228.212m-.287.617a1.026,1.026,0,0,0,.166-.236m-.074-.06a.186.186,0,0,0-.064.1.9.9,0,0,1-.032.2c.133-.066.216-.059.276-.244m-.14-.3a1.742,1.742,0,0,0-.12.155m.08-.232a.275.275,0,0,0-.093.245.809.809,0,0,0,.255-.136" transform="translate(-8.991 45.074)" fill="none" stroke="#fff" stroke-width="0.1"/>
      <path id="Path_1572" data-name="Path 1572" d="M12.368-37.5a1.632,1.632,0,0,1,.134-.2m0-.116a.241.241,0,0,0-.136.168,1.061,1.061,0,0,1-.021.2.664.664,0,0,1,.159-.139.168.168,0,0,0,.076-.143l0,.016" transform="translate(-10.208 41.029)" fill="none" stroke="#fff" stroke-width="0.1"/>
      <path id="Path_1573" data-name="Path 1573" d="M17.357-43.1c.026.057.12.1.137.147m-.235-.155c.028.114.191.114.239.179a.273.273,0,0,0-.053-.219m-.479.491c.061.061.1.15.166.214m-.187-.343a.361.361,0,0,1,.165.2c.012.059.006.127.062.172a1.77,1.77,0,0,1-.26-.162.088.088,0,0,1-.032-.065" transform="translate(-13.959 45.439)" fill="none" stroke="#fff" stroke-width="0.1"/>
      <path id="Path_1574" data-name="Path 1574" d="M21.713-44.952a.345.345,0,0,1,.149.241m-.2-.914a.686.686,0,0,0,.1.114m-.1-.212a.035.035,0,0,1,.033.032c.016.032.065.049.081.1m-.114-.195c.033,0,.033.049.049.065m-.065-.13c.032.016.032.049.049.065" transform="translate(-17.9 47.678)" fill="none" stroke="#fff" stroke-width="0.1"/>
      <path id="Path_1575" data-name="Path 1575" d="M19.766-41.86a.207.207,0,0,0,.078.153.523.523,0,0,0,.1.045.705.705,0,0,1,.1.069,1.226,1.226,0,0,0-.123-.284m-.066.049c.016.1.114.114.163.195m-.011.469c.051.105.155.105.212.189a.371.371,0,0,0-.076-.313m-.105-.027c.074.047.059.1.095.17a.382.382,0,0,0,.091.133" transform="translate(-16.346 44.389)" fill="none" stroke="#fff" stroke-width="0.1"/>
      <path id="Path_1576" data-name="Path 1576" d="M17.064-38.629a.128.128,0,0,0,0,.1c.026.05.153.125.2.181a.94.94,0,0,0-.02-.209.137.137,0,0,0-.053-.1m-.047.078c.025.039.086.151.11.19" transform="translate(-14.105 41.731)" fill="none" stroke="#fff" stroke-width="0.1"/>
      <path id="Path_1577" data-name="Path 1577" d="M16.921-36.536a1.358,1.358,0,0,1,.142.253m-.215-.276a.188.188,0,0,0,.065.162.7.7,0,0,1,.163.147c-.016-.081.016-.162-.016-.244-.016-.048-.071-.064-.1-.1" transform="translate(-13.933 40.018)" fill="none" stroke="#fff" stroke-width="0.1"/>
      <path id="Path_1578" data-name="Path 1578" d="M13.61-36.336c-.065.033-.105.107-.152.15m.128-.249a.436.436,0,0,0-.1.126.623.623,0,0,0-.049.147,1.186,1.186,0,0,0,.2-.114" transform="translate(-11.116 39.889)" fill="none" stroke="#fff" stroke-width="0.1"/>
      <path id="Path_1579" data-name="Path 1579" d="M15.183-36.009c.043-.038.019-.1.026-.128s.049-.06.063-.1m-.043-.047c-.2.109-.076.136-.046.3.064-.093.151-.051.128-.2" transform="translate(-12.502 39.76)" fill="none" stroke="#fff" stroke-width="0.1"/>
      <path id="Path_1580" data-name="Path 1580" d="M15.614-35.99c.049.016.049.032.081.066m-1.3.657c-.032-.017-.048-.05-.081-.05a.2.2,0,0,0-.1,0m.6-.005c.016.016.016.049.049.049m-.18-.065a2.014,2.014,0,0,0,.111.2m-.207-.2a.387.387,0,0,0,.133.268" transform="translate(-11.756 39.521)" fill="none" stroke="#fff" stroke-width="0.1"/>
      <path id="Path_1581" data-name="Path 1581" d="M17.288-34.3a1.372,1.372,0,0,0,.107.218m-.207-.229a.435.435,0,0,0,.227.257c-.057-.086.047-.212-.055-.314" transform="translate(-14.214 38.183)" fill="none" stroke="#fff" stroke-width="0.1"/>
      <path id="Path_1582" data-name="Path 1582" d="M12.924-55.562c0-.016.016-.016.032-.016m-.049-.032c.016-.016.032-.016.065-.016h-.016m-.032.276c.016.032.049.066.032.082-.032.032-.032.065-.049.1m.1.212c.032.032,0,.065,0,.114m-.049-.081a.183.183,0,0,1-.049.178m.087.07v.032c.016.033,0,.049,0,.081.016.049.032.1.048.163m-.191.6c0-.032.032-.081,0-.114a.167.167,0,0,1,.1.082m-.084-.508c.016.049-.016.114.032.162.016.033.049.049.082.082a.061.061,0,0,1,.016.049m-.331.115a.547.547,0,0,1-.016.162c-.032.065-.066.114-.049.179m-.293-.212c.032.016.016.082.032.1a.294.294,0,0,1,.049.2l-.016.017m-.306-.2a.23.23,0,0,1,.049.147m-.38-.434v.081c.049.1.163.179.163.293m-.4-.285a.175.175,0,0,1,.052.124m-.154-.8c.03.045-.041.1-.077.128m-.037-.332a.315.315,0,0,1,.07.17m0-.374a.134.134,0,0,0-.049.13.224.224,0,0,0,.049.065m1.528.211a.173.173,0,0,1-.016-.081c.016-.049.049-.065.081-.1a.277.277,0,0,1,.066-.081.123.123,0,0,0,.032-.065m-.13-.228a.056.056,0,0,0,.016-.032.452.452,0,0,0,.082-.147m-1.35,1.2c0,.049-.016.1,0,.13.016.082.016.114.032.178l-.016.049m.242-.134a.336.336,0,0,1,.043.329m.251-.243c-.032.016-.016.049-.016.066.032.065.114.114.1.195a.064.064,0,0,1-.065.071m.221-.389c.032.066.007.139.023.2a.4.4,0,0,0,.065.114m.162-.1c0-.074.066-.135.066-.193l-.017-.017m.115-.2c0,.042.038.068.068.088a.462.462,0,0,1,.09.071m-.137-.584c0,.016.016.032.016.049a.194.194,0,0,0,.13.146" transform="translate(-9.326 55.76)" fill="none" stroke="#fff" stroke-width="0.1"/>
      <path id="Path_1583" data-name="Path 1583" d="M9.221-39.288c.022.041.061.139.083.18m-.164-.176a.382.382,0,0,0,.091.126c.027.026.071.06.1.09-.049-.081.034-.183-.085-.276m-1.312.173c-.076.056-.061.18-.085.264.094-.07.222-.108.249-.24m-.229.209c.035-.059.126-.151.147-.2m-.857-.816a.331.331,0,0,1,.043.216m-.125-.268c0,.135.076.2.146.309a.475.475,0,0,1,.049-.163c.032-.065-.016-.1-.049-.146" transform="translate(-5.85 42.842)" fill="none" stroke="#fff" stroke-width="0.1"/>
      <path id="Path_1584" data-name="Path 1584" d="M4.775-40.216c-.049.032-.114.065-.13.114m3.006.72.1.132" transform="translate(-3.841 43.016)" fill="none" stroke="#fff" stroke-width="0.1"/>
      <path id="Path_1585" data-name="Path 1585" d="M7.223-37.9c.005.127.139.231.229.321a.487.487,0,0,1,.015-.17.433.433,0,0,0-.066-.239m-.1.061a1.674,1.674,0,0,1,.138.315" transform="translate(-5.973 41.172)" fill="none" stroke="#fff" stroke-width="0.1"/>
      <path id="Path_1586" data-name="Path 1586" d="M29.72-47.478c-.032-.032-.082-.049-.114-.1" transform="translate(-24.484 49.102)" fill="none" stroke="#fff" stroke-width="0.1"/>
      <path id="Path_1587" data-name="Path 1587" d="M25.7-39.221c-.03.1.008.217-.009.282.073-.073.171-.142.17-.255m-.068-.039c-.036.084-.019.17-.075.256" transform="translate(-21.242 42.202)" fill="none" stroke="#fff" stroke-width="0.1"/>
      <path id="Path_1589" data-name="Path 1589" d="M13.654-17.486a.756.756,0,0,0,.747-.747.746.746,0,0,0-.747-.748.736.736,0,0,0-.747.748A.746.746,0,0,0,13.654-17.486Zm0,0" transform="translate(-10.673 25.455)" fill="none" stroke="#fff" stroke-width="0.1"/>
      <path id="Path_1590" data-name="Path 1590" d="M13.663-19l-.026.291c0,.041,0,.154-.007.261l.015.052h.014l.028-.094v-.223Zm-.149.8h0Zm.025.045h0ZM13-17.873l.26-.114c.032-.025.136-.087.23-.142l.037-.038-.007-.011-.091.024-.2.118Zm.8-.578.106-.182c.007-.014.113-.263.114-.265a2.228,2.228,0,0,0-.169.245l-.122.214-.016.062h0a.12.12,0,0,1,.028.018l-.019-.014c.022-.022.051-.049.081-.077Zm-.055.1-.006,0Zm-.164.241,0,0ZM13-18.621s.163.114.228.162l.207.121.086.022a.215.215,0,0,1,.011-.018l-.039-.04-.233-.133C13.2-18.54,13-18.621,13-18.621Zm.276-.277.108.245.14.232.038.04.016-.007-.024-.087-.116-.2Zm.573.565.219-.124c.084-.055.232-.164.232-.164s-.2.08-.26.114l-.2.118-.045.045-.018.018.007.012Zm.02.109c.1,0,.2-.007.236-.007.082,0,.293-.016.293-.016s-.211-.032-.293-.032h-.229l-.08.024v.012Zm-.031.119.195.112.268.12-.235-.168-.208-.124-.075-.019a.072.072,0,0,1-.007.014Zm-.1.056c.049.086.1.176.124.207l.17.239-.12-.272-.119-.2-.055-.057-.018.011Zm-.1-.052-.015.057v.251l.028.293.032-.293v-.23l-.024-.078Zm-.736-.147.274.024.274,0,.053-.015a.131.131,0,0,1,0-.023l-.076-.021h-.249Zm0,0" transform="translate(-10.673 25.468)" fill="none" stroke="#fff" stroke-width="0.1"/>
      <path id="Path_1591" data-name="Path 1591" d="M16.852-14.839a.085.085,0,0,0,.065.033A.088.088,0,0,0,17-14.887a.077.077,0,0,0-.016-.048" transform="translate(-13.936 22.109)" fill="none" stroke="#fff" stroke-width="0.1"/>
      <path id="Path_1592" data-name="Path 1592" d="M13.275-17.639l.212-.176.228-.222a.162.162,0,0,1-.043-.043l-.218.224Zm-.195-.326s.193-.026.274-.043l.312-.083a.153.153,0,0,1-.017-.057l-.31.086Zm.52.521.1-.261.082-.309a.2.2,0,0,1-.059-.016l-.08.309Zm.1-.6h0Zm-.282.536.162-.228.117-.2.024-.093.012,0a.117.117,0,0,1-.022-.011l-.041.04-.139.227Zm.505-.588c.1.026.2.054.3.078s.2.039.3.054l-.274-.1c-.049-.019-.2-.057-.311-.089A.143.143,0,0,1,13.928-18.1Zm-.849-.261.262.1.31.087a.146.146,0,0,1,.017-.057l-.31-.078C13.275-18.322,13.078-18.358,13.078-18.358Zm.864.189c.111-.034.26-.08.309-.089a2.213,2.213,0,0,0,.277-.1s-.212.032-.293.049c-.049.011-.2.049-.31.079A.15.15,0,0,1,13.942-18.168Zm-.06.127.223.226.228.176-.19-.212-.222-.232A.142.142,0,0,1,13.882-18.041Zm.037-.2c.08-.085.2-.193.23-.221.065-.066.191-.237.191-.237s-.17.126-.235.191c-.026.02-.163.149-.235.22A.15.15,0,0,1,13.919-18.239Zm-.057-.051.08-.308L14-18.892l-.1.277-.093.309A.146.146,0,0,1,13.862-18.29Zm-.587-.407.171.212.231.239a.153.153,0,0,1,.039-.036l-.228-.241Zm.326-.195.039.276.087.326a.159.159,0,0,1,.059-.017c-.034-.119-.078-.277-.088-.325C13.682-18.7,13.6-18.892,13.6-18.892Zm.2.878c.034.111.08.26.089.309.017.066.1.261.1.261s-.032-.212-.049-.277c-.01-.049-.049-.2-.079-.309A.147.147,0,0,1,13.8-18.014Zm0,0" transform="translate(-10.816 25.381)" fill="none" stroke="#fff" stroke-width="0.1"/>
      <path id="Path_1593" data-name="Path 1593" d="M10.721-15.4l.082.162Zm-.126.01.076.151Zm-.118.007.072.144Zm-.152,0,.074.149Zm-.144,0,.072.144Zm-.148,0,.073.147Zm-.145,0,.073.145Zm-.162,0,.072.143Zm-.148,0,.073.147Zm-.162,0,.073.145Zm-.148,0,.074.149Zm-.147,0,.075.149Zm-.162,0,.074.149Zm-.147,0,.073.147Zm-.145,0,.073.147Zm-.165,0,.075.151Zm-.143.006.072.145Zm-.145,0,.071.142Zm-.164,0,.072.145Zm-.147,0,.074.147Zm-.164,0,.073.146Zm-.145,0,.074.146Zm2.692-1.188a.072.072,0,0,0,0,.08.1.1,0,0,1,0,.106Zm.162-.016c0,.017-.033.033-.049.033Zm-.081-.016a.035.035,0,0,1,.032-.033c.016,0,.032,0,.032.033C10.414-16.6,10.382-16.586,10.366-16.6Zm.313.619a.281.281,0,0,0,.109.08Zm-.02.1a.447.447,0,0,0,.021-.1.148.148,0,0,1,.044-.1ZM10.95-16c0-.02.02-.041.038-.061s.028-.036.044-.053Zm-.485.112a.23.23,0,0,0,.1-.193Zm-.124-.076c.059-.007.119-.078.155-.161Zm-.1-.346a.157.157,0,0,0,.153-.031Zm0,0" transform="translate(-6.28 23.514)" fill="none" stroke="#fff" stroke-width="0.1"/>
      <path id="Path_1594" data-name="Path 1594" d="M7.172-9.312h3.4l-.093-.159-.232.009c-.31.009-.764.011-1.414,0-.563,0-1.2.008-1.6,0Zm0,0" transform="translate(-5.931 17.589)" fill="none" stroke="#fff" stroke-width="0.1"/>
      <path id="Path_1595" data-name="Path 1595" d="M21.283-18.541a.034.034,0,0,1-.032-.032.034.034,0,0,1,.032-.033.036.036,0,0,1,.032.033A.035.035,0,0,1,21.283-18.541Zm.118.13a.035.035,0,0,1-.033-.032.036.036,0,0,1,.033-.034.036.036,0,0,1,.032.034A.035.035,0,0,1,21.4-18.412Zm-.011-.15a.034.034,0,0,1-.032-.032.034.034,0,0,1,.032-.032c.033,0,.045.014.045.029S21.42-18.562,21.389-18.562Zm.8.41a.043.043,0,0,1,.049-.049c.016,0,.032.017.032.049A.041.041,0,1,1,22.192-18.151Zm.049-.1a.052.052,0,0,1-.049-.049c0-.032.016-.048.049-.048.016,0,.032.016.032.048C22.274-18.281,22.257-18.249,22.242-18.249Zm.011-.147a.043.043,0,0,1-.049-.048.043.043,0,0,1,.049-.049c.016,0,.032.016.032.049S22.269-18.4,22.252-18.4Zm-.157.147a.052.052,0,0,1-.049-.049.051.051,0,0,1,.049-.048c.033,0,.049.016.049.048A.044.044,0,0,1,22.1-18.249ZM22.1-18.4a.051.051,0,0,1-.049-.048.071.071,0,0,1,.049-.049.052.052,0,0,1,.049.049A.043.043,0,0,1,22.1-18.4Zm-.1-.18a.043.043,0,0,1,.049-.049.048.048,0,1,1,0,.1A.044.044,0,0,1,22-18.576Zm-.758,1.321a.036.036,0,0,1-.032-.033.034.034,0,0,1,.032-.032.034.034,0,0,1,.032.032A.036.036,0,0,1,21.239-17.255Zm.119,0a.034.034,0,0,1-.032-.031.035.035,0,0,1,.032-.033.035.035,0,0,1,.032.033A.034.034,0,0,1,21.358-17.258Zm-.018-.13c-.017,0-.032-.016-.032-.049a.034.034,0,0,1,.032-.032.035.035,0,0,1,.032.032C21.373-17.4,21.356-17.388,21.34-17.388Zm.108,0a.035.035,0,0,1-.032-.031c0-.034.016-.05.032-.05.033,0,.049.016.049.05C21.5-17.4,21.481-17.388,21.448-17.388Zm.029-.162a.035.035,0,0,1-.032-.032.036.036,0,0,1,.032-.033c.033,0,.049.017.049.033S21.51-17.55,21.477-17.55Zm0,0" transform="translate(-17.538 25.161)" fill="none" stroke="#fff" stroke-width="0.1"/>
      <path id="Path_1596" data-name="Path 1596" d="M22.545-18.607s-.1.082-.049.13a.39.39,0,0,1,.114.032s.049-.017,0-.1c0,0,.081-.016.081.049.016.08-.032.1-.032.1a.379.379,0,0,1,.082.081v.1a.445.445,0,0,1-.114.147h-.081s-.082.049-.114.065h-.081a.52.52,0,0,1-.049-.081.28.28,0,0,1,.049-.065c.032-.032.032-.066.049-.1,0-.032-.032-.08,0-.13.049-.032.017-.048.017-.048v-.034a.06.06,0,0,1,0-.08A.243.243,0,0,1,22.545-18.607Zm0,0" transform="translate(-18.443 25.145)" fill="none" stroke="#fff" stroke-width="0.1"/>
      <path id="Path_1597" data-name="Path 1597" d="M21.525-17.713H21.51a1.22,1.22,0,0,1-.066-.489c0-.26.032-.47.081-.487a.727.727,0,0,1,.066.344c-.032-.018-.047.068-.047.143s.018.166.047.147A.72.72,0,0,1,21.525-17.713Zm-1.705.235,1.558-.024a.159.159,0,0,0,.087-.016c-.027,0-.029-.013-.039-.021a1.347,1.347,0,0,1-.111-.664,1.544,1.544,0,0,1,.1-.647,8.7,8.7,0,0,0-1.564-.133.9.9,0,0,1,.4.748A.875.875,0,0,1,19.82-17.478Zm1.372-.362a.365.365,0,0,0,.016.128l.032.064a.252.252,0,0,1,.049.082l.032.049h-.064c-.033-.017-.049-.065-.066-.1a.159.159,0,0,1-.077-.11C21.133-17.748,21.164-17.812,21.192-17.841Zm-.5-.716a.078.078,0,0,0,.016.046c.016.016.049.016.1.016a.141.141,0,0,1,.081.017c.016.016.016.08.032.1.016.082.066.1.13.114s.179.081.2.162c.017.049.017.212-.032.244-.032.049-.083.122-.1.151s-.122.222-.118.211l-.117,0a1.013,1.013,0,0,0,.091-.163.525.525,0,0,1,.046-.112.515.515,0,0,1,.1-.106.168.168,0,0,1-.065.016c-.048,0-.13.065-.162.065a.32.32,0,0,1-.114-.032l-.033.065a.878.878,0,0,1,0,.211c0,.017,0,.057,0,.057h-.094l.013-.07v-.13a1.4,1.4,0,0,0-.079-.15l.016.032c0,.04-.1,0-.114-.016a.094.094,0,0,1-.015-.044.345.345,0,0,0-.043-.115.441.441,0,0,1-.041-.1.414.414,0,0,1-.016-.195l.016-.034c.032-.016.114-.065.114-.065h.081a.445.445,0,0,0,.114-.147Zm-.1.743v-.01l0-.006-.005,0Zm0,0" transform="translate(-16.391 25.455)" fill="none" stroke="#fff" stroke-width="0.1"/>
      <path id="Path_1598" data-name="Path 1598" d="M29.862-15.022c.017,0,.033-.065.033-.147s-.016-.145-.033-.145-.032.066-.032.145.016.147.032.147c-.016,0-.032-.065-.032-.147s.016-.145.032-.145h-.049c-.016,0-.032.066-.032.145s.016.147.032.147Zm0,0" transform="translate(-24.629 22.422)" fill="none" stroke="#fff" stroke-width="0.1"/>
      <path id="Path_1599" data-name="Path 1599" d="M28.611-17.053c.071,0,.117-.222.128-.537h-.014c-.016,0-.032-.065-.032-.147s.016-.145.032-.145h.014c-.011-.305-.057-.537-.128-.537s-.147.31-.147.683C28.465-17.346,28.53-17.053,28.611-17.053Zm0,0" transform="translate(-23.54 24.99)" fill="none" stroke="#fff" stroke-width="0.1"/>
      <path id="Path_1600" data-name="Path 1600" d="M3.19-16.287h.016a1.225,1.225,0,0,0,.066-.488c0-.26-.033-.472-.082-.488a.717.717,0,0,0-.065.343c.032-.017.047.069.047.145s-.018.166-.047.147A.706.706,0,0,0,3.19-16.287Zm0,0" transform="translate(-2.584 24.034)" fill="none" stroke="#fff" stroke-width="0.1"/>
      <path id="Path_1601" data-name="Path 1601" d="M2.771-15c-.016,0-.032-.065-.032-.146s.016-.147.032-.147.032.065.032.147S2.787-15,2.771-15c.016,0,.032-.065.032-.146s-.016-.147-.032-.147h.049c.016,0,.032.065.032.147S2.836-15,2.819-15Zm0,0" transform="translate(-2.265 22.403)" fill="none" stroke="#fff" stroke-width="0.1"/>
      <path id="Path_1602" data-name="Path 1602" d="M3.257-17.026c-.071,0-.117-.222-.128-.537h.014c.016,0,.032-.065.032-.146s-.016-.147-.032-.147H3.129c.011-.3.057-.537.128-.537s.146.309.146.683C3.4-17.319,3.338-17.026,3.257-17.026Zm0,0" transform="translate(-2.588 24.968)" fill="none" stroke="#fff" stroke-width="0.1"/>
      <path id="Path_1603" data-name="Path 1603" d="M5.867-18.525a.034.034,0,0,0,.032-.032.034.034,0,0,0-.032-.033.035.035,0,0,0-.032.033A.035.035,0,0,0,5.867-18.525Zm-.262.812a.029.029,0,0,1-.026-.027.029.029,0,0,1,.026-.026.028.028,0,0,1,.026.026A.028.028,0,0,1,5.606-17.714Zm-.089,0a.029.029,0,0,1-.026-.027.029.029,0,0,1,.026-.026.029.029,0,0,1,.026.026A.029.029,0,0,1,5.516-17.714Zm.033.125a.035.035,0,0,1-.032-.032.035.035,0,0,1,.032-.032.035.035,0,0,1,.033.032A.034.034,0,0,1,5.55-17.589Zm.116,0a.034.034,0,0,1-.032-.032.035.035,0,0,1,.032-.032.035.035,0,0,1,.033.032A.034.034,0,0,1,5.665-17.589Zm.053.149a.036.036,0,0,1-.032-.033.035.035,0,0,1,.032-.032.035.035,0,0,1,.033.032A.036.036,0,0,1,5.719-17.439Zm.132.2a.036.036,0,0,1-.032-.033.034.034,0,0,1,.032-.032.034.034,0,0,1,.032.032A.036.036,0,0,1,5.851-17.237Zm-.1-1.362a.028.028,0,0,1,.028.032.028.028,0,0,1-.032.028.034.034,0,0,1-.028-.032A.031.031,0,0,1,5.754-18.6Zm-.076.2a.037.037,0,0,1-.022-.03.036.036,0,0,1,.032-.034.036.036,0,0,1,.033.034.038.038,0,0,1-.01.022A.187.187,0,0,0,5.678-18.4Zm-.169.132a.036.036,0,0,0,.033-.032.034.034,0,0,0-.033-.032.034.034,0,0,0-.032.032A.035.035,0,0,0,5.509-18.265Zm.068-.13a.035.035,0,0,0,.032-.032.036.036,0,0,0-.032-.034.036.036,0,0,0-.033.034A.035.035,0,0,0,5.577-18.4Zm-.187-.129c.016,0,.039-.017.039-.032a.036.036,0,0,0-.039-.041.035.035,0,0,0-.039.039C5.352-18.541,5.375-18.525,5.391-18.525Zm.021,1.3c.016,0,.032-.017.032-.048a.035.035,0,0,0-.032-.033c-.032,0-.049.016-.049.033A.043.043,0,0,0,5.412-17.225ZM5.321-18.1a.034.034,0,0,0,.032-.032.035.035,0,0,0-.032-.032.035.035,0,0,0-.032.032A.034.034,0,0,0,5.321-18.1Zm.145-.3a.034.034,0,0,0,.032-.032.035.035,0,0,0-.032-.034c-.032,0-.049.017-.049.034S5.433-18.4,5.466-18.4Zm-.209-.12c.016,0,.047-.015.044-.042a.049.049,0,0,0-.04-.037.036.036,0,0,0-.042.037A.037.037,0,0,0,5.256-18.516ZM5.3-17.372A.034.034,0,0,0,5.33-17.4c0-.034-.016-.05-.032-.05a.043.043,0,0,0-.049.05C5.25-17.388,5.266-17.372,5.3-17.372Zm.085-.878a.034.034,0,0,0,.032-.032c0-.032-.016-.048-.032-.048a.043.043,0,0,0-.049.048C5.334-18.265,5.351-18.25,5.383-18.25Zm-.045-.13c.016,0,.032-.016.032-.048a.036.036,0,0,0-.032-.034c-.032,0-.049.017-.049.034A.043.043,0,0,0,5.339-18.379Zm-.21-.146a.035.035,0,0,0,.032-.032c0-.017-.017-.049-.032-.049a.051.051,0,0,0-.049.049C5.08-18.541,5.1-18.525,5.129-18.525Zm.145,1.317c.016,0,.032-.034.032-.049,0-.032-.016-.049-.032-.049a.043.043,0,0,0-.049.049A.053.053,0,0,0,5.274-17.208Zm-.09-.147c.016,0,.032-.016.032-.047s-.016-.05-.032-.05a.052.052,0,0,0-.049.05A.043.043,0,0,0,5.184-17.355Zm0-.739a.043.043,0,0,0,.049-.049c0-.016-.016-.032-.049-.032a.035.035,0,0,0-.033.032C5.155-18.112,5.172-18.095,5.188-18.095Zm.053-.138c.016,0,.032-.032.032-.049,0-.032-.016-.048-.032-.048a.043.043,0,0,0-.049.048A.053.053,0,0,0,5.241-18.233Zm-.03-.147a.035.035,0,0,0,.032-.032c0-.032-.016-.049-.032-.049a.043.043,0,0,0-.048.049C5.163-18.4,5.179-18.379,5.211-18.379Zm-.222-.13c.016,0,.033-.016.033-.049,0-.017-.017-.049-.033-.049a.052.052,0,0,0-.049.049A.043.043,0,0,0,4.989-18.509Zm.13,1.3a.053.053,0,0,0,.049-.049.043.043,0,0,0-.049-.049.052.052,0,0,0-.049.049A.075.075,0,0,0,5.118-17.208Zm-.064-.147A.043.043,0,0,0,5.1-17.4a.043.043,0,0,0-.049-.05.052.052,0,0,0-.049.05A.052.052,0,0,0,5.054-17.355Zm.028-.877a.043.043,0,0,0,.049-.049.043.043,0,0,0-.049-.048.051.051,0,0,0-.049.048A.052.052,0,0,0,5.083-18.233Zm-.015-.13a.052.052,0,0,0,.049-.049.043.043,0,0,0-.049-.049.052.052,0,0,0-.049.049A.074.074,0,0,0,5.068-18.362Zm-.414,1.137a.052.052,0,0,0,.049-.048.044.044,0,0,0-.049-.05.046.046,0,0,0-.047.05A.049.049,0,0,0,4.653-17.225Zm.155,0a.052.052,0,0,0,.049-.048.053.053,0,0,0-.049-.05.044.044,0,0,0-.049.05A.043.043,0,0,0,4.809-17.225Zm-.015-.147a.052.052,0,0,0,.049-.049.073.073,0,0,0-.049-.049.052.052,0,0,0-.049.049A.043.043,0,0,0,4.794-17.372Zm.17.164a.053.053,0,0,0,.049-.049.043.043,0,0,0-.049-.049.052.052,0,0,0-.049.049A.075.075,0,0,0,4.964-17.208Zm-.04-.147a.052.052,0,0,0,.049-.047.044.044,0,0,0-.049-.05.052.052,0,0,0-.049.05A.074.074,0,0,0,4.924-17.355Zm1.577.342c-.8,0-1.739.016-1.951-.016-.074-.014-.159-.113-.195-.157l.018,0,.009-.019c.137,0,.458.008.808.017.33.007.686.016.941.022a.874.874,0,0,0,.45.122.877.877,0,0,0,.449-.122h.024c.547-.006,1.326-.019,1.56-.024a.462.462,0,0,1-.1.115A8.763,8.763,0,0,1,6.5-17.014Zm0,0" transform="translate(-3.602 25.145)" fill="none" stroke="#fff" stroke-width="0.1"/>
      <path id="Path_1604" data-name="Path 1604" d="M5.766-17.723a.035.035,0,0,1,.032.032m.033-.162c.016,0,.032,0,.032.016.017.017,0,.017,0,.034-.016,0,.017.016.017.016,0,.032-.017.065.016.082.016.016-.016.032,0,.048,0,.017.032.017.032.032,0,0-.016.032,0,.049,0,.016.032,0,.032.016v.032c0,.016.032.016.032.032v.049c.016.017.032.033.032.049l.032.033v.017a.023.023,0,0,0,.032,0l.016.016c0,.016.033,0,.033,0l.016.032" transform="translate(-4.768 24.522)" fill="none" stroke="#fff" stroke-width="0.1"/>
      <path id="Path_1605" data-name="Path 1605" d="M3.867-18.872l-.057.013.013.02c0-.007-.007-.016-.011-.021Zm1.762,1.384h0Zm-1.75-.04h.1l.189,0h.059l.465.011c.33.007.686.016.941.022a.874.874,0,0,1-.428-.755.9.9,0,0,1,.4-.75Zm.671-.748a.287.287,0,0,0,.114.016.774.774,0,0,1,.13-.031.25.25,0,0,1,.114.016c.032.016.13,0,.13-.066.016-.065,0-.2.016-.243a.224.224,0,0,1,.114-.13.288.288,0,0,1,.081-.016A.06.06,0,0,1,5.2-18.7c-.016.017-.065.049-.065.082l.032-.032a.354.354,0,0,1,.081-.049l-.016.049a.218.218,0,0,1-.032.026.072.072,0,0,1,.032-.011s0,.049-.032.065c-.016,0-.065.032-.065.066a.06.06,0,0,0,.016-.033.254.254,0,0,1,.066-.032h.032a.245.245,0,0,1-.032.066c-.017.017-.049.032-.049.065a.016.016,0,0,1,.016-.016c.016,0,.036-.029.036-.029a.137.137,0,0,1-.021.064c-.016.032-.068.028-.084.093.026-.026.016-.051.084-.093-.02.012-.016.16-.016.16l-.032.017a.252.252,0,0,1-.13.032.085.085,0,0,0-.066.033l-.032.032a.239.239,0,0,1-.016.179c-.016.032.016.065.032.081a.416.416,0,0,0,.114.032s.032-.016.049.049a1,1,0,0,0,.13.13c.016,0,.032,0,.032.049,0,0,.007.042.017.075,0,.008.009.031.016.054l-.107,0c0-.02-.005-.037-.007-.046a.4.4,0,0,0-.026-.081.906.906,0,0,0-.13-.13.425.425,0,0,0-.153-.032A.252.252,0,0,1,4.7-17.9a.3.3,0,0,0-.1-.13.333.333,0,0,1,.1.13.677.677,0,0,1-.178.032.41.41,0,0,1-.228-.049s.016.1-.049.1-.142,0-.158.029a.248.248,0,0,0-.033.049l-.016.016s-.017.066,0,.082c0,0-.1.035-.1.052a.261.261,0,0,1-.016-.03,1.251,1.251,0,0,0,.043-.189A.436.436,0,0,1,4-17.87s.016-.032.032-.032a1.034,1.034,0,0,0,.114-.032s-.032.016-.032-.016a.283.283,0,0,1,.049-.211.788.788,0,0,1-.049.065.755.755,0,0,1,.016-.164.4.4,0,0,0,.016-.13v-.081s.017-.066,0-.081a.082.082,0,0,1-.016.081.08.08,0,0,1-.049.016.163.163,0,0,1-.016.049s-.016.033-.032.033a.074.074,0,0,1-.016-.082c0-.032.032-.082.032-.114,0-.016-.016-.08,0-.1a.015.015,0,0,1,.016-.016s0-.1.016-.1c0,0,.017-.064.049-.064,0,0-.016-.032.033-.049v.033s.016-.033.032-.033l-.016.033s.049-.016.065,0c0,0-.032.016-.032.032,0,0,.016-.016.049,0l-.016.017.049-.017s-.016.017-.032.032a.132.132,0,0,1,.081,0l-.049.032s.049-.017.049,0l-.032.032h.032l-.016.032a.252.252,0,0,1,.065.032l-.049.032h.049l-.016.032H4.4l-.016.032a.113.113,0,0,0,.066.032A.245.245,0,0,0,4.4-18.5a.3.3,0,0,1,.082.032H4.436a.231.231,0,0,1,.049.032.056.056,0,0,1-.032.017l.049.016a.126.126,0,0,0-.066.016c0,.014.009.015.016.017a.056.056,0,0,1,.049.032H4.469s.049,0,.065.016H4.5A.125.125,0,0,1,4.55-18.276Zm-.658.748c-.047,0-.041.04-.147,0h0v0h0l0,0h.011c.081,0,.146-.293.146-.683v-.113c0-.022,0-.043,0-.063v-.026h0v-.049l0-.025v-.036c0-.027-.006-.053-.01-.078v0l0-.017v-.009h0a.775.775,0,0,0-.057-.206l-.012-.024.068-.016Zm0,0" transform="translate(-3.098 25.465)" fill="none" stroke="#fff" stroke-width="0.1"/>
      <path id="Path_1606" data-name="Path 1606" d="M10.021-19.335a.047.047,0,0,0-.065.032ZM7.078-18.7a.06.06,0,0,1,.016.049c.016.032.032.065.065.065Zm1.756.649a.874.874,0,0,0,.878-.877.887.887,0,0,0-.878-.893.888.888,0,0,0-.878.893A.874.874,0,0,0,8.834-18.051Zm0,0" transform="translate(-5.854 26.15)" fill="none" stroke="#fff" stroke-width="0.1"/>
      <path id="Path_1607" data-name="Path 1607" d="M4.291,51.773l-.025.026c-.1-.114-.364-.415-.124-.355,0,0,.035-.038.007-.134H4.007l-.073-.07H5.746c-.145-.151-.161-.185-.272-.187H5.426l-.016-.082c.149-.024.218.072.378.27h.635l.074.07H6.355V51.8l-.085-.061v-.129c-.151.129-.359-.045-.26-.174a.192.192,0,0,1,.26.009V51.31H5.833V51.8l-.085-.061v-.162H5.573c0,.057,0,.132-.036.1-.068-.039-.168-.164-.122-.169h.072V51.31H5.27V51.8l-.084-.061v-.13a.186.186,0,0,1-.314-.13.11.11,0,0,0,.095-.168H4.476V51.8l-.087-.061v-.229a.19.19,0,0,1-.2.007c-.016.039-.039.055-.039.064A.664.664,0,0,0,4.291,51.773Zm.1-.464H4.215c.026.111-.007.162-.007.157a.164.164,0,0,0,.181-.032Zm.532.173h-.2c-.11,0-.034.183.081.3l-.024.018c-.149-.107-.268-.387-.108-.387h.248Zm.265.03v-.2H5.03c.034.088.028.2-.1.207C4.952,51.6,5.1,51.6,5.186,51.513Zm.562-.2H5.573V51.5h.175Zm.522.214v-.039c0-.07-.273-.043-.247.065C6.045,51.636,6.27,51.593,6.27,51.523Zm1.508-.01v-.2H7.623c.035.088.028.2-.1.207C7.545,51.6,7.694,51.6,7.778,51.513Zm-.5-.018H7.14c.212.162-.148.4-.276-.049l.031-.011c.011.108.149.273.209.19.043-.064-.007-.14-.094-.2h.272V51.31H6.835l-.074-.07H8.3c-.145-.151-.161-.185-.272-.187H7.98l-.016-.082c.149-.024.219.072.378.27h.121l.076.07H8.387V51.8L8.3,51.738v-.255H8.112c-.129,0-.033.183.083.3l-.024.018c-.149-.107-.268-.387-.109-.387H8.3v-.1H7.863V51.8l-.085-.061v-.13a.185.185,0,0,1-.312-.13.109.109,0,0,0,.093-.168H7.369V51.8l-.086-.061Zm0,0" transform="translate(-3.253 -42.149)" fill="#fff" fill-rule="evenodd"/>
      <path id="Path_1608" data-name="Path 1608" d="M19.016-38.844a1.119,1.119,0,0,0,.129.266m-.069-.314c.036.067.1.171.091.217a.162.162,0,0,0,.005.146c-.039-.066-.213-.118-.212-.205" transform="translate(-15.681 41.921)" fill="none" stroke="#fff" stroke-width="0.1"/>
      <path id="Path_1609" data-name="Path 1609" d="M14.033-39.872c-.055,0-.091.172-.13.212l-.016.016c.109-.087.268-.033.341-.179m-.065-.065a2.864,2.864,0,0,0-.228.211" transform="translate(-11.484 42.745)" fill="none" stroke="#fff" stroke-width="0.1"/>
      <path id="Path_1610" data-name="Path 1610" d="M23.328-43.584l-.032.016c0,.065,0,.147-.081.147" transform="translate(-19.199 45.801)" fill="none" stroke="#fff" stroke-width="0.1"/>
      <path id="Path_1611" data-name="Path 1611" d="M23.975-39.943c-.03.1.008.217-.008.282.072-.073.171-.143.169-.255m-.068-.039c-.035.084-.019.17-.074.256" transform="translate(-19.817 42.8)" fill="none" stroke="#fff" stroke-width="0.1"/>
      <path id="Path_1612" data-name="Path 1612" d="M25.5-32.8l.1.1" transform="translate(-21.088 36.882)" fill="none" stroke="#fff" stroke-width="0.1"/>
      <path id="Path_1613" data-name="Path 1613" d="M25.372-35.166c.007.042-.042.1-.075.134" transform="translate(-20.92 38.839)" fill="none" stroke="#fff" stroke-width="0.1"/>
      <path id="Path_1614" data-name="Path 1614" d="M24.161-37.5c0,.047-.028.149-.033.195m-.036-.238a.375.375,0,0,0,0,.155c.007.037.024.09.029.13.006-.094.133-.133.089-.276" transform="translate(-19.919 40.803)" fill="none" stroke="#fff" stroke-width="0.1"/>
      <path id="Path_1615" data-name="Path 1615" d="M7.851-46.5a.216.216,0,0,0-.033.147c0,.016-.016.016-.032.032m.173-.127c-.016-.033-.016-.082-.032-.114m2.838.238-.032.016c0,.065,0,.146-.082.146" transform="translate(-6.438 48.262)" fill="none" stroke="#fff" stroke-width="0.1"/>
      <path id="Path_1616" data-name="Path 1616" d="M9.168-45.642c0,.047.049.091.083.124.012.011,0,.024,0,.047" transform="translate(-7.582 47.503)" fill="none" stroke="#fff" stroke-width="0.1"/>
      <path id="Path_1617" data-name="Path 1617" d="M9.211-36.994a.339.339,0,0,0,.048.082c.065.049.084.089.132.122" transform="translate(-7.617 40.351)" fill="none" stroke="#fff" stroke-width="0.1"/>
      <path id="Path_1618" data-name="Path 1618" d="M11.614-18.529a.028.028,0,0,1,.028.032.029.029,0,0,1-.032.028.034.034,0,0,1-.028-.032A.031.031,0,0,1,11.614-18.529Zm0,0" transform="translate(-9.578 25.081)" fill="none" stroke="#fff" stroke-width="0.1"/>
      <path id="Path_1619" data-name="Path 1619" d="M10.9-18.549a.032.032,0,0,1,.032.037.033.033,0,0,1-.037.032.04.04,0,0,1-.032-.037A.035.035,0,0,1,10.9-18.549Zm0,0" transform="translate(-8.981 25.097)" fill="none" stroke="#fff" stroke-width="0.1"/>
      <path id="Path_1620" data-name="Path 1620" d="M12.963-18.525a.043.043,0,0,1-.049-.049.052.052,0,0,1,.049-.049.073.073,0,0,1,.049.049A.052.052,0,0,1,12.963-18.525Zm-2.411,1.277a.035.035,0,0,1-.032-.032.035.035,0,0,1,.032-.032.034.034,0,0,1,.032.032A.034.034,0,0,1,10.552-17.248Zm-.1-.864a.035.035,0,0,0,.033-.032.034.034,0,0,0-.033-.032.035.035,0,0,0-.032.032A.035.035,0,0,0,10.454-18.112Zm0,0" transform="translate(-8.619 25.158)" fill="none" stroke="#fff" stroke-width="0.1"/>
      <path id="Path_1621" data-name="Path 1621" d="M4.871-17.979a.037.037,0,0,0,.041-.042.043.043,0,0,0-.041-.039C4.825-18.06,4.816-17.979,4.871-17.979Zm0,0" transform="translate(-3.997 24.693)" fill="none" stroke="#fff" stroke-width="0.1"/>
      <path id="Path_1622" data-name="Path 1622" d="M16.585-31.509a1.533,1.533,0,0,1,.163.162m-1.267-.788a.562.562,0,0,0,.087.208" transform="translate(-12.802 36.332)" fill="none" stroke="#fff" stroke-width="0.1"/>
      <path id="Path_1623" data-name="Path 1623" d="M3.093-50.052H2.978a11.972,11.972,0,0,0-2.065.145c-.05.01-.082.063-.1.1a.061.061,0,0,1,.041.03,9.79,9.79,0,0,1,1.792-.134l.006,0,.013-.007h0a.3.3,0,0,1,.035-.02h0v0l.012-.006a.176.176,0,0,1,.028-.014l0,0,.05-.022h0L2.827-50h0l.007,0,.005,0h0l.007,0h0l.007,0a.986.986,0,0,1,.113-.028H2.98a.769.769,0,0,1,.112-.011Zm1.917.1c-.045,0-1.029-.083-1.833-.1h0a.821.821,0,0,1,.192.033l.007,0h0l.012,0,.007,0,.009,0h0l.014,0h0l.018.007h0l.013.005,0,0h0l.018.007h0l.013.007,0,0a.82.82,0,0,1,.091.053h0l.006,0c.321.006.722.02,1.078.057l.051.006a3.982,3.982,0,0,1,.435.07.065.065,0,0,1,.042-.035.2.2,0,0,0-.038-.082A.353.353,0,0,0,5.01-49.956ZM.734-54.361c-.049.032-.1.065-.13.082l.049.049c.016.049.065,0,.065,0-.065.065-.032.049-.016.163.016.049.1.064.147.049.032,0,.032-.032.1-.049.081,0,.114-.1.178-.147.065-.032.065-.016.082-.065,0,0-.082.228-.1.26a2.014,2.014,0,0,1-.162.228s.146-.049.146-.082c0,0-.1.1-.1.13a.23.23,0,0,1-.032.1c-.016.016.049-.016.049-.016a.4.4,0,0,0-.065.211.549.549,0,0,1,0,.164,1.4,1.4,0,0,0-.032.26c.016.048.049.195.065.227a2.055,2.055,0,0,0,.178.325.188.188,0,0,1,.049.1c0,.033.032.065.032.081a.273.273,0,0,1,.049.1c.016.032.081.065.081.1s.032.227.065.472a3.336,3.336,0,0,1,.1.747c-.032.147-.066.178-.082.276s-.032.178-.1.178c-.114,0-.2.032-.2.147,0,.13-.065.065-.162.114-.032,0-.049.163.049.228,0,0,.793-.082.9-.087l.016-.03a.1.1,0,0,1-.02-.143.828.828,0,0,0,.13-.2.134.134,0,0,1,.015-.022.472.472,0,0,0,0-.076,1.779,1.779,0,0,1,.146-.6.046.046,0,0,0,0-.008l0-.008c0-.032-.016-.1-.032-.195-.032-.164-.049-.259-.081-.407A8.658,8.658,0,0,0,2-52.654a.388.388,0,0,0-.081-.163c-.049-.049-.016-.13-.032-.2a.487.487,0,0,1,.081-.357H1.921c0-.081.032-.146.032-.211,0-.081,0-.179.065-.228.016-.032-.016-.065,0-.1.032-.08,0-.178.016-.259,0,0,.033-.032.016-.049-.032-.1.049-.162.033-.244a.1.1,0,0,1,0-.1.1.1,0,0,1,.029-.06.215.215,0,0,1-.013-.119.588.588,0,0,1,.032-.179.116.116,0,0,0,.049-.1c-.016.033-.032.033-.049.065,0,0-.032.032-.032.049a.162.162,0,0,0-.016-.049.476.476,0,0,1-.005-.316,1.618,1.618,0,0,0-.353-.335.1.1,0,0,0-.114-.016l-.13-.13a.164.164,0,0,0-.195-.049c-.049.049-.114.033-.179.033s-.1.016-.114.049c-.032.032.016.065-.049.113a.506.506,0,0,0-.082.114,2.111,2.111,0,0,1-.341.212c-.114.065-.048.212-.065.26A.7.7,0,0,1,.23-54.8a.063.063,0,0,0-.032.114.28.28,0,0,0,.065.049c.049.066.066.1.147.2a.124.124,0,0,0,.146.065c0-.017.017-.017.017-.033.016-.049.016-.081.065-.114s.081-.1.13-.114c.032-.032.065-.065.1-.049.049.017.017.081.032.13.016.016.033.016.033.049a.123.123,0,0,1-.1.032C.8-54.442.766-54.377.734-54.361Zm1.447-.145v0l0,0h0l0,0h0l0,0h0l0,0h0v0l0,0h0v0l0,0h0l0,0h0v0l0,0,0,0v0h0v0h0l0,0h0l0,0v0h0l0,0h0v0h0v0l0,0h0v0h0v0h0v-.005h0v0a.215.215,0,0,1-.013-.119.591.591,0,0,1,.032-.179.114.114,0,0,0,.049-.1c-.016.032-.032.032-.049.065,0,0-.032.032-.032.049a.156.156,0,0,0-.016-.049c-.082-.244.032-.326.016-.472a.144.144,0,0,0,.081.065l-.016-.016a.162.162,0,0,1-.114-.114.238.238,0,0,1,.033-.211c.016-.049.1-.065.114-.114.016-.016,0-.049,0-.081-.032-.066.032-.13.1-.147,0,.049-.016.1.016.147a.2.2,0,0,1-.032-.13c0-.032.049-.049.032-.065,0-.032-.032-.049-.016-.082,0-.016,0-.048.016-.048.016-.033.032-.033.049-.049.032-.032.114-.032.13.016.016,0,0-.016.016-.016.016-.016.032-.032.049-.032s.032-.016.049-.016c.033-.016.065,0,.1-.016.032,0,.065-.032.1-.049a.175.175,0,0,1,.13.033c.016,0,.032,0,.016.016a1.266,1.266,0,0,0,.244.032.126.126,0,0,1,.082-.032c.032-.016.049.016.081.016a1.063,1.063,0,0,0,.227,0c0,.016.017,0,.017.016,0,0,.016.017.016,0a.178.178,0,0,1,.13,0,.08.08,0,0,1,.016.147c-.016.016,0,.032,0,.049a.661.661,0,0,1,.082.146.155.155,0,0,1-.033.163c0,.017,0,.032.017.032a.249.249,0,0,1,.016.325.66.66,0,0,1,.064.114.67.67,0,0,1-.016.357.061.061,0,0,0,.016.049c-.016,0-.048,0-.048-.016.065.066.048.2.032.293v.034l0,0a.248.248,0,0,0-.04.111c-.013.091.013.17-.1.2a.1.1,0,0,0-.068.072c0-.044-.013-.089-.013-.121-.019.067-.065.114-.065.195-.017-.049-.081-.065-.081-.13,0,.065-.049.114-.017.179a.169.169,0,0,1-.163-.065c.026.064-.02.1-.071.116-.03.011-.068.024-.072.065-.073-.036-.14-.1-.214-.132,0,.09-.009.082-.049.162-.011-.054-.044-.043-.08-.059-.057-.026-.067-.112-.067-.168-.039.077-.074.114-.163.114a.189.189,0,0,0-.016-.163.44.44,0,0,1-.114-.13c-.032.049-.1.049-.114.1-.016-.048,0-.113-.016-.162.016.049-.049.1-.082.1v-.081A.278.278,0,0,1,2.181-54.507Zm.862,2.584c.1,0,.114-.032.146-.1a1.235,1.235,0,0,0,.016.487,1.414,1.414,0,0,1,.066.633c0,.082-.017.147-.017.228,0,.049.033.114.033.178,0,.032-.049.065-.049.1-.033.114-.049.293.065.325a.563.563,0,0,0,.178.018.272.272,0,0,0,.212,0c.049-.018.1.016.147.016.081.032.1-.049.195-.016.114.031.147-.082.1-.147A.806.806,0,0,1,4-50.4c-.049-.081-.13-.1-.162-.195a1.354,1.354,0,0,1-.016-.52.785.785,0,0,0,.048-.195c.032-.164.049-.259.082-.407a6,6,0,0,1,.114-.943c.016-.049,0-.114.049-.163.048-.032.016-.114.016-.178a.413.413,0,0,0-.065-.358c.067-.049.049-.185.049-.227a.345.345,0,0,0-.066-.228c-.032-.032.016-.065,0-.1-.049-.08,0-.178-.032-.259A.163.163,0,0,1,4-54.215c.049-.1,0-.114-.033-.179a1.687,1.687,0,0,1-.048-.162c0-.017-.018-.034-.036-.05a.248.248,0,0,0-.04.111c-.013.091.013.17-.1.2a.1.1,0,0,0-.068.073c0-.044-.013-.089-.013-.121-.019.067-.066.114-.066.195-.016-.049-.081-.065-.081-.13,0,.065-.049.114-.016.178a.166.166,0,0,1-.163-.065c.026.064-.02.1-.071.117-.03.011-.068.024-.072.065-.073-.036-.14-.1-.214-.132,0,.09-.009.082-.049.162-.011-.054-.044-.043-.08-.059-.057-.026-.067-.112-.067-.168-.039.077-.074.114-.163.114a.189.189,0,0,0-.016-.163.44.44,0,0,1-.114-.13c-.032.049-.1.049-.114.1-.016-.048,0-.113-.016-.162.016.049-.049.1-.082.1v-.081a.278.278,0,0,1-.1-.1.547.547,0,0,1-.068-.109.1.1,0,0,0-.029.06.1.1,0,0,0,0,.1c.016.082-.066.147-.033.244.017.016-.016.049-.016.049-.016.081.016.18-.016.259-.016.033.016.066,0,.1-.065.049-.065.147-.065.228,0,.065-.032.13-.032.211h.049a.487.487,0,0,0-.081.357c.016.066-.017.147.032.2A.388.388,0,0,1,2-52.654a8.658,8.658,0,0,1,.114.943c.032.147.049.243.081.407.016.1.032.162.032.195a.93.93,0,0,1-.016.52c-.016.1-.1.114-.146.195a.828.828,0,0,1-.13.2c-.049.065-.016.178.1.147.1-.034.114.048.2.016.049,0,.1-.033.147-.016a.271.271,0,0,0,.211,0,.565.565,0,0,0,.179-.018c.114-.032.1-.211.066-.325-.017-.032-.049-.065-.049-.1,0-.065.032-.13.032-.178a1.114,1.114,0,0,0-.032-.228,1.705,1.705,0,0,1,.081-.633,1.64,1.64,0,0,0,.016-.487A.163.163,0,0,0,3.043-51.923Zm0,0" transform="translate(-0.143 56.381)" fill="none" stroke="#fff" stroke-width="0.1"/>
      <path id="Path_1624" data-name="Path 1624" d="M14.721-50.867a.384.384,0,0,0-.039-.061.448.448,0,0,1,0,.074l-.141.067,0,.005a.188.188,0,0,1-.139.063l-.064,0-.08,0a.177.177,0,0,1-.124-.062l0,0-.138-.07a.676.676,0,0,1,0-.072.326.326,0,0,0-.034.052l0,0s-.124.08-.108.193a.246.246,0,0,0,.228.147.411.411,0,0,0,.268-.168c.03.039.141.168.252.168a.267.267,0,0,0,.243-.147A.208.208,0,0,0,14.721-50.867Zm0,0" transform="translate(-11.442 51.874)" fill="none" stroke="#fff" stroke-width="0.1"/>
      <path id="Path_1625" data-name="Path 1625" d="M14.4-50.927s0,.162.049.195a.458.458,0,0,0,.293.016s-.212.147-.341.066A.186.186,0,0,1,14.4-50.927Zm.7,0s.016.146-.049.195a.507.507,0,0,1-.308.016s.227.147.341.066A.177.177,0,0,0,15.094-50.927Zm0,0" transform="translate(-11.854 51.874)" fill="#fff" stroke="#fff" stroke-width="0.1" fill-rule="evenodd"/>
      <path id="Path_1626" data-name="Path 1626" d="M26.766-18.465a.045.045,0,0,1-.035-.074.039.039,0,0,1,.032-.013c.02,0,.036,0,.044.014a.047.047,0,0,1,.008.024A.043.043,0,0,1,26.766-18.465Zm0,0" transform="translate(-22.097 25.1)" fill="none" stroke="#fff" stroke-width="0.1"/>
      <path id="Path_1627" data-name="Path 1627" d="M27.8-16.908a.043.043,0,0,1-.049-.049.043.043,0,0,1,.049-.048.054.054,0,0,1,.036.017c0,.024-.007.047-.01.072A.055.055,0,0,1,27.8-16.908Zm0,0" transform="translate(-22.949 23.821)" fill="none" stroke="#fff" stroke-width="0.1"/>
      <path id="Path_1629" data-name="Path 1629" d="M27.8-15.217a.051.051,0,0,1-.049-.048.043.043,0,0,1,.049-.049h.007c0,.034,0,.067,0,.1h0Zm0,0" transform="translate(-22.949 22.422)" fill="none" stroke="#fff" stroke-width="0.1"/>
      <path id="Path_1630" data-name="Path 1630" d="M27.7-18.365c-.028,0-.041-.011-.041-.039a.036.036,0,0,1,.041-.032c.014,0,.042.018.042.032A.042.042,0,0,1,27.7-18.365Zm0,0" transform="translate(-22.875 25.003)" fill="none" stroke="#fff" stroke-width="0.1"/>
      <path id="Path_1631" data-name="Path 1631" d="M27.8-17.756a.043.043,0,0,1-.049-.048.052.052,0,0,1,.049-.049.072.072,0,0,1,.049.049A.052.052,0,0,1,27.8-17.756Zm0,0" transform="translate(-22.949 24.522)" fill="none" stroke="#fff" stroke-width="0.1"/>
      <path id="Path_1632" data-name="Path 1632" d="M25.317-17.741a.047.047,0,0,1-.044-.044.047.047,0,0,1,.044-.045.047.047,0,0,1,.043.045A.047.047,0,0,1,25.317-17.741Zm0,0" transform="translate(-20.901 24.502)" fill="none" stroke="#fff" stroke-width="0.1"/>
      <path id="Path_1633" data-name="Path 1633" d="M25.578-11.513a.031.031,0,0,1,.034-.035.038.038,0,0,1,.035.035C25.648-11.473,25.578-11.465,25.578-11.513Zm0,0" transform="translate(-21.153 19.308)" fill="none" stroke="#fff" stroke-width="0.1"/>
      <path id="Path_1634" data-name="Path 1634" d="M27.273-12h0Zm0,0" transform="translate(-22.555 19.679)" fill="none" stroke="#fff" stroke-width="0.1"/>
      <path id="Path_1635" data-name="Path 1635" d="M24.189-12.392h0L24.18-12.4Zm0,0" transform="translate(-19.997 20.015)" fill="none" stroke="#fff" stroke-width="0.1"/>
      <path id="Path_1636" data-name="Path 1636" d="M23.887-11a.037.037,0,0,1,.034-.034.031.031,0,0,1,.034.034C23.956-10.954,23.887-10.962,23.887-11Zm0,0" transform="translate(-19.754 18.885)" fill="none" stroke="#fff" stroke-width="0.1"/>
      <path id="Path_1637" data-name="Path 1637" d="M22.522-12.591v.114a2.241,2.241,0,0,0-.114.2.53.53,0,0,1-.072.058l-.024.021h.2s-.012-.021-.011-.024a.157.157,0,0,0,.014-.055,1.02,1.02,0,0,0,.07-.115c.016-.016.049-.048.049-.064a.124.124,0,0,0,.016-.061s-.008.012-.032.012c-.033-.016-.049,0-.081-.032A.1.1,0,0,1,22.522-12.591Zm0,0" transform="translate(-18.452 20.17)" fill="none" stroke="#fff" stroke-width="0.1"/>
    </g>
    <g id="Group_12225" data-name="Group 12225">
      <path id="Path_11589" data-name="Path 11589" d="M17.73,22.5H4.36V5.32L15.57,1.58a1.75,1.75,0,0,1,.51-.08h0a1.65,1.65,0,0,1,1.65,1.64V5.32h0a1.91,1.91,0,0,1,1.91,1.91V20.59a1.91,1.91,0,0,1-1.91,1.91Z" transform="translate(627.013 1408.236)" fill="none" stroke="#fff" stroke-miterlimit="10" stroke-width="1.5"/>
      <path id="Path_11590" data-name="Path 11590" d="M17.73,5.32a1.91,1.91,0,0,1,1.91,1.91V20.59a1.91,1.91,0,0,1-1.91,1.91H4.36V5.32" transform="translate(627.013 1408.236)" fill="none" stroke="#fff" stroke-miterlimit="10" stroke-width="1.5"/>
      <line id="Line_284" data-name="Line 284" x2="7.64" transform="translate(635.193 1427.916)" fill="none" stroke="#fff" stroke-miterlimit="10" stroke-width="1.5"/>
      <path id="Path_1588" data-name="Path 1588" d="M6.5-45.589a.793.793,0,0,0,.114-.058l.08-.081Zm1.528-.285.179.211Zm-.016-.164.152.183Zm-.364.587a.19.19,0,0,0-.078.166ZM7.622-45.7l.114.13Zm0-.256.2.207Zm.017-.183.243.212Zm-.927.261-.138.151Zm.016-.164-.123.154Zm.422.342-.114.13Zm-.005-.256-.19.207Zm-.027-.183-.228.212Zm.729.816a.248.248,0,0,0,0-.214Zm.466.153a.128.128,0,0,0,.011-.111.246.246,0,0,0-.079-.12Zm-.237-.465a.383.383,0,0,0,.1.13c.032.049.08.049.08.114-.048-.032-.13.02-.147.084Zm-.13-.049c0,.032.033.049.049.081,0,.032.033.049.033.065,0,.032,0,.049.016.065a.148.148,0,0,0,.049.114.38.38,0,0,1,.016.057.105.105,0,0,1-.006.07.123.123,0,0,0,.1.088Zm-.032.541c-.066,0-.086-.062-.077-.118.016-.1.161-.134.239-.082s0,.175-.042.18Zm-.3-.053a.117.117,0,0,1,.1-.187.114.114,0,0,1,.12.057c0,.028.03.18-.065.162Zm-.695-.13a.388.388,0,0,1,.032-.13Zm-.466.159c-.064-.016-.038-.11-.006-.143,0-.032.046-.078.083-.089Zm.255-.484-.017.016c-.016.049-.08.049-.1.1a.171.171,0,0,0-.081.147.111.111,0,0,1,.151.074Zm.114-.032c0,.032-.033.049-.049.081,0,.032-.032.049-.032.065,0,.032-.016.049-.016.065a.765.765,0,0,1-.049.114.2.2,0,0,0-.013.1.132.132,0,0,1-.134.117Zm.052.537a.085.085,0,0,0,.061-.066c0-.066-.016-.13-.081-.147-.049,0-.1-.018-.15.014s-.051.147.009.178Zm.268-.046c.049-.048.021-.134-.028-.182-.093-.046-.234.035-.179.146.016.032.015.056.068.068Zm1.452.061c-.016-.031-.032-.065-.049-.1Zm.091,0c-.016-.031-.022-.064-.038-.1Zm.12.015a.252.252,0,0,1-.049-.114Zm.07,0a.764.764,0,0,1-.053-.1Zm.134.022a.15.15,0,0,1-.089-.085ZM8.9-45.63a.241.241,0,0,0,.089.021Zm-.041-.133a.394.394,0,0,1,.1.043Zm-.05-.109a.221.221,0,0,1,.112.038Zm0-.12a.234.234,0,0,1,.094.08Zm-.216.15c.016.016.081.048.1.065a.347.347,0,0,0,.116.1Zm0-.114a.508.508,0,0,1,.114.081c.016.033.049.049.082.081Zm0-.1a.652.652,0,0,1,.162.13Zm-.278.382c.066.049.164.13.245.178Zm.245.074c-.082-.065-.163-.13-.26-.2Zm-.276-.308c.081.049.146.1.244.145Zm.195-.049c-.1-.082-.211-.163-.308-.26Zm.146.683c0-.038-.033-.068-.077-.1a2.046,2.046,0,0,1-.229-.19Zm.017-.472c.049.1.06.192.185.216.057.011.124.011.156.044a.274.274,0,0,1,.049.179s.13-.016.146.032a.279.279,0,0,1-.032.195Zm.162.017c0,.065.016.081.081.146.017.032.017.049.082.049.032.016.146.032.163.049a.225.225,0,0,1,.065.179.308.308,0,0,1,.071,0,.1.1,0,0,1,.059.146c-.016.031-.049.065-.032.1Zm-2.607.6a.787.787,0,0,0,.032-.08Zm-.114.013a.221.221,0,0,0,.033-.091Zm-.112.013c0-.032.049-.065.049-.114Zm-.133.007a.19.19,0,0,0,.057-.1Zm-.129.014a.16.16,0,0,0,.093-.086Zm.672-.356c-.059.066-.126.114-.194.182Zm-.454-.387a.456.456,0,0,0-.116.049Zm.038-.1a.163.163,0,0,0-.119.053Zm.206.089a.456.456,0,0,0-.1.065.228.228,0,0,1-.114.1Zm0-.114a.293.293,0,0,0-.114.081c-.016.033-.049.049-.081.081Zm0-.1a.644.644,0,0,0-.163.13Zm.021.509c.091-.061.164-.12.253-.18Zm.278-.318c-.081.049-.146.1-.243.146Zm.043-.158a1.84,1.84,0,0,1-.179.115Zm-.228.066a2.286,2.286,0,0,0,.293-.26Zm-.135.59c.082-.081.13-.1.163-.147a1.1,1.1,0,0,1,.114-.1Zm-.027-.379c-.033.066-.033.114-.066.147-.032.016-.049.065-.114.065-.032.016-.147.032-.163.049a.274.274,0,0,0-.049.179.477.477,0,0,0-.093,0c-.063.008-.064.064-.055.12a.2.2,0,0,0,.035.107Zm-.163.017c0,.065-.016.081-.081.146-.016.032-.016.049-.082.049-.032.016-.146.032-.162.049a.225.225,0,0,0-.065.179c-.053-.007-.089-.009-.114.028a.139.139,0,0,0-.017.12.4.4,0,0,1,.04.105Zm-.152-1.506c-.016.048-.032.08-.049.13a.146.146,0,0,0-.018.081Zm3.722-2.579a.106.106,0,0,0-.059-.028c-.017,0-.049.016-.049.032-.016.016,0,.033-.016.049Zm.364-.012c-.032-.033-.081-.049-.114-.1Zm-.016-.065c0-.032-.049-.016-.049-.032l-.016-.016Zm-.357.537c-.049-.017-.082-.049-.13-.049Zm.315-.179s-.028-.07-.055-.08a.651.651,0,0,0-.049.145S9.79-49.5,9.839-49.532ZM9.8-49.4c.032-.032.016-.065.032-.1a.362.362,0,0,0-.1.065C9.768-49.418,9.784-49.418,9.8-49.4Zm-.065-.032a.56.56,0,0,1-.082-.048c-.016-.017-.032-.065-.049-.082a.249.249,0,0,1-.114-.048c0-.033.032-.018.032-.049a.321.321,0,0,1,.016-.13c.032-.016.081.032.13.066a.562.562,0,0,1,.147.13l.016.1Zm-.1-.809a.637.637,0,0,0,.1-.032l-.082.049Zm.151-.036s.048.065,0,.114Zm-.13-.114c-.016-.032-.016-.065-.049-.065Zm.026.245a.286.286,0,0,0-.066-.081v-.032Zm.121-.212c-.016.081-.1.1-.163.114H9.67c.032.016.049.049.082.081.016.016.016.032.049.049-.016,0,0-.032,0-.032.016-.049.049-.065.032-.1L9.8-50.3c.016-.016.065-.032.032-.064H9.8c-.016.081-.1.1-.163.114H9.67c.032.016.049.049.082.081.016.016.016.032.049.049-.016,0,0-.032,0-.032.016-.049.049-.065.032-.1A.247.247,0,0,1,9.8-50.3c.016-.016.065-.032.032-.064Zm-.147-.033c-.016-.032-.016-.065-.049-.065ZM9.211-49.2c.024.024.067.03.094.055Zm0,0" transform="translate(631.497 1467.932)" fill="none" stroke="#fff" stroke-width="0.1"/>
      <path id="Path_1628" data-name="Path 1628" d="M27.8-16.064a.043.043,0,0,1-.049-.049.043.043,0,0,1,.049-.049.05.05,0,0,1,.018,0c0,.031-.005.062-.008.092Zm0,0" transform="translate(613.043 1439.569)" fill="none" stroke="#fff" stroke-width="0.1"/>
    </g>
  </g>
</svg>
