<svg xmlns="http://www.w3.org/2000/svg" width="22.5" height="22.28" viewBox="0 0 22.5 22.28">
  <g id="Group_12228" data-name="Group 12228" transform="translate(-5271.623 1035.014)">
    <g id="Group_12150" data-name="Group 12150" transform="translate(5270.873 -1035.764)">
      <path id="Path_11592" data-name="Path 11592" d="M15.82,14.86H1.5V1.5h21V14.86H19.64" fill="none" stroke="#fff" stroke-miterlimit="10" stroke-width="1.5"/>
      <path id="Path_11594" data-name="Path 11594" d="M17.73,22.5h0a6.52,6.52,0,0,0,1.91-4.61v-4A1.91,1.91,0,0,0,17.73,12h0a1.9,1.9,0,0,0-1.91,1.91v2.86l-.2.1a3.1,3.1,0,0,0-1.71,2.77h0" fill="none" stroke="#fff" stroke-miterlimit="10" stroke-width="1.5"/>
      <path id="Path_11595" data-name="Path 11595" d="M8.18,14.86v3a6.52,6.52,0,0,0,1.91,4.61" fill="none" stroke="#fff" stroke-miterlimit="10" stroke-width="1.5"/>
    </g>
    <g id="rupee-indian" transform="translate(5187.254 -519.914)">
      <path id="Path_1525" data-name="Path 1525" d="M93.1-512.052c-.1.043-.1.058-.1.553,0,.431,0,.45.034.492.064.082.061.082.761.092a3.166,3.166,0,0,1,1.092.106,1.3,1.3,0,0,1,.577.353.84.84,0,0,1,.122.183c0,.008-.557.014-1.239.014H93.109l-.055.055L93-510.15v.368c0,.4,0,.414.1.463a9.114,9.114,0,0,0,1.311.024h1.264l-.01.047a1.148,1.148,0,0,1-.193.363,1.632,1.632,0,0,1-1.017.524,4.42,4.42,0,0,1-.761.045c-.615.011-.612.01-.665.1-.022.037-.026.106-.026.464a2.7,2.7,0,0,0,.018.451c.01.018.148.175.308.35.586.635,1.322,1.479,2.194,2.512a7.461,7.461,0,0,0,.511.575c.021.008.312.014.649.014.676,0,.679,0,.728-.1.056-.12.084-.077-.469-.749-.774-.938-1.5-1.786-1.976-2.3a3.233,3.233,0,0,1-.241-.276.851.851,0,0,1,.125-.024,2.552,2.552,0,0,0,2.016-1.325,2.342,2.342,0,0,0,.185-.551l.021-.116h.512a2.159,2.159,0,0,0,.559-.024c.093-.048.1-.061.1-.461v-.366l-.047-.051-.047-.053-.543-.008-.543-.008-.045-.161a2.432,2.432,0,0,0-.255-.564.793.793,0,0,1-.063-.108c0-.006.321-.011.713-.011h.713l.05-.048c.061-.063.071-.135.064-.5-.006-.255-.01-.286-.04-.328a.243.243,0,0,0-.072-.064C98.063-512.084,93.173-512.083,93.1-512.052Z" transform="translate(0 0)" fill="#fff"/>
    </g>
  </g>
</svg>
