<svg xmlns="http://www.w3.org/2000/svg" width="17.452" height="17.452" viewBox="0 0 17.452 17.452">
  <g id="Group_12223" data-name="Group 12223" transform="translate(-26.907 -1618.907)">
    <path id="account_box_FILL0_wght400_GRAD0_opsz48" d="M7.454,21.1a12.165,12.165,0,0,1,3.3-2.194,9.5,9.5,0,0,1,3.975-.836,9.5,9.5,0,0,1,3.975.836A12.165,12.165,0,0,1,22,21.1V7.454H7.454Zm7.32-4.945a3.311,3.311,0,0,0,3.345-3.345,3.311,3.311,0,0,0-3.345-3.345,3.311,3.311,0,0,0-3.345,3.345,3.311,3.311,0,0,0,3.345,3.345Zm-7.32,7.3A1.491,1.491,0,0,1,6,22V7.454A1.491,1.491,0,0,1,7.454,6H22a1.491,1.491,0,0,1,1.454,1.454V22A1.491,1.491,0,0,1,22,23.452ZM8.787,22H20.664v-.218a9.534,9.534,0,0,0-2.812-1.685,8.867,8.867,0,0,0-6.254,0,9.534,9.534,0,0,0-2.812,1.685V22Zm5.987-7.3a1.894,1.894,0,0,1-1.333-3.236,1.894,1.894,0,0,1,2.678,2.678A1.808,1.808,0,0,1,14.774,14.7ZM14.726,14.265Z" transform="translate(20.907 1612.907)" fill="#fff"/>
  </g>
</svg>
